<svg xmlns="http://www.w3.org/2000/svg" xmlns:xlink="http://www.w3.org/1999/xlink" width="221" height="221" viewBox="0 0 221 221">
  <defs>
    <linearGradient id="linear-gradient" x1="0.5" x2="0.5" y2="1" gradientUnits="objectBoundingBox">
      <stop offset="0" stop-color="#eee"/>
      <stop offset="1" stop-color="#cbcbcb"/>
    </linearGradient>
  </defs>
  <g id="Group_384" data-name="Group 384" transform="translate(14169 -3606.814)">
    <circle id="Ellipse_131" data-name="Ellipse 131" cx="110.5" cy="110.5" r="110.5" transform="translate(-14169 3606.814)" fill="url(#linear-gradient)"/>
    <g id="Group_383" data-name="Group 383" transform="translate(-14112.398 3682.639)">
      <path id="Path_103" data-name="Path 103" d="M211.984,346.244a2.175,2.175,0,0,0,3.077,0l9.266-9.266a2.176,2.176,0,0,0,0-3.075l-9.219-9.219a2.175,2.175,0,0,0-3.076,0l-9.255,9.255a2.175,2.175,0,0,0,0,3.074Z" transform="translate(-189.67 -300.99)" fill="none"/>
      <path id="Path_104" data-name="Path 104" d="M209.367,356.558a4.786,4.786,0,0,0,3.39,1.407h0a4.792,4.792,0,0,0,3.391-1.4l14.2-14.2a2.174,2.174,0,0,1,3.075,0l24.614,24.613a4.785,4.785,0,0,0,3.643,1.384V355.876a2.161,2.161,0,0,1-1.79-.613l-19.684-19.685a2.174,2.174,0,0,1,0-3.075l19.8-19.8a2.159,2.159,0,0,1,1.671-.624V299.592a4.776,4.776,0,0,0-3.524,1.4l-24.733,24.732a2.174,2.174,0,0,1-3.075,0L216.2,311.575a4.794,4.794,0,0,0-6.781,0l-19.106,19.105a4.793,4.793,0,0,0,0,6.776Zm-7.347-24.019,9.255-9.255a2.175,2.175,0,0,1,3.076,0l9.219,9.219a2.176,2.176,0,0,1,0,3.075l-9.266,9.266a2.175,2.175,0,0,1-3.077,0l-9.209-9.23A2.176,2.176,0,0,1,202.02,332.539Z" transform="translate(-188.912 -299.59)" fill="#f6f6f6"/>
      <path id="Path_105" data-name="Path 105" d="M287.877,337.548l-9.8,9.8,6.781,6.782,14.73-14.731a4.8,4.8,0,0,0,1.4-3.337H288.509A2.161,2.161,0,0,1,287.877,337.548Z" transform="translate(-194.018 -301.679)" fill="#fff"/>
      <path id="Path_106" data-name="Path 106" d="M277.442,322.635l6.781-6.782-14.864-14.864a4.774,4.774,0,0,0-3.256-1.4v12.484a2.155,2.155,0,0,1,1.4.624Z" transform="translate(-193.333 -299.59)" fill="#fff"/>
      <path id="Path_107" data-name="Path 107" d="M300.463,332.7a4.683,4.683,0,0,0-.887-1.192l-14.663-14.663-6.781,6.782,9.749,9.749a2.161,2.161,0,0,1,.633,1.59h12.482A4.921,4.921,0,0,0,300.463,332.7Z" transform="translate(-194.021 -300.578)" fill="#eaeaea"/>
      <path id="Path_108" data-name="Path 108" d="M267.388,358.037a2.153,2.153,0,0,1-1.285.613v12.481a4.917,4.917,0,0,0,1.96-.511,4.661,4.661,0,0,0,1.192-.886l14.917-14.917-6.781-6.782Z" transform="translate(-193.333 -302.364)" fill="#f2f2f2"/>
    </g>
  </g>
</svg>
