<svg xmlns="http://www.w3.org/2000/svg" width="78.005" height="50.149" viewBox="0 0 78.005 50.149">
  <g id="Group_413" data-name="Group 413" transform="translate(5231 -9963)">
    <path id="Path_128" data-name="Path 128" d="M209.318,340.233a1.586,1.586,0,0,0,2.244,0l6.757-6.757a1.587,1.587,0,0,0,0-2.242l-6.723-6.723a1.586,1.586,0,0,0-2.243,0L202.6,331.26a1.586,1.586,0,0,0,0,2.242Z" transform="translate(-5424.047 9655.766)" fill="none"/>
    <path id="Path_129" data-name="Path 129" d="M203.827,341.131a3.49,3.49,0,0,0,2.472,1.026h0a3.494,3.494,0,0,0,2.473-1.024l10.355-10.354a1.585,1.585,0,0,1,2.242,0l17.948,17.948a3.489,3.489,0,0,0,2.656,1.009v-9.1a1.576,1.576,0,0,1-1.305-.447l-14.354-14.354a1.585,1.585,0,0,1,0-2.242l14.44-14.44a1.574,1.574,0,0,1,1.219-.455v-9.1a3.483,3.483,0,0,0-2.57,1.019l-18.035,18.034a1.585,1.585,0,0,1-2.242,0l-10.316-10.316a3.5,3.5,0,0,0-4.945,0l-13.932,13.932a3.5,3.5,0,0,0,0,4.941Zm-5.357-17.515,6.749-6.749a1.586,1.586,0,0,1,2.243,0l6.723,6.723a1.587,1.587,0,0,1,0,2.242l-6.757,6.757a1.586,1.586,0,0,1-2.244,0l-6.715-6.731A1.586,1.586,0,0,1,198.47,323.616Z" transform="translate(-5419.912 9663.41)" fill="#fff"/>
    <path id="Path_130" data-name="Path 130" d="M285.223,337.146l-7.147,7.147,4.945,4.945L293.762,338.5a3.5,3.5,0,0,0,1.024-2.434h-9.1A1.576,1.576,0,0,1,285.223,337.146Z" transform="translate(-5447.781 9652.011)" fill="rgba(255,255,255,0.25)"/>
    <path id="Path_131" data-name="Path 131" d="M274.372,316.4l4.945-4.945-10.839-10.839a3.482,3.482,0,0,0-2.374-1.019v9.1a1.572,1.572,0,0,1,1.024.455Z" transform="translate(-5444.039 9663.409)" fill="rgba(255,255,255,0.6)"/>
    <path id="Path_132" data-name="Path 132" d="M294.415,328.4a3.417,3.417,0,0,0-.647-.869l-10.692-10.693-4.945,4.945,7.109,7.109a1.576,1.576,0,0,1,.461,1.16h9.1A3.589,3.589,0,0,0,294.415,328.4Z" transform="translate(-5447.798 9658.019)" fill="rgba(255,255,255,0.85)"/>
    <path id="Path_133" data-name="Path 133" d="M267.04,355.329a1.57,1.57,0,0,1-.937.447v9.1a3.584,3.584,0,0,0,1.429-.373,3.4,3.4,0,0,0,.869-.646l10.877-10.877-4.945-4.945Z" transform="translate(-5444.039 9648.269)" fill="rgba(255,255,255,0.53)"/>
  </g>
</svg>
