<svg id="圖層_1" data-name="圖層 1" xmlns="http://www.w3.org/2000/svg" xmlns:xlink="http://www.w3.org/1999/xlink" width="2500" height="50" viewBox="0 0 2500 50"><defs><style>.cls-1,.cls-2,.cls-3,.cls-8{fill:none;}.cls-2{stroke:#fff;}.cls-2,.cls-3,.cls-8{stroke-linecap:round;stroke-miterlimit:10;}.cls-2,.cls-3{stroke-width:3.5px;}.cls-3,.cls-8{stroke:#000;}.cls-4{fill:#999;}.cls-5{fill:#fff;}.cls-6{clip-path:url(#clip-path);}.cls-7{fill:#1877f2;}.cls-8{stroke-width:4px;}.cls-9{fill:url(#未命名漸層_13);}.cls-10{fill:#64adf0;}.cls-11{fill:url(#未命名漸層_7);}.cls-12{fill:url(#未命名漸層_13-2);}.cls-13{fill:url(#未命名漸層_13-3);}.cls-14{fill:url(#未命名漸層_13-4);}.cls-15{fill:url(#未命名漸層_13-5);}.cls-16{fill:url(#未命名漸層_13-6);}.cls-17{fill:url(#未命名漸層_13-7);}.cls-18{fill:url(#未命名漸層_13-8);}.cls-19{fill:url(#未命名漸層_13-9);}.cls-20{fill:url(#未命名漸層_13-10);}.cls-21{fill:url(#未命名漸層_13-11);}.cls-22{fill:url(#未命名漸層_13-12);}.cls-23{fill:url(#未命名漸層_13-13);}.cls-24{fill:url(#未命名漸層_13-14);}.cls-25{fill:url(#未命名漸層_12);}.cls-26{fill:url(#未命名漸層_12-2);}.cls-27{fill:url(#未命名漸層_12-3);}.cls-28{fill:url(#未命名漸層_12-4);}.cls-29{fill:url(#未命名漸層_12-5);}.cls-30{fill:url(#未命名漸層_12-6);}.cls-31{fill:url(#未命名漸層_12-7);}.cls-32{fill:url(#未命名漸層_12-8);}.cls-33{fill:url(#未命名漸層_12-9);}.cls-34{fill:url(#未命名漸層_12-10);}.cls-35{fill:url(#未命名漸層_12-11);}.cls-36{fill:url(#未命名漸層_12-12);}.cls-37{fill:url(#未命名漸層_12-13);}.cls-38{fill:#00b900;}</style><clipPath id="clip-path"><rect class="cls-1" x="1501.51" y="2.21" width="46" height="46"/></clipPath><linearGradient id="未命名漸層_13" x1="1961.22" y1="25" x2="1986.95" y2="25" gradientUnits="userSpaceOnUse"><stop offset="0" stop-color="#2af598"/><stop offset="1" stop-color="#009efd"/></linearGradient><linearGradient id="未命名漸層_7" x1="2012.05" y1="25" x2="2037.78" y2="25" gradientTransform="translate(4049.83 50) rotate(180)" gradientUnits="userSpaceOnUse"><stop offset="0" stop-color="#878787"/><stop offset="1" stop-color="#d2d2d2"/></linearGradient><linearGradient id="未命名漸層_13-2" x1="-12.86" y1="667.45" x2="-12.86" y2="668.45" gradientTransform="matrix(40, 0, 0, -40, 1088.5, 26743)" xlink:href="#未命名漸層_13"/><linearGradient id="未命名漸層_13-3" x1="-5.34" y1="667.45" x2="-5.34" y2="668.45" gradientTransform="matrix(39.98, 0, 0, -40.01, 487.51, 26747.3)" xlink:href="#未命名漸層_13"/><linearGradient id="未命名漸層_13-4" x1="-2.71" y1="667.45" x2="-2.71" y2="668.45" gradientTransform="matrix(40, 0, 0, -40.01, 282.5, 26751.12)" xlink:href="#未命名漸層_13"/><linearGradient id="未命名漸層_13-5" x1="-9.26" y1="667.17" x2="-9.26" y2="668.17" gradientTransform="matrix(40, 0, 0, -36.01, 794.5, 24069.99)" xlink:href="#未命名漸層_13"/><linearGradient id="未命名漸層_13-6" x1="-13.86" y1="667.45" x2="-13.86" y2="668.45" gradientTransform="matrix(34.02, 0, 0, -40.01, 995.49, 26747.01)" xlink:href="#未命名漸層_13"/><linearGradient id="未命名漸層_13-7" x1="-6.64" y1="668.46" x2="-6.64" y2="667.46" gradientTransform="matrix(40, 0, 0, -40, 589.5, 26740.56)" xlink:href="#未命名漸層_13"/><linearGradient id="未命名漸層_13-8" x1="-4.01" y1="667.45" x2="-4.01" y2="668.45" gradientTransform="matrix(40, 0, 0, -39.97, 384.5, 26724.88)" xlink:href="#未命名漸層_13"/><linearGradient id="未命名漸層_13-9" x1="-12.74" y1="667.45" x2="-12.74" y2="668.45" gradientTransform="matrix(33.45, 0, 0, -40, 899.78, 26742.06)" xlink:href="#未命名漸層_13"/><linearGradient id="未命名漸層_13-10" x1="-1.41" y1="668.46" x2="-1.41" y2="667.46" gradientTransform="matrix(40, 0, 0, -40.01, 180.5, 26749.61)" xlink:href="#未命名漸層_13"/><linearGradient id="未命名漸層_13-11" x1="-7.91" y1="667.45" x2="-7.91" y2="668.45" gradientTransform="matrix(40, 0, 0, -39.93, 691.5, 26693.23)" xlink:href="#未命名漸層_13"/><linearGradient id="未命名漸層_13-12" x1="-0.09" y1="668.46" x2="-0.09" y2="667.46" gradientTransform="matrix(40, 0, 0, -40, 78.5, 26743.64)" xlink:href="#未命名漸層_13"/><linearGradient id="未命名漸層_13-13" x1="-15.09" y1="667.29" x2="-15.09" y2="668.29" gradientTransform="matrix(37.62, 0, 0, -37.63, 1191.69, 25150.51)" xlink:href="#未命名漸層_13"/><linearGradient id="未命名漸層_13-14" x1="1.18" y1="667.17" x2="1.18" y2="668.17" gradientTransform="matrix(36, 0, 0, -36, -17.5, 24061)" xlink:href="#未命名漸層_13"/><linearGradient id="未命名漸層_12" x1="5.89" y1="667.45" x2="5.89" y2="668.45" gradientTransform="matrix(40, 0, 0, -40, 1088.5, 26743)" gradientUnits="userSpaceOnUse"><stop offset="0" stop-color="#fff"/><stop offset="1" stop-color="#d2d2d2"/></linearGradient><linearGradient id="未命名漸層_12-2" x1="13.42" y1="667.45" x2="13.42" y2="668.45" gradientTransform="matrix(39.98, 0, 0, -40.01, 487.51, 26747.3)" xlink:href="#未命名漸層_12"/><linearGradient id="未命名漸層_12-3" x1="16.04" y1="667.45" x2="16.04" y2="668.45" gradientTransform="matrix(40, 0, 0, -40.01, 282.5, 26751.12)" xlink:href="#未命名漸層_12"/><linearGradient id="未命名漸層_12-4" x1="9.49" y1="667.17" x2="9.49" y2="668.17" gradientTransform="matrix(40, 0, 0, -36.01, 794.5, 24069.99)" xlink:href="#未命名漸層_12"/><linearGradient id="未命名漸層_12-5" x1="8.19" y1="667.45" x2="8.19" y2="668.45" gradientTransform="matrix(34.02, 0, 0, -40.01, 995.49, 26747.01)" xlink:href="#未命名漸層_12"/><linearGradient id="未命名漸層_12-6" x1="12.11" y1="668.46" x2="12.11" y2="667.46" gradientTransform="matrix(40, 0, 0, -40, 589.5, 26740.56)" xlink:href="#未命名漸層_12"/><linearGradient id="未命名漸層_12-7" x1="14.74" y1="667.45" x2="14.74" y2="668.45" gradientTransform="matrix(40, 0, 0, -39.97, 384.5, 26724.88)" xlink:href="#未命名漸層_12"/><linearGradient id="未命名漸層_12-8" x1="9.69" y1="667.45" x2="9.69" y2="668.45" gradientTransform="matrix(33.45, 0, 0, -40, 899.78, 26742.06)" xlink:href="#未命名漸層_12"/><linearGradient id="未命名漸層_12-9" x1="17.34" y1="668.46" x2="17.34" y2="667.46" gradientTransform="matrix(40, 0, 0, -40.01, 180.5, 26749.61)" xlink:href="#未命名漸層_12"/><linearGradient id="未命名漸層_12-10" x1="10.84" y1="667.45" x2="10.84" y2="668.45" gradientTransform="matrix(40, 0, 0, -39.93, 691.5, 26693.23)" xlink:href="#未命名漸層_12"/><linearGradient id="未命名漸層_12-11" x1="18.66" y1="668.46" x2="18.66" y2="667.46" gradientTransform="matrix(40, 0, 0, -40, 78.5, 26743.64)" xlink:href="#未命名漸層_12"/><linearGradient id="未命名漸層_12-12" x1="4.84" y1="667.29" x2="4.84" y2="668.29" gradientTransform="matrix(37.62, 0, 0, -37.63, 1191.69, 25150.51)" xlink:href="#未命名漸層_12"/><linearGradient id="未命名漸層_12-13" x1="22.02" y1="667.17" x2="22.02" y2="668.17" gradientTransform="matrix(36, 0, 0, -36, -17.5, 24061)" xlink:href="#未命名漸層_12"/></defs><title>iconset</title><circle class="cls-2" cx="1773.85" cy="22.35" r="17.35"/><line class="cls-2" x1="1784.88" y1="38.12" x2="1791.19" y2="46"/><circle class="cls-3" cx="1824.85" cy="22.35" r="17.35"/><line class="cls-3" x1="1835.88" y1="38.12" x2="1842.19" y2="46"/><path class="cls-4" d="M1497.58,25.21A23,23,0,1,0,1471,47.93V31.86h-5.84V25.21H1471V20.14c0-5.76,3.43-9,8.69-9a35.46,35.46,0,0,1,5.15.45V17.3h-2.9c-2.86,0-3.75,1.78-3.75,3.6v4.31h6.38l-1,6.65h-5.36V47.93A23,23,0,0,0,1497.58,25.21Z"/><path class="cls-5" d="M1483.54,31.86l1-6.65h-6.38V20.9c0-1.82.89-3.6,3.75-3.6h2.9V11.64a35.46,35.46,0,0,0-5.15-.45c-5.26,0-8.69,3.19-8.69,9v5.07h-5.84v6.65H1471V47.93a23.22,23.22,0,0,0,7.19,0V31.86Z"/><g class="cls-6"><path class="cls-7" d="M1547.51,25.21a23,23,0,1,0-26.6,22.72V31.86h-5.84V25.21h5.84V20.14c0-5.76,3.43-9,8.69-9a35.46,35.46,0,0,1,5.15.45V17.3h-2.9c-2.86,0-3.75,1.77-3.75,3.59v4.32h6.38l-1,6.65h-5.36V47.93a23,23,0,0,0,19.41-22.72Z"/></g><path class="cls-5" d="M1533.46,31.86l1-6.65h-6.38V20.89c0-1.82.89-3.59,3.75-3.59h2.9V11.64a35.46,35.46,0,0,0-5.15-.45c-5.26,0-8.69,3.19-8.69,9v5.07h-5.84v6.65h5.84V47.93a23.22,23.22,0,0,0,7.19,0V31.86Z"/><line class="cls-8" x1="1906" y1="7.5" x2="1943" y2="44.5"/><line class="cls-8" x1="1943" y1="7.5" x2="1906" y2="44.5"/><path class="cls-9" d="M1984.23,47.55a2,2,0,0,1-1.41-.59l-21.6-21.6L1983.54,3a2,2,0,0,1,2.83,2.83l-19.49,19.49,18.77,18.77a2,2,0,0,1-1.42,3.42Z"/><path class="cls-4" d="M1696.5,12.1a17.36,17.36,0,0,1-5,1.38,8.75,8.75,0,0,0,3.85-4.84,17.47,17.47,0,0,1-5.56,2.12,8.76,8.76,0,0,0-14.91,8,24.87,24.87,0,0,1-18-9.15,8.78,8.78,0,0,0,2.71,11.69,8.76,8.76,0,0,1-4-1.1v.11a8.76,8.76,0,0,0,7,8.58,8.69,8.69,0,0,1-2.3.31,8.24,8.24,0,0,1-1.65-.16,8.77,8.77,0,0,0,8.18,6.08,17.56,17.56,0,0,1-10.87,3.75,18,18,0,0,1-2.09-.12,24.78,24.78,0,0,0,13.42,3.93c16.1,0,24.9-13.34,24.9-24.9q0-.57,0-1.14a17.6,17.6,0,0,0,4.37-4.53"/><path class="cls-10" d="M1745.45,12.1a17.36,17.36,0,0,1-5,1.38,8.79,8.79,0,0,0,3.85-4.84,17.56,17.56,0,0,1-5.56,2.12,8.76,8.76,0,0,0-15.14,6,9.36,9.36,0,0,0,.22,2,24.83,24.83,0,0,1-18-9.15,8.65,8.65,0,0,0-1.19,4.4,8.77,8.77,0,0,0,3.89,7.29,8.72,8.72,0,0,1-4-1.1v.11a8.76,8.76,0,0,0,7,8.58,8.76,8.76,0,0,1-2.31.31,8.07,8.07,0,0,1-1.64-.16,8.75,8.75,0,0,0,8.17,6.08,17.54,17.54,0,0,1-10.87,3.75,17.87,17.87,0,0,1-2.08-.12,24.78,24.78,0,0,0,13.41,3.93c16.1,0,24.9-13.34,24.9-24.9,0-.38,0-.76,0-1.14a17.76,17.76,0,0,0,4.37-4.53"/><path class="cls-11" d="M2035.78,2.45a2,2,0,0,1,1.42.59,2,2,0,0,1,0,2.83l-19.5,19.49,18.77,18.77a2,2,0,0,1-2.82,2.83l-21.6-21.6L2034.37,3A2,2,0,0,1,2035.78,2.45Z"/><path id="bar-chart" class="cls-12" d="M594.07,44.69V41.57h-2.73v-25H582v25h-3.12V4.69h-9.38V41.57h-3.12V22.82H557V41.57h-2.89v3.12h40M563.21,25.94v3.13h-3.12V25.94Zm-3.12,15.63V32.19h3.12v9.38ZM575.71,7.82V29.07h-3.12V7.82Zm-3.12,33.75V32.19h3.12v9.38Zm15.62-21.88v9.38h-3.12V19.69Zm-3.12,21.88V32.19h3.12v9.38Z"/><path id="businessman" class="cls-13" d="M288.2,30.86a20,20,0,0,0-7.6-4.76,11.56,11.56,0,1,0-13.08,0A20,20,0,0,0,254.07,45h3.13a16.89,16.89,0,0,1,15-16.76l-3,11.93L274.06,45l4.85-4.85-3-11.93a16.89,16.89,0,0,1,15,16.76h3.12A19.87,19.87,0,0,0,288.2,30.86ZM265.63,16.58A8.44,8.44,0,1,1,274.06,25h0A8.44,8.44,0,0,1,265.63,16.58Zm8.43,24-1.4-1.4,1.4-5.61,1.4,5.61Z"/><path id="canned-food" class="cls-14" d="M194.07,13.21a5.11,5.11,0,0,0-2-3.87,14.15,14.15,0,0,0-4.44-2.51,44.22,44.22,0,0,0-27.18,0A14.15,14.15,0,0,0,156,9.34a5.17,5.17,0,0,0-2,3.87v.16h0V36.18a5.19,5.19,0,0,0,2,3.87,14.27,14.27,0,0,0,4.44,2.51,40,40,0,0,0,13.59,2.13,39.73,39.73,0,0,0,13.59-2.13,14,14,0,0,0,4.44-2.51,5.12,5.12,0,0,0,2-3.87V13.37h0ZM161.59,9.76a41.14,41.14,0,0,1,25,0c2.66,1,4.39,2.36,4.39,3.45s-1.73,2.45-4.39,3.46a36.78,36.78,0,0,1-12.49,1.93,36.53,36.53,0,0,1-12.48-1.94c-2.67-1-4.39-2.36-4.39-3.45S158.92,10.76,161.59,9.76Zm25,29.87a41.14,41.14,0,0,1-25,0c-2.67-1-4.39-2.36-4.39-3.45v-1.5a16.72,16.72,0,0,0,3.28,1.63,40,40,0,0,0,13.59,2.13,39.73,39.73,0,0,0,13.59-2.13A16.8,16.8,0,0,0,191,34.68v1.5C191,37.27,189.22,38.63,186.56,39.63Zm0-6.25a36.55,36.55,0,0,1-12.49,1.94,36.53,36.53,0,0,1-12.48-1.94c-2.67-1-4.39-2.36-4.39-3.45V24.21a16.72,16.72,0,0,0,3.28,1.63A40,40,0,0,0,174.07,28a40,40,0,0,0,13.59-2.14A16.8,16.8,0,0,0,191,24.21v5.72C191,31,189.22,32.38,186.56,33.38Zm0-10.47a36.55,36.55,0,0,1-12.49,1.94,36.53,36.53,0,0,1-12.48-1.94c-2.67-1-4.39-2.36-4.39-3.45V18a16.72,16.72,0,0,0,3.28,1.63,40,40,0,0,0,13.59,2.14,40,40,0,0,0,13.59-2.14A16.8,16.8,0,0,0,191,18v1.5C191,20.55,189.22,21.91,186.56,22.91Zm-10.94-8a2.08,2.08,0,0,1-.61-1.46,2.13,2.13,0,0,1,.62-1.51c.88-.87,2.27-.86,4.19-.84h1.7c1.93,0,3.31,0,4.19.84a2.13,2.13,0,0,1,0,3c-.76.75-1.9.85-3.44.85h-2.12C178,15.79,176.51,15.79,175.62,14.91Z"/><path id="first-aid-kit" class="cls-15" d="M439.39,13.21H431.1V11.65A4.7,4.7,0,0,0,426.41,7h-4.68a4.69,4.69,0,0,0-4.68,4.69v1.56h-8.29a4.7,4.7,0,0,0-4.69,4.69V38.29A4.7,4.7,0,0,0,408.76,43h30.63a4.69,4.69,0,0,0,4.68-4.69V17.9A4.69,4.69,0,0,0,439.39,13.21Zm-19.22-1.56a1.56,1.56,0,0,1,1.57-1.56h4.67A1.56,1.56,0,0,1,428,11.65v1.56h-7.8ZM441,38.29a1.56,1.56,0,0,1-1.56,1.56H408.76a1.56,1.56,0,0,1-1.56-1.56V17.9a1.56,1.56,0,0,1,1.56-1.56h30.63A1.56,1.56,0,0,1,441,17.9ZM425.64,27h5.85v3.13h-5.85v5.7h-3.13v-5.7h-5.86V27h5.86V21h3.12Z"/><path id="globe" class="cls-16" d="M517.33,28a13.68,13.68,0,1,0,0-19.34h0A13.63,13.63,0,0,0,517.27,28Zm-.22-13.35c.07.16.14.32.22.48a25.85,25.85,0,0,0,4.38,6.28l-3.2,3.19A10.58,10.58,0,0,1,517.11,14.68ZM520,10.81a6.27,6.27,0,0,1,2.5.72,22.79,22.79,0,0,1,5.38,3.75l-3.94,4a22.88,22.88,0,0,1-3.76-5.39c-.86-1.85-.75-2.8-.62-2.94A.76.76,0,0,1,520,10.81Zm14.48,15c-.14.14-1.09.24-2.94-.62a22.68,22.68,0,0,1-5.39-3.76l4-4a22.9,22.9,0,0,1,3.75,5.4c.87,1.84.76,2.79.63,2.93Zm-13.73,1,3.19-3.19A25.85,25.85,0,0,0,530.2,28a5,5,0,0,0,.48.21A10.56,10.56,0,0,1,520.73,26.84ZM536.88,22c-.07-.16-.14-.32-.22-.48a26,26,0,0,0-4.37-6.28l3.19-3.19a10.6,10.6,0,0,1,1.4,10ZM533.26,9.88l-3.18,3.19a26.32,26.32,0,0,0-6.28-4.38l-.49-.21a10.6,10.6,0,0,1,10,1.4Zm-4.62,31.69h6.17v3.12H519.18V41.57h6.33V38.31a19.93,19.93,0,0,1-13-33.61l2.27,2.16a16.8,16.8,0,0,0,24,23.46l2.21,2.21a19.74,19.74,0,0,1-12.45,5.76v3.28Z"/><path id="house" class="cls-17" d="M339.85,17V8.83H330.6l-3.37-3a4.69,4.69,0,0,0-6.18,0l-17,14.85v4.07h3.13V40a4.69,4.69,0,0,0,4.69,4.69h9.53V33.13h5.47V44.69h9.37A4.69,4.69,0,0,0,341,40V24.77h3.12V20.7Zm-2,23a1.57,1.57,0,0,1-1.56,1.57H330V30H318.29V41.57h-6.4A1.57,1.57,0,0,1,310.32,40h0V24.77h27.5ZM307.74,21.64,323.1,8.2a1.58,1.58,0,0,1,2.06,0l8.44,7.45V12h3.13v6.44l3.68,3.25Z"/><path id="profits" class="cls-18" d="M244.07,4.69V14H241V10.1L224.61,26.44l-6.27-6.27-12,12.39-2.24-2.17,14.24-14.67,6.3,6.3,14.21-14.2H234.7V4.69ZM213.23,29.86v14.8h3.13v-18Zm6.09,14.8h3.13v-16l-3.13-3.12Zm-12.25,0h3.12V33l-3.12,3.19Zm24.51,0h3.13V20.76l-3.13,3.13Zm6.17-26.94v27h3.12V17.27h-2.66Zm-12.34,27h3.13V26.93l-3.13,3.13Z"/><path id="shield" class="cls-19" d="M486.65,9.79h0a25.47,25.47,0,0,1-9-3.92,6.82,6.82,0,0,0-7.66,0,25.45,25.45,0,0,1-9,3.92,4.69,4.69,0,0,0-3.88,4.61v9.43a17.44,17.44,0,0,0,2.59,9,26.24,26.24,0,0,0,5.54,6.39,36.57,36.57,0,0,0,8,5.16l.64.28.63-.28a36.33,36.33,0,0,0,8-5.16,26.24,26.24,0,0,0,5.54-6.39,17.44,17.44,0,0,0,2.59-9V14.4A4.68,4.68,0,0,0,486.65,9.79Zm.74,14c0,4.65-2.34,9-7,13a34.38,34.38,0,0,1-6.63,4.43c-2.76-1.41-13.6-7.55-13.6-17.42V14.4a1.58,1.58,0,0,1,1.3-1.54,28.29,28.29,0,0,0,10.22-4.4,3.73,3.73,0,0,1,4.17,0,28.29,28.29,0,0,0,10.22,4.4h0a1.57,1.57,0,0,1,1.3,1.54Zm-6.16-6.94L483.55,19,472.3,31.51l-7.4-7,2.16-2.26L472.12,27Z"/><path id="subway" class="cls-20" d="M141,29.08a4.69,4.69,0,0,0,0-8.78V4.69H137.9V20.25a3.88,3.88,0,0,0-.56.23l-9.16-8.84A4.69,4.69,0,1,0,120,7.12a4.43,4.43,0,0,0-.32.7h-9.33V4.69H107.2V7.82h-3.13v3.12h3.13V23.41a4.65,4.65,0,0,0,1.35,3.3l5.62,5.68-3.39,3.39A4.69,4.69,0,1,0,113,38l3.37-3.38,3.44,3.48a4.69,4.69,0,1,0,8.56,3.82c0-.11.09-.23.13-.34h9.41v3.12H141V41.57h3V38.44h-3ZM108.76,41.57A1.57,1.57,0,1,1,110.32,40h0A1.56,1.56,0,0,1,108.76,41.57Zm30.62-18.44a1.57,1.57,0,1,1-1.56,1.56A1.56,1.56,0,0,1,139.38,23.13ZM124.07,7.82a1.56,1.56,0,1,1-1.56,1.56A1.56,1.56,0,0,1,124.07,7.82Zm-13.3,16.69a1.56,1.56,0,0,1-.45-1.1V10.94h9.33a4.69,4.69,0,0,0,6,2.86l.21-.08,9.3,9a3.93,3.93,0,0,0-.18.43h-9.6a4.68,4.68,0,0,0-3.31,1.37l-5.68,5.68Zm13.3,17.06A1.57,1.57,0,1,1,125.63,40h0A1.56,1.56,0,0,1,124.07,41.57Zm4.42-3.13a4.68,4.68,0,0,0-6-2.85,2.78,2.78,0,0,0-.56.24l-3.39-3.43,5.69-5.69a1.57,1.57,0,0,1,1.11-.45H135a4.68,4.68,0,0,0,2.93,2.88v9.3Z"/><path id="sunset" class="cls-21" d="M388.94,32.35a3,3,0,0,1-2.93-2.3,11.62,11.62,0,0,0,1.33-5.36A12.19,12.19,0,1,0,364.16,30a3,3,0,0,1-6-.58h-3.13a6.14,6.14,0,0,0,10.74,4,6.14,6.14,0,0,0,8.68.55,6.25,6.25,0,0,0,.62-.64,6.15,6.15,0,0,0,8.67.71,5.3,5.3,0,0,0,.59-.57,6.14,6.14,0,0,0,10.7-4.06H392A3,3,0,0,1,388.94,32.35Zm-9.14,0a3,3,0,0,1-3-3h-3.36a3,3,0,0,1-6,.05h0v0h0a9.07,9.07,0,1,1,16.82-4.7,8.69,8.69,0,0,1-1.43,4.72l0,0a3,3,0,0,1-3,2.92Zm15.27-9.22v3.13h-4.68V23.13Zm-35.31,3.13h-4.69V23.13h4.69ZM376.71,9.38h-3.12V4.69h3.12Zm12.48,9-1.56-2.7,4.06-2.35,1.56,2.71Zm-4.71-5.94-2.67-1.63,2.45-4,2.66,1.63Zm-18.34-.23L363.8,8.16l2.7-1.57,2.35,4.06Zm-4.87,5.83-4-2.45,1.63-2.66,4,2.44ZM392,38.52h3.12a6.13,6.13,0,0,1-10.78,4,6.15,6.15,0,0,1-8.67.63,5.6,5.6,0,0,1-.55-.54,6.14,6.14,0,0,1-8.68.46,5.62,5.62,0,0,1-.54-.55,6.13,6.13,0,0,1-10.78-4h3.13a3,3,0,1,0,6,0h3.28a3,3,0,1,0,6,0h3.13a3,3,0,1,0,6,0h3.28a3,3,0,1,0,6,0Z"/><path id="traffic-jam" class="cls-22" d="M79.65,28.94,78,24v0a3.65,3.65,0,0,0-3.43-2.45H63a3.65,3.65,0,0,0-3.43,2.45L58,29a4.82,4.82,0,0,0-2.91,4.4v8.2a3.13,3.13,0,0,0,6.23.4h15a3.11,3.11,0,0,0,3.1,2.73A3.06,3.06,0,0,0,82.57,42V33.29A4.7,4.7,0,0,0,79.65,28.94ZM63,24.62H74.6a.5.5,0,0,1,.47.34l1.18,3.63H61.38L62.56,25a.52.52,0,0,1,.47-.35ZM79.45,37.27a1.56,1.56,0,0,1-1.57,1.56H59.76a1.56,1.56,0,0,1-1.56-1.56V33.36a1.62,1.62,0,0,1,1.56-1.64H77.89a1.57,1.57,0,0,1,1.56,1.57ZM65.31,33.68h7.11V36.8H65.31Zm12.18,1.56a1.56,1.56,0,1,1-1.56-1.56h0a1.56,1.56,0,0,1,1.56,1.56Zm-14.14,0a1.56,1.56,0,1,1-1.56-1.56h0a1.56,1.56,0,0,1,1.56,1.56Zm25.08-8.67A1.57,1.57,0,1,1,90,25a1.56,1.56,0,0,1-1.56,1.56ZM64.92,16.33a1.57,1.57,0,1,1-1.57,1.56,1.56,1.56,0,0,1,1.57-1.56Zm-6.7,4.06c0-.15,0-.3,0-.46v-3.6A4.81,4.81,0,0,1,59.55,13a4.75,4.75,0,0,1,1.58-1.07l1.6-4.78a3.64,3.64,0,0,1,3.42-2.45H77.73a3.65,3.65,0,0,1,3.42,2.45l.36,1.3H78.18c-.08-.19-.26-.63-.45-.63H66.15a.53.53,0,0,0-.47.36v0l-1.11,3.38h5.27A7.17,7.17,0,0,0,69.15,13l0,.06-.53,1.64H62.88a1.63,1.63,0,0,0-1.56,1.64v2.26a6.81,6.81,0,0,0-3.1,1.8Zm36.85,2.66v8.67A3.06,3.06,0,0,1,92,34.46a3.12,3.12,0,0,1-3.1-2.74H85.54a7.79,7.79,0,0,0-1.41-3.13h6.26A1.56,1.56,0,0,0,92,27v-4a1.57,1.57,0,0,0-1.56-1.56H80.29a6.76,6.76,0,0,0-5.69-3.12H88.72L87.57,15a.53.53,0,0,0-.47-.35H75.53a.53.53,0,0,0-.48.36l-1.13,3.39h-3.3L72.1,14a3.64,3.64,0,0,1,3.43-2.45H87.1A3.64,3.64,0,0,1,90.53,14l1.61,4.69A4.68,4.68,0,0,1,95.07,23.05ZM82.16,26.57l-1-3.13h3.77v3.13Z"/><path id="point-of-service" class="cls-23" d="M638.29,13.25H631v-.07a4.4,4.4,0,0,0-4.41-4.41h-1.54V5.83H611V8.77h-1.54a4.41,4.41,0,0,0-4.41,4.41V39.05a4.42,4.42,0,0,0,4.41,4.4H626.6a4.4,4.4,0,0,0,4.41-4.4V39h7.28a4.42,4.42,0,0,0,4.41-4.41V17.66A4.42,4.42,0,0,0,638.29,13.25ZM614,8.77h8.16v3.38H614Zm-4.48,2.94H611v3.38h14V11.71h1.54a1.47,1.47,0,0,1,1.47,1.47v4.19H608V13.18A1.47,1.47,0,0,1,609.48,11.71Zm17.12,28.8H609.48A1.47,1.47,0,0,1,608,39V20.31h20.06V39.05A1.46,1.46,0,0,1,626.6,40.51Zm13.16-5.95A1.47,1.47,0,0,1,638.29,36H631V16.19h7.28a1.47,1.47,0,0,1,1.47,1.47Zm-5.15-11h2.94V33.83h-2.94ZM611,23.32H614v2.94H611Zm5.59,0h2.94v2.94h-2.94Zm5.51,0h2.94v2.94h-2.94ZM611,28.9H614v2.94H611Zm5.59,0h2.93v2.94h-2.93Zm5.51,0h2.94v2.94h-2.94ZM611,34.49H614v2.94H611Zm5.59,0h2.94v2.94h-2.94Zm5.51,0h2.94v2.94h-2.94Z"/><path id="Union_3" data-name="Union 3" class="cls-24" d="M23.07,42.69V29.81L13.9,39l-2.83-2.83,9.46-9.46H7.07v-4H20.24l-9.17-9.17L13.9,10.7l9.17,9.17V6.69h4V20.15l9.46-9.46,2.83,2.83-9.18,9.17H43.07v4H29.9l9.46,9.46L36.53,39l-9.46-9.46V42.69Z"/><path id="bar-chart-2" data-name="bar-chart" class="cls-25" d="M1344.07,44.69V41.57h-2.73v-25H1332v25h-3.12V4.69h-9.38V41.57h-3.12V22.82H1307V41.57h-2.89v3.12h40m-30.86-18.75v3.13h-3.12V25.94Zm-3.12,15.63V32.19h3.12v9.38Zm15.62-33.75V29.07h-3.12V7.82Zm-3.12,33.75V32.19h3.12v9.38Zm15.62-21.88v9.38h-3.12V19.69Zm-3.12,21.88V32.19h3.12v9.38Z"/><path id="businessman-2" data-name="businessman" class="cls-26" d="M1038.2,30.86a20,20,0,0,0-7.6-4.76,11.56,11.56,0,1,0-13.08,0A20,20,0,0,0,1004.07,45h3.13a16.89,16.89,0,0,1,15-16.76l-3,11.93,4.85,4.85,4.85-4.85-3-11.93a16.89,16.89,0,0,1,15,16.76h3.12A19.87,19.87,0,0,0,1038.2,30.86Zm-22.57-14.28a8.44,8.44,0,1,1,8.43,8.43h0A8.44,8.44,0,0,1,1015.63,16.58Zm8.43,24-1.4-1.4,1.4-5.61,1.4,5.61Z"/><path id="canned-food-2" data-name="canned-food" class="cls-27" d="M944.07,13.21a5.11,5.11,0,0,0-2-3.87,14.15,14.15,0,0,0-4.44-2.51,44.22,44.22,0,0,0-27.18,0A14.15,14.15,0,0,0,906,9.34a5.17,5.17,0,0,0-2,3.87v.16h0V36.18a5.19,5.19,0,0,0,2,3.87,14.27,14.27,0,0,0,4.44,2.51,40,40,0,0,0,13.59,2.13,39.73,39.73,0,0,0,13.59-2.13,14,14,0,0,0,4.44-2.51,5.12,5.12,0,0,0,2-3.87V13.37h0ZM911.59,9.76a41.14,41.14,0,0,1,25,0c2.66,1,4.39,2.36,4.39,3.45s-1.73,2.45-4.39,3.46a36.78,36.78,0,0,1-12.49,1.93,36.53,36.53,0,0,1-12.48-1.94c-2.67-1-4.39-2.36-4.39-3.45S908.92,10.76,911.59,9.76Zm25,29.87a41.14,41.14,0,0,1-25,0c-2.67-1-4.39-2.36-4.39-3.45v-1.5a16.72,16.72,0,0,0,3.28,1.63,40,40,0,0,0,13.59,2.13,39.73,39.73,0,0,0,13.59-2.13A16.8,16.8,0,0,0,941,34.68v1.5C941,37.27,939.22,38.63,936.56,39.63Zm0-6.25a36.55,36.55,0,0,1-12.49,1.94,36.53,36.53,0,0,1-12.48-1.94c-2.67-1-4.39-2.36-4.39-3.45V24.21a16.72,16.72,0,0,0,3.28,1.63A40,40,0,0,0,924.07,28a40,40,0,0,0,13.59-2.14A16.8,16.8,0,0,0,941,24.21v5.72C941,31,939.22,32.38,936.56,33.38Zm0-10.47a36.55,36.55,0,0,1-12.49,1.94,36.53,36.53,0,0,1-12.48-1.94c-2.67-1-4.39-2.36-4.39-3.45V18a16.72,16.72,0,0,0,3.28,1.63,40,40,0,0,0,13.59,2.14,40,40,0,0,0,13.59-2.14A16.8,16.8,0,0,0,941,18v1.5C941,20.55,939.22,21.91,936.56,22.91Zm-10.94-8a2.08,2.08,0,0,1-.61-1.46,2.13,2.13,0,0,1,.62-1.51c.88-.87,2.27-.86,4.19-.84h1.7c1.93,0,3.31,0,4.19.84a2.13,2.13,0,0,1,0,3c-.76.75-1.9.85-3.44.85h-2.12C928,15.79,926.51,15.79,925.62,14.91Z"/><path id="first-aid-kit-2" data-name="first-aid-kit" class="cls-28" d="M1189.39,13.21h-8.29V11.65A4.7,4.7,0,0,0,1176.41,7h-4.68a4.69,4.69,0,0,0-4.68,4.69v1.56h-8.29a4.7,4.7,0,0,0-4.69,4.69V38.29a4.7,4.7,0,0,0,4.69,4.69h30.63a4.69,4.69,0,0,0,4.68-4.69V17.9A4.69,4.69,0,0,0,1189.39,13.21Zm-19.22-1.56a1.56,1.56,0,0,1,1.57-1.56h4.67a1.56,1.56,0,0,1,1.56,1.56v1.56h-7.8ZM1191,38.29a1.56,1.56,0,0,1-1.56,1.56h-30.63a1.56,1.56,0,0,1-1.56-1.56V17.9a1.56,1.56,0,0,1,1.56-1.56h30.63A1.56,1.56,0,0,1,1191,17.9ZM1175.64,27h5.85v3.13h-5.85v5.7h-3.13v-5.7h-5.86V27h5.86V21h3.12Z"/><path id="globe-2" data-name="globe" class="cls-29" d="M1267.33,28a13.68,13.68,0,1,0,0-19.34h0a13.63,13.63,0,0,0-.06,19.28Zm-.22-13.35c.07.16.14.32.22.48a25.85,25.85,0,0,0,4.38,6.28l-3.2,3.19A10.58,10.58,0,0,1,1267.11,14.68Zm2.87-3.87a6.27,6.27,0,0,1,2.5.72,22.79,22.79,0,0,1,5.38,3.75l-3.94,4a22.88,22.88,0,0,1-3.76-5.39c-.86-1.85-.75-2.8-.62-2.94A.76.76,0,0,1,1270,10.81Zm14.48,15c-.14.14-1.09.24-2.94-.62a22.68,22.68,0,0,1-5.39-3.76l3.95-4a22.9,22.9,0,0,1,3.75,5.4c.87,1.84.76,2.79.63,2.93Zm-13.73,1,3.19-3.19A25.85,25.85,0,0,0,1280.2,28a5,5,0,0,0,.48.21A10.56,10.56,0,0,1,1270.73,26.84Zm16.15-4.8c-.07-.16-.14-.32-.22-.48a26,26,0,0,0-4.37-6.28l3.19-3.19a10.6,10.6,0,0,1,1.4,10Zm-3.62-12.16-3.18,3.19a26.32,26.32,0,0,0-6.28-4.38l-.49-.21a10.6,10.6,0,0,1,10,1.4Zm-4.62,31.69h6.17v3.12h-15.63V41.57h6.33V38.31a19.93,19.93,0,0,1-13-33.61l2.27,2.16a16.8,16.8,0,0,0,24.05,23.46l2.21,2.21a19.74,19.74,0,0,1-12.45,5.76v3.28Z"/><path id="house-2" data-name="house" class="cls-30" d="M1089.85,17V8.83h-9.25l-3.37-3a4.69,4.69,0,0,0-6.18,0l-17,14.85v4.07h3.13V40a4.69,4.69,0,0,0,4.69,4.69h9.53V33.13h5.47V44.69h9.37A4.69,4.69,0,0,0,1091,40V24.77h3.12V20.7Zm-2,23a1.57,1.57,0,0,1-1.56,1.57H1080V30h-11.72V41.57h-6.4a1.57,1.57,0,0,1-1.57-1.57h0V24.77h27.5Zm-30.08-18.36L1073.1,8.2a1.58,1.58,0,0,1,2.06,0l8.44,7.45V12h3.13v6.44l3.68,3.25Z"/><path id="profits-2" data-name="profits" class="cls-31" d="M994.07,4.69V14H991V10.1L974.61,26.44l-6.27-6.27-12,12.39-2.24-2.17,14.24-14.67,6.3,6.3,14.21-14.2H984.7V4.69ZM963.23,29.86v14.8h3.13v-18Zm6.09,14.8h3.13v-16l-3.13-3.12Zm-12.25,0h3.12V33l-3.12,3.19Zm24.51,0h3.13V20.76l-3.13,3.13Zm6.17-26.94v27h3.12V17.27h-2.66Zm-12.34,27h3.13V26.93l-3.13,3.13Z"/><path id="shield-2" data-name="shield" class="cls-32" d="M1236.65,9.79h0a25.47,25.47,0,0,1-9-3.92,6.82,6.82,0,0,0-7.66,0,25.45,25.45,0,0,1-9,3.92,4.69,4.69,0,0,0-3.88,4.61v9.43a17.44,17.44,0,0,0,2.59,9,26.24,26.24,0,0,0,5.54,6.39,36.57,36.57,0,0,0,8,5.16l.64.28.63-.28a36.33,36.33,0,0,0,8-5.16,26.24,26.24,0,0,0,5.54-6.39,17.44,17.44,0,0,0,2.59-9V14.4A4.68,4.68,0,0,0,1236.65,9.79Zm.74,14c0,4.65-2.34,9-7,13a34.38,34.38,0,0,1-6.63,4.43c-2.76-1.41-13.6-7.55-13.6-17.42V14.4a1.58,1.58,0,0,1,1.3-1.54,28.29,28.29,0,0,0,10.22-4.4,3.73,3.73,0,0,1,4.17,0,28.29,28.29,0,0,0,10.22,4.4h0a1.57,1.57,0,0,1,1.3,1.54Zm-6.16-6.94,2.32,2.09L1222.3,31.51l-7.4-7,2.16-2.26,5.06,4.81Z"/><path id="subway-2" data-name="subway" class="cls-33" d="M891,29.08a4.69,4.69,0,0,0,0-8.78V4.69H887.9V20.25a3.88,3.88,0,0,0-.56.23l-9.16-8.84A4.69,4.69,0,1,0,870,7.12a4.43,4.43,0,0,0-.32.7h-9.33V4.69H857.2V7.82h-3.13v3.12h3.13V23.41a4.65,4.65,0,0,0,1.35,3.3l5.62,5.68-3.39,3.39A4.69,4.69,0,1,0,863,38l3.37-3.38,3.44,3.48a4.69,4.69,0,1,0,8.56,3.82c0-.11.09-.23.13-.34h9.41v3.12H891V41.57h3V38.44h-3ZM858.76,41.57A1.57,1.57,0,1,1,860.32,40h0A1.56,1.56,0,0,1,858.76,41.57Zm30.62-18.44a1.57,1.57,0,1,1-1.56,1.56A1.56,1.56,0,0,1,889.38,23.13ZM874.07,7.82a1.56,1.56,0,1,1-1.56,1.56A1.56,1.56,0,0,1,874.07,7.82Zm-13.3,16.69a1.56,1.56,0,0,1-.45-1.1V10.94h9.33a4.69,4.69,0,0,0,6,2.86l.21-.08,9.3,9a3.93,3.93,0,0,0-.18.43h-9.6a4.68,4.68,0,0,0-3.31,1.37l-5.68,5.68Zm13.3,17.06A1.57,1.57,0,1,1,875.63,40h0A1.56,1.56,0,0,1,874.07,41.57Zm4.42-3.13a4.68,4.68,0,0,0-6-2.85,2.78,2.78,0,0,0-.56.24l-3.39-3.43,5.69-5.69a1.57,1.57,0,0,1,1.11-.45H885a4.68,4.68,0,0,0,2.93,2.88v9.3Z"/><path id="sunset-2" data-name="sunset" class="cls-34" d="M1138.94,32.35a3,3,0,0,1-2.93-2.3,11.62,11.62,0,0,0,1.33-5.36A12.19,12.19,0,1,0,1114.16,30a3,3,0,0,1-6-.58h-3.13a34.41,34.41,0,0,0,19.42,4.56,6.25,6.25,0,0,0,.62-.64,6.15,6.15,0,0,0,8.67.71,5.3,5.3,0,0,0,.59-.57,6.14,6.14,0,0,0,10.7-4.06H1142A3,3,0,0,1,1138.94,32.35Zm-9.14,0a3,3,0,0,1-3-3h-3.36a3,3,0,0,1-6,.05h0v0h0a9.07,9.07,0,1,1,16.82-4.7,8.69,8.69,0,0,1-1.43,4.72l0,0a3,3,0,0,1-3,2.92Zm15.27-9.22v3.13h-4.68V23.13Zm-35.31,3.13h-4.69V23.13h4.69Zm17-16.88h-3.12V4.69h3.12Zm12.48,9-1.56-2.7,4.06-2.35,1.56,2.71Zm-4.71-5.94-2.67-1.63,2.45-4,2.66,1.63Zm-18.34-.23-2.34-4.06,2.7-1.57,2.35,4.06Zm-4.87,5.83-4-2.45,1.63-2.66,4,2.44ZM1142,38.52h3.12a36.12,36.12,0,0,1-19.45,4.6,5.6,5.6,0,0,1-.55-.54,6.14,6.14,0,0,1-8.68.46,5.62,5.62,0,0,1-.54-.55,6.13,6.13,0,0,1-10.78-4h3.13a3,3,0,1,0,6,0h3.28a3,3,0,1,0,6,0h3.13a3,3,0,1,0,6,0h3.28a3,3,0,0,0,6,0Z"/><path id="traffic-jam-2" data-name="traffic-jam" class="cls-35" d="M829.65,28.94,828,24v0a3.65,3.65,0,0,0-3.43-2.45H813a3.65,3.65,0,0,0-3.43,2.45L808,29a4.82,4.82,0,0,0-2.91,4.4v8.2a3.13,3.13,0,0,0,6.23.4h15.05a3.11,3.11,0,0,0,3.1,2.73A3.06,3.06,0,0,0,832.57,42V33.29A4.7,4.7,0,0,0,829.65,28.94ZM813,24.62H824.6a.5.5,0,0,1,.47.34l1.18,3.63H811.38L812.56,25a.52.52,0,0,1,.47-.35Zm16.42,12.65a1.56,1.56,0,0,1-1.57,1.56H809.76a1.56,1.56,0,0,1-1.56-1.56V33.36a1.62,1.62,0,0,1,1.56-1.64h18.13a1.57,1.57,0,0,1,1.56,1.57Zm-14.14-3.59h7.11V36.8h-7.11Zm12.18,1.56a1.56,1.56,0,1,1-1.56-1.56h0a1.56,1.56,0,0,1,1.56,1.56Zm-14.14,0a1.56,1.56,0,1,1-1.56-1.56h0a1.56,1.56,0,0,1,1.56,1.56Zm25.08-8.67A1.57,1.57,0,1,1,840,25a1.56,1.56,0,0,1-1.56,1.56ZM814.92,16.33a1.57,1.57,0,1,1-1.57,1.56,1.56,1.56,0,0,1,1.57-1.56Zm-6.7,4.06c0-.15,0-.3,0-.46v-3.6A4.81,4.81,0,0,1,809.55,13a4.75,4.75,0,0,1,1.58-1.07l1.6-4.78a3.64,3.64,0,0,1,3.42-2.45h11.58a3.65,3.65,0,0,1,3.42,2.45l.36,1.3h-3.33c-.08-.19-.26-.63-.45-.63H816.15a.53.53,0,0,0-.47.36v0l-1.11,3.38h5.27a7.17,7.17,0,0,0-.69,1.42l0,.06-.53,1.64h-5.72a1.63,1.63,0,0,0-1.56,1.64v2.26a6.81,6.81,0,0,0-3.1,1.8Zm36.85,2.66v8.67A3.06,3.06,0,0,1,842,34.46a3.12,3.12,0,0,1-3.1-2.74h-3.31a7.79,7.79,0,0,0-1.41-3.13h6.26A1.56,1.56,0,0,0,842,27v-4a1.57,1.57,0,0,0-1.56-1.56h-10.1a6.76,6.76,0,0,0-5.69-3.12h14.12L837.57,15a.53.53,0,0,0-.47-.35H825.53a.53.53,0,0,0-.48.36l-1.13,3.39h-3.3L822.1,14a3.64,3.64,0,0,1,3.43-2.45H837.1A3.64,3.64,0,0,1,840.53,14l1.61,4.69A4.68,4.68,0,0,1,845.07,23.05Zm-12.91,3.52-1-3.13h3.77v3.13Z"/><path id="point-of-service-2" data-name="point-of-service" class="cls-36" d="M1388.29,13.25H1381v-.07a4.4,4.4,0,0,0-4.41-4.41h-1.54V5.83h-14V8.77h-1.54a4.41,4.41,0,0,0-4.41,4.41V39.05a4.42,4.42,0,0,0,4.41,4.4h17.12a4.4,4.4,0,0,0,4.41-4.4V39h7.28a4.42,4.42,0,0,0,4.41-4.41V17.66A4.42,4.42,0,0,0,1388.29,13.25ZM1364,8.77h8.16v3.38H1364Zm-4.48,2.94H1361v3.38h14V11.71h1.54a1.47,1.47,0,0,1,1.47,1.47v4.19H1358V13.18A1.47,1.47,0,0,1,1359.48,11.71Zm17.12,28.8h-17.12A1.47,1.47,0,0,1,1358,39V20.31h20.06V39.05A1.46,1.46,0,0,1,1376.6,40.51Zm13.16-5.95a1.47,1.47,0,0,1-1.47,1.47H1381V16.19h7.28a1.47,1.47,0,0,1,1.47,1.47Zm-5.15-11h2.94V33.83h-2.94ZM1361,23.32H1364v2.94H1361Zm5.59,0h2.94v2.94h-2.94Zm5.51,0h2.94v2.94h-2.94ZM1361,28.9H1364v2.94H1361Zm5.59,0h2.93v2.94h-2.93Zm5.51,0h2.94v2.94h-2.94ZM1361,34.49H1364v2.94H1361Zm5.59,0h2.94v2.94h-2.94Zm5.51,0h2.94v2.94h-2.94Z"/><path id="Union_3-2" data-name="Union 3" class="cls-37" d="M773.07,42.69V29.81L763.9,39l-2.83-2.83,9.46-9.46H757.07v-4h13.17l-9.17-9.17,2.83-2.82,9.17,9.17V6.69h4V20.15l9.46-9.46,2.83,2.83-9.18,9.17h12.89v4H779.9l9.46,9.46L786.53,39l-9.46-9.46V42.69Z"/><circle class="cls-4" cx="1574.13" cy="25.21" r="23"/><path class="cls-5" d="M1589.43,23.83c0-6.85-6.87-12.42-15.3-12.42s-15.3,5.57-15.3,12.42c0,6.13,5.44,11.27,12.79,12.25.5.1,1.18.32,1.35.75a3.07,3.07,0,0,1,0,1.38l-.22,1.31c-.06.39-.3,1.52,1.33.83s8.81-5.19,12-8.88h0a11.1,11.1,0,0,0,3.28-7.64"/><path class="cls-4" d="M1571,20.52H1570a.29.29,0,0,0-.3.3v6.66a.29.29,0,0,0,.3.3H1571a.3.3,0,0,0,.3-.3V20.82a.3.3,0,0,0-.3-.3"/><path class="cls-4" d="M1578.41,20.52h-1.08a.3.3,0,0,0-.3.3v4l-3-4.13,0,0h0v0h0v0h-1.26a.29.29,0,0,0-.3.3v6.66a.29.29,0,0,0,.3.3h1.07a.29.29,0,0,0,.3-.3v-4l3.06,4.13.07.08h1.25a.29.29,0,0,0,.29-.3V20.82a.29.29,0,0,0-.29-.3"/><path class="cls-4" d="M1568.43,26.11h-2.91V20.82a.3.3,0,0,0-.3-.3h-1.07a.29.29,0,0,0-.3.3v6.66h0a.32.32,0,0,0,.08.21h0a.3.3,0,0,0,.21.08h4.28a.29.29,0,0,0,.3-.3V26.41a.29.29,0,0,0-.3-.3"/><path class="cls-4" d="M1584.33,22.19a.3.3,0,0,0,.3-.3V20.82a.29.29,0,0,0-.3-.3H1580a.28.28,0,0,0-.2.08h0a.3.3,0,0,0-.08.21h0v6.66h0a.32.32,0,0,0,.08.21h0a.28.28,0,0,0,.2.08h4.29a.29.29,0,0,0,.3-.3V26.41a.29.29,0,0,0-.3-.3h-2.91V25h2.91a.29.29,0,0,0,.3-.29V23.61a.3.3,0,0,0-.3-.3h-2.91V22.19Z"/><circle class="cls-38" cx="1624.13" cy="25.21" r="23"/><g id="TYPE_A" data-name="TYPE A"><path class="cls-5" d="M1639.43,23.83c0-6.85-6.87-12.42-15.3-12.42s-15.3,5.57-15.3,12.42c0,6.13,5.44,11.27,12.79,12.25.5.1,1.18.32,1.35.75a3.07,3.07,0,0,1,0,1.38l-.22,1.31c-.06.39-.3,1.52,1.33.83s8.81-5.19,12-8.88h0a11.1,11.1,0,0,0,3.28-7.64"/><path class="cls-38" d="M1621,20.52H1620a.29.29,0,0,0-.3.3v6.66a.29.29,0,0,0,.3.3H1621a.3.3,0,0,0,.3-.3V20.82a.3.3,0,0,0-.3-.3"/><path class="cls-38" d="M1628.41,20.52h-1.08a.3.3,0,0,0-.3.3v4l-3-4.13,0,0h0v0h0v0h-1.26a.29.29,0,0,0-.3.3v6.66a.29.29,0,0,0,.3.3h1.07a.29.29,0,0,0,.3-.3v-4l3.06,4.13.07.08h1.25a.29.29,0,0,0,.29-.3V20.82a.29.29,0,0,0-.29-.3"/><path class="cls-38" d="M1618.43,26.11h-2.91V20.82a.3.3,0,0,0-.3-.3h-1.07a.29.29,0,0,0-.3.3v6.66h0a.32.32,0,0,0,.08.21h0a.3.3,0,0,0,.21.08h4.28a.29.29,0,0,0,.3-.3V26.41a.29.29,0,0,0-.3-.3"/><path class="cls-38" d="M1634.33,22.19a.3.3,0,0,0,.3-.3V20.82a.29.29,0,0,0-.3-.3H1630a.28.28,0,0,0-.2.08h0a.3.3,0,0,0-.08.21h0v6.66h0a.32.32,0,0,0,.08.21h0a.28.28,0,0,0,.2.08h4.29a.29.29,0,0,0,.3-.3V26.41a.29.29,0,0,0-.3-.3h-2.91V25h2.91a.29.29,0,0,0,.3-.29V23.61a.3.3,0,0,0-.3-.3h-2.91V22.19Z"/></g><g id="refresh"><g id="Group_294" data-name="Group 294"><g id="Group_293" data-name="Group 293"><path id="Path_305" data-name="Path 305" d="M1893.76,10.07a1.62,1.62,0,0,0-1.76,1.47l-.22,2.35a20.45,20.45,0,0,0-35.56,1.71,1.62,1.62,0,0,0,2.85,1.54.25.25,0,0,0,0-.07,17.21,17.21,0,0,1,30-1.43L1886.75,14a1.62,1.62,0,1,0-2,2.56l.1.07,7,5a1.62,1.62,0,0,0,2.26-.38,1.67,1.67,0,0,0,.3-.79l.81-8.63a1.62,1.62,0,0,0-1.47-1.76Z"/></g></g><g id="Group_296" data-name="Group 296"><g id="Group_295" data-name="Group 295"><path id="Path_306" data-name="Path 306" d="M1892.06,32.39a1.62,1.62,0,0,0-2.18.71,17.21,17.21,0,0,1-30,1.43l2.31,1.65a1.62,1.62,0,0,0,1.88-2.64l-7-5a1.63,1.63,0,0,0-2.56,1.17l-.79,8.62a1.62,1.62,0,1,0,3.22.39v-.1l.22-2.35a20.45,20.45,0,0,0,35.56-1.71A1.62,1.62,0,0,0,1892.06,32.39Z"/></g></g></g></svg>