<svg id="圖層_1" data-name="圖層 1" xmlns="http://www.w3.org/2000/svg" xmlns:xlink="http://www.w3.org/1999/xlink" width="3500" height="50" viewBox="0 0 3500 50"><defs><style>.cls-1,.cls-2,.cls-3,.cls-8{fill:none;}.cls-2{stroke:#fff;}.cls-2,.cls-3,.cls-8{stroke-linecap:round;stroke-miterlimit:10;}.cls-2,.cls-3{stroke-width:3.5px;}.cls-3,.cls-8{stroke:#000;}.cls-4{fill:#999;}.cls-5{fill:#fff;}.cls-6{clip-path:url(#clip-path);}.cls-7{fill:#1877f2;}.cls-8{stroke-width:4px;}.cls-9{fill:url(#未命名漸層_13);}.cls-10{fill:url(#未命名漸層_13-3);}.cls-11{fill:#64adf0;}.cls-12{fill:url(#未命名漸層_7);}.cls-13{fill:#00b900;}.cls-14{fill:url(#未命名漸層_13-4);}.cls-15{fill:url(#未命名漸層_13-5);}.cls-16{fill:url(#未命名漸層_13-6);}.cls-17{fill:url(#未命名漸層_13-7);}.cls-18{fill:url(#未命名漸層_13-8);}.cls-19{fill:url(#未命名漸層_13-9);}.cls-20{fill:url(#未命名漸層_13-10);}.cls-21{fill:url(#未命名漸層_13-11);}.cls-22{fill:url(#未命名漸層_13-12);}.cls-23{fill:url(#未命名漸層_13-13);}.cls-24{fill:url(#未命名漸層_13-14);}.cls-25{fill:url(#未命名漸層_13-15);}.cls-26{fill:url(#未命名漸層_13-16);}.cls-27{fill:url(#未命名漸層_13-17);}.cls-28{fill:url(#未命名漸層_13-18);}.cls-29{fill:url(#未命名漸層_13-19);}.cls-30{fill:url(#未命名漸層_13-20);}.cls-31{fill:url(#未命名漸層_12);}.cls-32{fill:url(#未命名漸層_12-2);}.cls-33{fill:url(#未命名漸層_12-3);}.cls-34{fill:url(#未命名漸層_12-4);}.cls-35{fill:url(#未命名漸層_12-5);}.cls-36{fill:url(#未命名漸層_12-6);}.cls-37{fill:url(#未命名漸層_12-7);}.cls-38{fill:url(#未命名漸層_12-8);}.cls-39{fill:url(#未命名漸層_12-9);}.cls-40{fill:url(#未命名漸層_12-10);}.cls-41{fill:url(#未命名漸層_12-11);}.cls-42{fill:url(#未命名漸層_12-12);}.cls-43{fill:url(#未命名漸層_12-13);}.cls-44{fill:url(#未命名漸層_12-14);}.cls-45{fill:url(#未命名漸層_12-15);}.cls-46{fill:url(#未命名漸層_13-21);}.cls-47{fill:url(#未命名漸層_13-22);}.cls-48{fill:url(#未命名漸層_13-23);}.cls-49{fill:url(#未命名漸層_13-24);}.cls-50{fill:url(#未命名漸層_13-25);}.cls-51{fill:url(#未命名漸層_32);}.cls-52{fill:url(#未命名漸層_37);}.cls-53{fill:url(#未命名漸層_16);}.cls-54{fill:url(#未命名漸層_53);}.cls-55{fill:url(#未命名漸層_41);}.cls-56{fill:url(#未命名漸層_64);}.cls-57{fill:url(#未命名漸層_62);}.cls-58{fill:url(#未命名漸層_20);}.cls-59{fill:url(#未命名漸層_10);}.cls-60{fill:url(#未命名漸層_24);}.cls-61{fill:url(#未命名漸層_24-2);}.cls-62{fill:url(#未命名漸層_24-3);}.cls-63{fill:url(#未命名漸層_28);}.cls-64{fill:url(#未命名漸層_45);}.cls-65{fill:url(#未命名漸層_45-2);}.cls-66{fill:url(#未命名漸層_70);}.cls-67{fill:url(#未命名漸層_71);}.cls-68{fill:url(#未命名漸層_70-2);}.cls-69{fill:url(#未命名漸層_70-3);}.cls-70{fill:url(#未命名漸層_70-4);}.cls-71{fill:url(#未命名漸層_12-16);}.cls-72{fill:url(#未命名漸層_12-17);}.cls-73{fill:url(#未命名漸層_12-18);}.cls-74{fill:url(#未命名漸層_12-19);}.cls-75{fill:url(#未命名漸層_12-20);}.cls-76{clip-path:url(#clip-path-2);}.cls-77{fill:url(#未命名漸層_3);}.cls-78{fill:url(#未命名漸層_4);}.cls-79{clip-path:url(#clip-path-3);}.cls-80{clip-path:url(#clip-path-4);}.cls-81{fill:#ccc;}.cls-82{clip-path:url(#clip-path-5);}</style><clipPath id="clip-path"><rect class="cls-1" x="1501.51" y="2.21" width="46" height="46"/></clipPath><linearGradient id="未命名漸層_13" x1="2154" y1="26" x2="2195" y2="26" gradientUnits="userSpaceOnUse"><stop offset="0" stop-color="#2af598"/><stop offset="1" stop-color="#009efd"/></linearGradient><linearGradient id="未命名漸層_13-3" x1="1961.22" y1="25" x2="1986.95" y2="25" xlink:href="#未命名漸層_13"/><linearGradient id="未命名漸層_7" x1="2012.05" y1="25" x2="2037.78" y2="25" gradientTransform="translate(4049.83 50) rotate(180)" gradientUnits="userSpaceOnUse"><stop offset="0" stop-color="#878787"/><stop offset="1" stop-color="#d2d2d2"/></linearGradient><linearGradient id="未命名漸層_13-4" x1="2106.03" y1="13.13" x2="2145.24" y2="13.13" xlink:href="#未命名漸層_13"/><linearGradient id="未命名漸層_13-5" x1="2103.76" y1="37.03" x2="2142.94" y2="37.03" xlink:href="#未命名漸層_13"/><linearGradient id="未命名漸層_13-6" x1="-2.84" y1="667.44" x2="-2.84" y2="668.44" gradientTransform="matrix(39.98, 0, 0, -40.01, 487.51, 26747.3)" xlink:href="#未命名漸層_13"/><linearGradient id="未命名漸層_13-7" x1="3.54" y1="667.42" x2="3.54" y2="668.42" gradientTransform="matrix(40, 0, 0, -40.01, 282.5, 26751.12)" xlink:href="#未命名漸層_13"/><linearGradient id="未命名漸層_13-8" x1="-15.51" y1="667.16" x2="-15.51" y2="668.16" gradientTransform="matrix(40, 0, 0, -36.01, 794.5, 24069.99)" xlink:href="#未命名漸層_13"/><linearGradient id="未命名漸層_13-9" x1="5.99" y1="667.44" x2="5.99" y2="668.44" gradientTransform="matrix(40, 0, 0, -39.97, 384.5, 26724.88)" xlink:href="#未命名漸層_13"/><linearGradient id="未命名漸層_13-10" x1="-12.74" y1="667.42" x2="-12.74" y2="668.42" gradientTransform="matrix(33.45, 0, 0, -40, 899.78, 26742.06)" xlink:href="#未命名漸層_13"/><linearGradient id="未命名漸層_13-11" x1="-15.44" y1="667.44" x2="-15.44" y2="668.44" gradientTransform="matrix(40, 0, 0, -39.93, 691.5, 26693.23)" xlink:href="#未命名漸層_13"/><linearGradient id="未命名漸層_13-12" x1="12.41" y1="668.45" x2="12.41" y2="667.45" gradientTransform="matrix(40, 0, 0, -40, 78.5, 26743.64)" xlink:href="#未命名漸層_13"/><linearGradient id="未命名漸層_13-13" x1="207.55" y1="24.91" x2="245.27" y2="24.91" xlink:href="#未命名漸層_13"/><linearGradient id="未命名漸層_13-14" x1="101.66" y1="25.62" x2="146.43" y2="25.62" xlink:href="#未命名漸層_13"/><linearGradient id="未命名漸層_13-15" x1="264.99" y1="25.41" x2="283.86" y2="25.41" xlink:href="#未命名漸層_13"/><linearGradient id="未命名漸層_13-16" x1="254.12" y1="14.58" x2="297.43" y2="14.58" xlink:href="#未命名漸層_13"/><linearGradient id="未命名漸層_13-17" x1="251.43" y1="36.24" x2="294.73" y2="36.24" xlink:href="#未命名漸層_13"/><linearGradient id="未命名漸層_13-18" x1="302.75" y1="26.14" x2="345.93" y2="26.14" xlink:href="#未命名漸層_13"/><linearGradient id="未命名漸層_13-19" x1="501.47" y1="26.97" x2="545.43" y2="26.97" xlink:href="#未命名漸層_13"/><linearGradient id="未命名漸層_13-20" x1="542.17" y1="36.77" x2="545.43" y2="36.77" xlink:href="#未命名漸層_13"/><linearGradient id="未命名漸層_12" x1="15.92" y1="667.44" x2="15.92" y2="668.44" gradientTransform="matrix(39.98, 0, 0, -40.01, 487.51, 26747.3)" gradientUnits="userSpaceOnUse"><stop offset="0" stop-color="#fff"/><stop offset="1" stop-color="#d2d2d2"/></linearGradient><linearGradient id="未命名漸層_12-2" x1="22.29" y1="667.42" x2="22.29" y2="668.42" gradientTransform="matrix(40, 0, 0, -40.01, 282.5, 26751.12)" xlink:href="#未命名漸層_12"/><linearGradient id="未命名漸層_12-3" x1="3.24" y1="667.16" x2="3.24" y2="668.16" gradientTransform="matrix(40, 0, 0, -36.01, 794.5, 24069.99)" xlink:href="#未命名漸層_12"/><linearGradient id="未命名漸層_12-4" x1="24.74" y1="667.44" x2="24.74" y2="668.44" gradientTransform="matrix(40, 0, 0, -39.97, 384.5, 26724.88)" xlink:href="#未命名漸層_12"/><linearGradient id="未命名漸層_12-5" x1="9.69" y1="667.42" x2="9.69" y2="668.42" gradientTransform="matrix(33.45, 0, 0, -40, 899.78, 26742.06)" xlink:href="#未命名漸層_12"/><linearGradient id="未命名漸層_12-6" x1="3.31" y1="667.44" x2="3.31" y2="668.44" gradientTransform="matrix(40, 0, 0, -39.93, 691.5, 26693.23)" xlink:href="#未命名漸層_12"/><linearGradient id="未命名漸層_12-7" x1="31.16" y1="668.45" x2="31.16" y2="667.45" gradientTransform="matrix(40, 0, 0, -40, 78.5, 26743.64)" xlink:href="#未命名漸層_12"/><linearGradient id="未命名漸層_12-8" x1="957.55" y1="24.91" x2="995.27" y2="24.91" gradientTransform="matrix(1, 0, 0, 1, 0, 0)" xlink:href="#未命名漸層_12"/><linearGradient id="未命名漸層_12-9" x1="851.66" y1="25.62" x2="896.43" y2="25.62" gradientTransform="matrix(1, 0, 0, 1, 0, 0)" xlink:href="#未命名漸層_12"/><linearGradient id="未命名漸層_12-10" x1="1014.99" y1="25.41" x2="1033.86" y2="25.41" gradientTransform="matrix(1, 0, 0, 1, 0, 0)" xlink:href="#未命名漸層_12"/><linearGradient id="未命名漸層_12-11" x1="1004.12" y1="14.58" x2="1047.43" y2="14.58" gradientTransform="matrix(1, 0, 0, 1, 0, 0)" xlink:href="#未命名漸層_12"/><linearGradient id="未命名漸層_12-12" x1="1001.43" y1="36.24" x2="1044.73" y2="36.24" gradientTransform="matrix(1, 0, 0, 1, 0, 0)" xlink:href="#未命名漸層_12"/><linearGradient id="未命名漸層_12-13" x1="1052.75" y1="26.14" x2="1095.93" y2="26.14" gradientTransform="matrix(1, 0, 0, 1, 0, 0)" xlink:href="#未命名漸層_12"/><linearGradient id="未命名漸層_12-14" x1="1251.47" y1="26.97" x2="1295.43" y2="26.97" gradientTransform="matrix(1, 0, 0, 1, 0, 0)" xlink:href="#未命名漸層_12"/><linearGradient id="未命名漸層_12-15" x1="1292.17" y1="36.77" x2="1295.43" y2="36.77" gradientTransform="matrix(1, 0, 0, 1, 0, 0)" xlink:href="#未命名漸層_12"/><linearGradient id="未命名漸層_13-21" x1="1.51" y1="26.54" x2="32.79" y2="26.54" xlink:href="#未命名漸層_13"/><linearGradient id="未命名漸層_13-22" x1="37.65" y1="30.42" x2="47.5" y2="30.42" xlink:href="#未命名漸層_13"/><linearGradient id="未命名漸層_13-23" x1="32.8" y1="16.72" x2="40.59" y2="16.72" xlink:href="#未命名漸層_13"/><linearGradient id="未命名漸層_13-24" x1="37.67" y1="22.64" x2="47.5" y2="22.64" xlink:href="#未命名漸層_13"/><linearGradient id="未命名漸層_13-25" x1="32.8" y1="36.36" x2="40.56" y2="36.36" xlink:href="#未命名漸層_13"/><linearGradient id="未命名漸層_32" x1="52.19" y1="667.44" x2="52.19" y2="668.44" gradientTransform="matrix(39.98, 0, 0, -40.01, 487.51, 26747.3)" gradientUnits="userSpaceOnUse"><stop offset="0" stop-color="#00f2fe"/><stop offset="1" stop-color="#4facfe"/></linearGradient><linearGradient id="未命名漸層_37" x1="58.54" y1="667.42" x2="58.54" y2="668.42" gradientTransform="matrix(40, 0, 0, -40.01, 282.5, 26751.12)" gradientUnits="userSpaceOnUse"><stop offset="0" stop-color="#b1f4cf"/><stop offset="1" stop-color="#9890e3"/></linearGradient><linearGradient id="未命名漸層_16" x1="39.49" y1="667.16" x2="39.49" y2="668.16" gradientTransform="matrix(40, 0, 0, -36.01, 794.5, 24069.99)" gradientUnits="userSpaceOnUse"><stop offset="0" stop-color="#66a6ff"/><stop offset="1" stop-color="#89f7fe"/></linearGradient><linearGradient id="未命名漸層_53" x1="60.99" y1="667.44" x2="60.99" y2="668.44" gradientTransform="matrix(40, 0, 0, -39.97, 384.5, 26724.88)" gradientUnits="userSpaceOnUse"><stop offset="0" stop-color="#f09819"/><stop offset="1" stop-color="#ff5858"/></linearGradient><linearGradient id="未命名漸層_41" x1="53.04" y1="667.42" x2="53.04" y2="668.42" gradientTransform="matrix(33.45, 0, 0, -40, 899.78, 26742.06)" gradientUnits="userSpaceOnUse"><stop offset="0" stop-color="#fcb69f"/><stop offset="1" stop-color="#ffecd2"/></linearGradient><linearGradient id="未命名漸層_64" x1="2256.61" y1="5.91" x2="2289.23" y2="50.42" gradientUnits="userSpaceOnUse"><stop offset="0" stop-color="#3ce192"/><stop offset="0.31" stop-color="#29c97e"/><stop offset="0.73" stop-color="#13ad68"/><stop offset="0.97" stop-color="#0ba360"/></linearGradient><linearGradient id="未命名漸層_62" x1="67.41" y1="668.45" x2="67.41" y2="667.45" gradientTransform="matrix(40, 0, 0, -40, 78.5, 26743.64)" gradientUnits="userSpaceOnUse"><stop offset="0" stop-color="#2575fc"/><stop offset="1" stop-color="#6a11cb"/></linearGradient><linearGradient id="未命名漸層_20" x1="2407.55" y1="24.91" x2="2445.27" y2="24.91" gradientUnits="userSpaceOnUse"><stop offset="0" stop-color="#f5576c"/><stop offset="1" stop-color="#f093fb"/></linearGradient><linearGradient id="未命名漸層_10" x1="2301.66" y1="25.62" x2="2346.43" y2="25.62" gradientUnits="userSpaceOnUse"><stop offset="0" stop-color="#9b23ea"/><stop offset="1" stop-color="#5f72bd"/></linearGradient><linearGradient id="未命名漸層_24" x1="2464.99" y1="25.41" x2="2483.86" y2="25.41" gradientUnits="userSpaceOnUse"><stop offset="0" stop-color="#fecfef"/><stop offset="1" stop-color="#ff9a9e"/></linearGradient><linearGradient id="未命名漸層_24-2" x1="2454.12" y1="14.58" x2="2497.43" y2="14.58" xlink:href="#未命名漸層_24"/><linearGradient id="未命名漸層_24-3" x1="2451.43" y1="36.24" x2="2494.73" y2="36.24" xlink:href="#未命名漸層_24"/><linearGradient id="未命名漸層_28" x1="2502.75" y1="26.14" x2="2545.93" y2="26.14" gradientUnits="userSpaceOnUse"><stop offset="0" stop-color="#96e6a1"/><stop offset="1" stop-color="#d4fc79"/></linearGradient><linearGradient id="未命名漸層_45" x1="2701.47" y1="26.97" x2="2745.43" y2="26.97" gradientUnits="userSpaceOnUse"><stop offset="0" stop-color="#fda085"/><stop offset="1" stop-color="#f6d365"/></linearGradient><linearGradient id="未命名漸層_45-2" x1="2742.17" y1="36.77" x2="2745.43" y2="36.77" xlink:href="#未命名漸層_45"/><linearGradient id="未命名漸層_70" x1="2201.51" y1="26.54" x2="2232.79" y2="26.54" gradientUnits="userSpaceOnUse"><stop offset="0" stop-color="#b9b6e5"/><stop offset="1" stop-color="#7de2fc"/></linearGradient><linearGradient id="未命名漸層_71" x1="2241.56" y1="25.51" x2="2245.77" y2="39.87" xlink:href="#未命名漸層_70"/><linearGradient id="未命名漸層_70-2" x1="2232.8" y1="16.72" x2="2240.59" y2="16.72" xlink:href="#未命名漸層_70"/><linearGradient id="未命名漸層_70-3" x1="2237.67" y1="22.64" x2="2247.5" y2="22.64" xlink:href="#未命名漸層_70"/><linearGradient id="未命名漸層_70-4" x1="2232.8" y1="36.36" x2="2240.56" y2="36.36" xlink:href="#未命名漸層_70"/><linearGradient id="未命名漸層_12-16" x1="751.51" y1="26.54" x2="782.79" y2="26.54" gradientTransform="matrix(1, 0, 0, 1, 0, 0)" xlink:href="#未命名漸層_12"/><linearGradient id="未命名漸層_12-17" x1="787.65" y1="30.42" x2="797.5" y2="30.42" gradientTransform="matrix(1, 0, 0, 1, 0, 0)" xlink:href="#未命名漸層_12"/><linearGradient id="未命名漸層_12-18" x1="782.8" y1="16.72" x2="790.59" y2="16.72" gradientTransform="matrix(1, 0, 0, 1, 0, 0)" xlink:href="#未命名漸層_12"/><linearGradient id="未命名漸層_12-19" x1="787.67" y1="22.64" x2="797.5" y2="22.64" gradientTransform="matrix(1, 0, 0, 1, 0, 0)" xlink:href="#未命名漸層_12"/><linearGradient id="未命名漸層_12-20" x1="782.8" y1="36.36" x2="790.56" y2="36.36" gradientTransform="matrix(1, 0, 0, 1, 0, 0)" xlink:href="#未命名漸層_12"/><clipPath id="clip-path-2"><rect class="cls-1" x="2849.5" width="50" height="50"/></clipPath><linearGradient id="未命名漸層_3" x1="2851.72" y1="36.85" x2="2884.74" y2="63" gradientUnits="userSpaceOnUse"><stop offset="0" stop-color="#2af598"/><stop offset="0.81" stop-color="#009efd"/></linearGradient><linearGradient id="未命名漸層_4" x1="2878.17" y1="15.66" x2="2871.06" y2="30.37" gradientUnits="userSpaceOnUse"><stop offset="0" stop-color="#2af598"/><stop offset="0.55" stop-color="#13c5d0"/><stop offset="1" stop-color="#009efd"/></linearGradient><clipPath id="clip-path-3"><rect class="cls-1" x="2899.5" width="50" height="50"/></clipPath><clipPath id="clip-path-4"><rect class="cls-1" x="2949.5" width="50" height="50"/></clipPath><clipPath id="clip-path-5"><rect class="cls-1" x="2999.5" width="50" height="50"/></clipPath></defs><circle class="cls-2" cx="1773.85" cy="22.35" r="17.35"/><line class="cls-2" x1="1784.88" y1="38.12" x2="1791.19" y2="46"/><circle class="cls-3" cx="1824.85" cy="22.35" r="17.35"/><line class="cls-3" x1="1835.88" y1="38.12" x2="1842.19" y2="46"/><path class="cls-4" d="M1497.58,25.21A23,23,0,1,0,1471,47.93V31.86h-5.84V25.21H1471V20.14c0-5.76,3.43-9,8.69-9a35.46,35.46,0,0,1,5.15.45V17.3h-2.9c-2.86,0-3.75,1.78-3.75,3.6v4.31h6.38l-1,6.65h-5.36V47.93A23,23,0,0,0,1497.58,25.21Z"/><path class="cls-5" d="M1483.54,31.86l1-6.65h-6.38V20.9c0-1.82.89-3.6,3.75-3.6h2.9V11.64a35.46,35.46,0,0,0-5.15-.45c-5.26,0-8.69,3.19-8.69,9v5.07h-5.84v6.65H1471V47.93a23.22,23.22,0,0,0,7.19,0V31.86Z"/><g class="cls-6"><path class="cls-7" d="M1547.51,25.21a23,23,0,1,0-26.6,22.72V31.86h-5.84V25.21h5.84V20.14c0-5.76,3.43-9,8.69-9a35.46,35.46,0,0,1,5.15.45V17.3h-2.9c-2.86,0-3.75,1.77-3.75,3.59v4.32h6.38l-1,6.65h-5.36V47.93a23,23,0,0,0,19.41-22.72Z"/></g><path class="cls-5" d="M1533.46,31.86l1-6.65h-6.38V20.89c0-1.82.89-3.59,3.75-3.59h2.9V11.64a35.46,35.46,0,0,0-5.15-.45c-5.26,0-8.69,3.19-8.69,9v5.07h-5.84v6.65h5.84V47.93a23.22,23.22,0,0,0,7.19,0V31.86Z"/><line class="cls-8" x1="1906" y1="7.5" x2="1943" y2="44.5"/><line class="cls-8" x1="1943" y1="7.5" x2="1906" y2="44.5"/><path class="cls-9" d="M2193,46.5a2,2,0,0,1-1.41-.59l-37-37a2,2,0,0,1,2.82-2.82l37,37A2,2,0,0,1,2193,46.5Z"/><path class="cls-9" d="M2156,46.5a2,2,0,0,1-1.41-3.41l37-37a2,2,0,0,1,2.82,2.82l-37,37A2,2,0,0,1,2156,46.5Z"/><path class="cls-10" d="M1984.23,47.55a2,2,0,0,1-1.41-.59l-21.6-21.6L1983.54,3a2,2,0,0,1,2.83,2.83l-19.49,19.49,18.77,18.77a2,2,0,0,1-1.42,3.42Z"/><path class="cls-4" d="M1696.5,12.1a17.36,17.36,0,0,1-5,1.38,8.75,8.75,0,0,0,3.85-4.84,17.47,17.47,0,0,1-5.56,2.12,8.76,8.76,0,0,0-14.91,8,24.87,24.87,0,0,1-18-9.15,8.78,8.78,0,0,0,2.71,11.69,8.76,8.76,0,0,1-4-1.1v.11a8.76,8.76,0,0,0,7,8.58,8.69,8.69,0,0,1-2.3.31,8.24,8.24,0,0,1-1.65-.16,8.77,8.77,0,0,0,8.18,6.08,17.56,17.56,0,0,1-10.87,3.75,18,18,0,0,1-2.09-.12,24.78,24.78,0,0,0,13.42,3.93c16.1,0,24.9-13.34,24.9-24.9q0-.57,0-1.14a17.6,17.6,0,0,0,4.37-4.53"/><path class="cls-11" d="M1745.45,12.1a17.36,17.36,0,0,1-5,1.38,8.79,8.79,0,0,0,3.85-4.84,17.56,17.56,0,0,1-5.56,2.12,8.76,8.76,0,0,0-15.14,6,9.36,9.36,0,0,0,.22,2,24.83,24.83,0,0,1-18-9.15,8.65,8.65,0,0,0-1.19,4.4,8.77,8.77,0,0,0,3.89,7.29,8.72,8.72,0,0,1-4-1.1v.11a8.76,8.76,0,0,0,7,8.58,8.76,8.76,0,0,1-2.31.31,8.07,8.07,0,0,1-1.64-.16,8.75,8.75,0,0,0,8.17,6.08,17.54,17.54,0,0,1-10.87,3.75,17.87,17.87,0,0,1-2.08-.12,24.78,24.78,0,0,0,13.41,3.93c16.1,0,24.9-13.34,24.9-24.9,0-.38,0-.76,0-1.14a17.76,17.76,0,0,0,4.37-4.53"/><path class="cls-12" d="M2035.78,2.45a2,2,0,0,1,1.42.59,2,2,0,0,1,0,2.83l-19.5,19.49,18.77,18.77a2,2,0,0,1-2.82,2.83l-21.6-21.6L2034.37,3A2,2,0,0,1,2035.78,2.45Z"/><circle class="cls-4" cx="1574.13" cy="25.21" r="23"/><path class="cls-5" d="M1589.43,23.83c0-6.85-6.87-12.42-15.3-12.42s-15.3,5.57-15.3,12.42c0,6.13,5.44,11.27,12.79,12.25.5.1,1.18.32,1.35.75a3.07,3.07,0,0,1,0,1.38l-.22,1.31c-.06.39-.3,1.52,1.33.83s8.81-5.19,12-8.88h0a11.1,11.1,0,0,0,3.28-7.64"/><path class="cls-4" d="M1571,20.52H1570a.29.29,0,0,0-.3.3v6.66a.29.29,0,0,0,.3.3H1571a.3.3,0,0,0,.3-.3V20.82a.3.3,0,0,0-.3-.3"/><path class="cls-4" d="M1578.41,20.52h-1.08a.3.3,0,0,0-.3.3v4l-3-4.13,0,0h0v0h0v0h-1.26a.29.29,0,0,0-.3.3v6.66a.29.29,0,0,0,.3.3h1.07a.29.29,0,0,0,.3-.3v-4l3.06,4.13.07.08h1.25a.29.29,0,0,0,.29-.3V20.82a.29.29,0,0,0-.29-.3"/><path class="cls-4" d="M1568.43,26.11h-2.91V20.82a.3.3,0,0,0-.3-.3h-1.07a.29.29,0,0,0-.3.3v6.66h0a.32.32,0,0,0,.08.21h0a.3.3,0,0,0,.21.08h4.28a.29.29,0,0,0,.3-.3V26.41a.29.29,0,0,0-.3-.3"/><path class="cls-4" d="M1584.33,22.19a.3.3,0,0,0,.3-.3V20.82a.29.29,0,0,0-.3-.3H1580a.28.28,0,0,0-.2.08h0a.3.3,0,0,0-.08.21h0v6.66h0a.32.32,0,0,0,.08.21h0a.28.28,0,0,0,.2.08h4.29a.29.29,0,0,0,.3-.3V26.41a.29.29,0,0,0-.3-.3h-2.91V25h2.91a.29.29,0,0,0,.3-.29V23.61a.3.3,0,0,0-.3-.3h-2.91V22.19Z"/><circle class="cls-13" cx="1624.13" cy="25.21" r="23"/><g id="TYPE_A" data-name="TYPE A"><path class="cls-5" d="M1639.43,23.83c0-6.85-6.87-12.42-15.3-12.42s-15.3,5.57-15.3,12.42c0,6.13,5.44,11.27,12.79,12.25.5.1,1.18.32,1.35.75a3.07,3.07,0,0,1,0,1.38l-.22,1.31c-.06.39-.3,1.52,1.33.83s8.81-5.19,12-8.88h0a11.1,11.1,0,0,0,3.28-7.64"/><path class="cls-13" d="M1621,20.52H1620a.29.29,0,0,0-.3.3v6.66a.29.29,0,0,0,.3.3H1621a.3.3,0,0,0,.3-.3V20.82a.3.3,0,0,0-.3-.3"/><path class="cls-13" d="M1628.41,20.52h-1.08a.3.3,0,0,0-.3.3v4l-3-4.13,0,0h0v0h0v0h-1.26a.29.29,0,0,0-.3.3v6.66a.29.29,0,0,0,.3.3h1.07a.29.29,0,0,0,.3-.3v-4l3.06,4.13.07.08h1.25a.29.29,0,0,0,.29-.3V20.82a.29.29,0,0,0-.29-.3"/><path class="cls-13" d="M1618.43,26.11h-2.91V20.82a.3.3,0,0,0-.3-.3h-1.07a.29.29,0,0,0-.3.3v6.66h0a.32.32,0,0,0,.08.21h0a.3.3,0,0,0,.21.08h4.28a.29.29,0,0,0,.3-.3V26.41a.29.29,0,0,0-.3-.3"/><path class="cls-13" d="M1634.33,22.19a.3.3,0,0,0,.3-.3V20.82a.29.29,0,0,0-.3-.3H1630a.28.28,0,0,0-.2.08h0a.3.3,0,0,0-.08.21h0v6.66h0a.32.32,0,0,0,.08.21h0a.28.28,0,0,0,.2.08h4.29a.29.29,0,0,0,.3-.3V26.41a.29.29,0,0,0-.3-.3h-2.91V25h2.91a.29.29,0,0,0,.3-.29V23.61a.3.3,0,0,0-.3-.3h-2.91V22.19Z"/></g><g id="refresh"><g id="Group_294" data-name="Group 294"><g id="Group_293" data-name="Group 293"><path id="Path_305" data-name="Path 305" d="M1893.76,10.07a1.62,1.62,0,0,0-1.76,1.47l-.22,2.35a20.45,20.45,0,0,0-35.56,1.71,1.62,1.62,0,0,0,2.85,1.54.25.25,0,0,0,0-.07,17.21,17.21,0,0,1,30-1.43L1886.75,14a1.62,1.62,0,1,0-2,2.56l.1.07,7,5a1.62,1.62,0,0,0,2.26-.38,1.67,1.67,0,0,0,.3-.79l.81-8.63a1.62,1.62,0,0,0-1.47-1.76Z"/></g></g><g id="Group_296" data-name="Group 296"><g id="Group_295" data-name="Group 295"><path id="Path_306" data-name="Path 306" d="M1892.06,32.39a1.62,1.62,0,0,0-2.18.71,17.21,17.21,0,0,1-30,1.43l2.31,1.65a1.62,1.62,0,0,0,1.88-2.64l-7-5a1.63,1.63,0,0,0-2.56,1.17l-.79,8.62a1.62,1.62,0,1,0,3.22.39v-.1l.22-2.35a20.45,20.45,0,0,0,35.56-1.71A1.62,1.62,0,0,0,1892.06,32.39Z"/></g></g></g><g id="refresh-2" data-name="refresh"><g id="Group_294-2" data-name="Group 294"><g id="Group_293-2" data-name="Group 293"><path id="Path_305-2" data-name="Path 305" class="cls-14" d="M2143.76,10.07a1.62,1.62,0,0,0-1.76,1.47l-.22,2.35a20.45,20.45,0,0,0-35.56,1.71,1.62,1.62,0,0,0,2.85,1.54.25.25,0,0,0,0-.07,17.21,17.21,0,0,1,29.95-1.43L2136.75,14a1.62,1.62,0,0,0-2,2.56l.1.07,7,5a1.62,1.62,0,0,0,2.26-.38,1.67,1.67,0,0,0,.3-.79l.81-8.63a1.62,1.62,0,0,0-1.47-1.76Z"/></g></g><g id="Group_296-2" data-name="Group 296"><g id="Group_295-2" data-name="Group 295"><path id="Path_306-2" data-name="Path 306" class="cls-15" d="M2142.06,32.39a1.62,1.62,0,0,0-2.18.71,17.21,17.21,0,0,1-30,1.43l2.31,1.65a1.62,1.62,0,0,0,1.88-2.64l-7-5a1.63,1.63,0,0,0-2.56,1.17l-.79,8.62a1.62,1.62,0,1,0,3.22.39v-.1l.22-2.35a20.45,20.45,0,0,0,35.56-1.71A1.62,1.62,0,0,0,2142.06,32.39Z"/></g></g></g><path id="businessman" class="cls-16" d="M388.12,31.28a19.84,19.84,0,0,0-7.6-4.77,11.55,11.55,0,1,0-16.06-3,11.34,11.34,0,0,0,3,3A20,20,0,0,0,354,45.41h3.12a16.89,16.89,0,0,1,15-16.76l-3,11.93L374,45.43l4.85-4.85-3-11.93a16.89,16.89,0,0,1,15,16.76H394A19.88,19.88,0,0,0,388.12,31.28ZM365.56,17A8.43,8.43,0,1,1,374,25.42h0A8.43,8.43,0,0,1,365.56,17ZM374,41l-1.4-1.4L374,34l1.39,5.62Z"/><path id="canned-food" class="cls-17" d="M444,14.62a5.15,5.15,0,0,0-2-3.87,14.15,14.15,0,0,0-4.44-2.51,44.42,44.42,0,0,0-27.18,0A14.15,14.15,0,0,0,406,10.75a5.15,5.15,0,0,0-2,3.87v.16h0V37.59a5.14,5.14,0,0,0,2,3.87A14.15,14.15,0,0,0,410.41,44a44.22,44.22,0,0,0,27.18,0A14.15,14.15,0,0,0,442,41.46a5.15,5.15,0,0,0,2-3.87V14.78h0Zm-32.49-3.45a41.18,41.18,0,0,1,25,0c2.66,1,4.39,2.36,4.39,3.45s-1.73,2.45-4.39,3.46A36.82,36.82,0,0,1,424,20a36.82,36.82,0,0,1-12.49-1.93c-2.66-1-4.38-2.37-4.38-3.46S408.85,12.17,411.51,11.17Zm25,29.87a41.18,41.18,0,0,1-25,0c-2.66-1-4.38-2.36-4.38-3.45v-1.5a16.72,16.72,0,0,0,3.28,1.63A40,40,0,0,0,424,39.86a40,40,0,0,0,13.59-2.14,17.08,17.08,0,0,0,3.29-1.63v1.5C440.88,38.68,439.15,40,436.49,41Zm0-6.25a41.18,41.18,0,0,1-25,0c-2.66-1-4.38-2.36-4.38-3.45V25.62a16.72,16.72,0,0,0,3.28,1.63A40,40,0,0,0,424,29.39a40,40,0,0,0,13.59-2.14,17.08,17.08,0,0,0,3.29-1.63v5.72C440.88,32.43,439.15,33.79,436.49,34.79Zm0-10.46A36.82,36.82,0,0,1,424,26.26a36.82,36.82,0,0,1-12.49-1.93c-2.66-1-4.38-2.37-4.38-3.46v-1.5A16.72,16.72,0,0,0,410.41,21,40,40,0,0,0,424,23.14,40,40,0,0,0,437.59,21a17.08,17.08,0,0,0,3.29-1.63v1.5C440.88,22,439.15,23.32,436.49,24.33Zm-10.95-8a2,2,0,0,1-.6-1.46,2.08,2.08,0,0,1,.62-1.51c.88-.87,2.27-.86,4.19-.84h1.7c1.92,0,3.31,0,4.19.84a2.13,2.13,0,0,1,0,3c-.76.75-1.9.85-3.44.85h-2.12C427.89,17.21,426.44,17.21,425.54,16.32Z"/><path id="first-aid-kit" class="cls-18" d="M189.31,13.63H181V12.06a4.69,4.69,0,0,0-4.69-4.68h-4.68A4.69,4.69,0,0,0,167,12.06v1.57h-8.28A4.68,4.68,0,0,0,154,18.31V38.7a4.69,4.69,0,0,0,4.69,4.69h30.62A4.7,4.7,0,0,0,194,38.7V18.31A4.68,4.68,0,0,0,189.31,13.63ZM170.1,12.06a1.56,1.56,0,0,1,1.56-1.56h4.68a1.56,1.56,0,0,1,1.56,1.56v1.57h-7.8ZM190.88,38.7a1.57,1.57,0,0,1-1.57,1.56H158.69a1.56,1.56,0,0,1-1.56-1.56V18.31a1.56,1.56,0,0,1,1.56-1.56h30.62a1.56,1.56,0,0,1,1.57,1.56ZM175.56,27.38h5.86V30.5h-5.86v5.7h-3.12V30.5h-5.86V27.38h5.86v-6h3.12Z"/><path id="profits" class="cls-19" d="M644,5.11V14.4h-3.12V10.51L624.54,26.85l-6.27-6.27L606.24,33,604,30.8l14.24-14.67,6.3,6.3,14.21-14.2h-4.12V5.11ZM613.16,30.27v14.8h3.12v-18Zm6.09,14.8h3.13v-16L619.25,26Zm-12.26,0h3.13V33.37L607,36.56Zm24.52,0h3.12V21.17l-3.12,3.13Zm6.17-26.94v27h3.12V17.68h-2.67Zm-12.34,27h3.12V27.34l-3.12,3.13Z"/><path id="shield" class="cls-20" d="M486.57,11.2h0a25.32,25.32,0,0,1-9-3.92,6.85,6.85,0,0,0-7.66,0,25.42,25.42,0,0,1-9,3.92A4.68,4.68,0,0,0,457,15.82v9.43a17.43,17.43,0,0,0,2.59,9,26.24,26.24,0,0,0,5.54,6.39,36.2,36.2,0,0,0,8,5.16l.63.28.64-.28a36.2,36.2,0,0,0,8-5.16,26.24,26.24,0,0,0,5.54-6.39,17.43,17.43,0,0,0,2.59-9V15.82A4.69,4.69,0,0,0,486.57,11.2Zm.75,14.05c0,4.64-2.35,9-7,13a34.69,34.69,0,0,1-6.63,4.43c-2.76-1.41-13.6-7.55-13.6-17.41V15.82a1.56,1.56,0,0,1,1.3-1.54,28.48,28.48,0,0,0,10.22-4.41,3.73,3.73,0,0,1,4.17,0A28.48,28.48,0,0,0,486,14.28h0a1.58,1.58,0,0,1,1.3,1.54Zm-6.17-6.95,2.33,2.09L472.22,32.93l-7.39-7L467,23.63l5.06,4.81Z"/><path id="sunset" class="cls-21" d="M87.87,32.76a3,3,0,0,1-2.93-2.3,11.73,11.73,0,0,0,1.33-5.35,12.19,12.19,0,1,0-23.19,5.26,3,3,0,0,1-5.95-.58H54a6.14,6.14,0,0,0,10.74,4,6.15,6.15,0,0,0,8.68.54,7.36,7.36,0,0,0,.62-.63,6.16,6.16,0,0,0,8.67.7,5.3,5.3,0,0,0,.59-.57A6.14,6.14,0,0,0,94,29.79H90.88A3,3,0,0,1,87.87,32.76Zm-9.14,0a3,3,0,0,1-3-3H72.36a3,3,0,0,1-6,.05h0v0h0a9.06,9.06,0,1,1,16.82-4.69,8.77,8.77,0,0,1-1.43,4.71l0,0a3,3,0,0,1-3,2.92ZM94,23.54v3.13H89.31V23.54ZM58.69,26.67H54V23.54h4.69Zm17-16.88H72.52V5.11h3.12Zm12.48,9L86.56,16.1l4.06-2.34,1.56,2.7Zm-4.71-5.95-2.67-1.63,2.45-4,2.66,1.63Zm-18.34-.23L62.72,8.57,65.43,7l2.34,4.05ZM60.2,18.46,56.2,16l1.62-2.67,4,2.44ZM90.88,38.93H94a6.14,6.14,0,0,1-10.78,4,6.15,6.15,0,0,1-8.67.62A4.59,4.59,0,0,1,74,43a6.15,6.15,0,0,1-8.68.45,6.88,6.88,0,0,1-.54-.54,6.14,6.14,0,0,1-10.78-4h3.13a3,3,0,1,0,6,0h3.28a3,3,0,1,0,6,0h3.12a3,3,0,0,0,6,0h3.28a3,3,0,1,0,6,0Z"/><path id="traffic-jam" class="cls-22" d="M579.57,29.35l-1.6-5v0a3.63,3.63,0,0,0-3.43-2.44H563a3.63,3.63,0,0,0-3.42,2.44l-1.62,5a4.63,4.63,0,0,0-1.55,1.07A4.78,4.78,0,0,0,555,33.78V42a3.12,3.12,0,0,0,6.22.39h15a3.15,3.15,0,0,0,3.11,2.74,3.07,3.07,0,0,0,3.12-2.74V33.7A4.7,4.7,0,0,0,579.57,29.35ZM563,25h11.57a.51.51,0,0,1,.47.34L576.18,29H561.31l1.17-3.64A.54.54,0,0,1,563,25Zm16.42,12.65a1.58,1.58,0,0,1-1.57,1.56H559.69a1.57,1.57,0,0,1-1.57-1.56v-3.9a1.63,1.63,0,0,1,1.57-1.64h18.12a1.56,1.56,0,0,1,1.57,1.56Zm-14.15-3.59h7.11v3.12h-7.11Zm12.19,1.56a1.56,1.56,0,1,1-3.12,0,1.56,1.56,0,0,1,1.56-1.56h0a1.56,1.56,0,0,1,1.56,1.56Zm-14.14,0a1.56,1.56,0,1,1-3.12,0,1.55,1.55,0,0,1,1.56-1.56h0a1.56,1.56,0,0,1,1.56,1.56ZM588.36,27a1.56,1.56,0,1,1,1.56-1.56A1.56,1.56,0,0,1,588.36,27ZM564.84,16.74a1.57,1.57,0,1,1-1.56,1.57,1.55,1.55,0,0,1,1.56-1.57Zm-6.69,4.07a3.7,3.7,0,0,1,0-.47v-3.6a4.72,4.72,0,0,1,1.35-3.33,4.6,4.6,0,0,1,1.57-1.08l1.6-4.78a3.63,3.63,0,0,1,3.43-2.44h11.58a3.63,3.63,0,0,1,3.42,2.44l.36,1.3h-3.33c-.08-.18-.26-.62-.45-.62H566.08a.52.52,0,0,0-.48.35v0L564.5,12h5.27a6.29,6.29,0,0,0-.69,1.43l0,.05-.53,1.65h-5.72a1.62,1.62,0,0,0-1.56,1.63V19a6.71,6.71,0,0,0-3.1,1.8ZM595,23.46v8.68a3.06,3.06,0,0,1-3.12,2.73,3.11,3.11,0,0,1-3.1-2.73h-3.31A7.67,7.67,0,0,0,584.06,29h6.25a1.58,1.58,0,0,0,1.57-1.57v-4a1.57,1.57,0,0,0-1.57-1.55h-10.1a6.73,6.73,0,0,0-5.68-3.13h14.12l-1.15-3.33a.53.53,0,0,0-.47-.35H575.45a.52.52,0,0,0-.47.36l-1.14,3.39h-3.3L572,14.43A3.63,3.63,0,0,1,575.46,12H587a3.64,3.64,0,0,1,3.43,2.45l1.61,4.69A4.68,4.68,0,0,1,595,23.46ZM582.09,27l-1-3.13h3.76V27Z"/><path class="cls-23" d="M242.38.41V2.29a.47.47,0,0,1-.47.47H225.16a.47.47,0,0,1-.47-.47V.41H221.8V2.29a3.36,3.36,0,0,0,3.36,3.35h2c0,5.9,0,5.57,0,5.71l-14.73,9a5.79,5.79,0,0,0-1.55,10.94l17.29,8.09c0,.15.11.29.17.44l-2.26,5c-1.16,2.58,2.21,3.68,2.93,4.38a1.44,1.44,0,0,0,1.62-2.39l-1.74-1.18,1.51-3.35a5.26,5.26,0,0,0,5.61,0l1.51,3.35-1.74,1.18a1.44,1.44,0,0,0,1.62,2.39c.72-.69,4.09-1.8,2.93-4.38l-2.26-5a5.28,5.28,0,0,0-4.75-7.29L225.05,27l11.08-4.25a7.25,7.25,0,0,0,3.81-10.14V5.64h2a3.35,3.35,0,0,0,3.36-3.35V.41Zm-9.2,35a2.38,2.38,0,1,1-2.38,2.38A2.38,2.38,0,0,1,233.18,35.38ZM230,5.64h7v4a7.23,7.23,0,0,0-7,0Zm-.15,28a5.27,5.27,0,0,0-1.71,2.48c-16-7.84-17-7.14-17.61-9.29a2.89,2.89,0,0,1,4.37-3.24Zm7.72-16.15c-1.19,3-3.52,2.44-15.47,7.46-7.36-4.95-5.2-3.51-5.62-3.78l14.77-9A4.36,4.36,0,0,1,237.59,17.52Z"/><path class="cls-24" d="M145.92,14.83a1.72,1.72,0,0,0-2.43,0,5.64,5.64,0,0,1-1.61,1.11l-8.16-8.16a5.64,5.64,0,0,1,1.11-1.61,1.72,1.72,0,1,0-2.44-2.43c-3,3-3.39,8-2.89,12.22-10.67-1.26-16.47,3.6-15.11,15.12-4.25-.51-9.19-.15-12.23,2.89a1.72,1.72,0,1,0,2.44,2.43,5.85,5.85,0,0,1,1.61-1.11l8.16,8.16a5.57,5.57,0,0,1-1.11,1.61,1.72,1.72,0,1,0,2.43,2.44c3-3,3.4-8,2.89-12.23,10.67,1.26,16.48-3.6,15.12-15.11,4.24.5,9.19.14,12.22-2.89A1.71,1.71,0,0,0,145.92,14.83ZM115.29,39.51l-5.13-5.14a22,22,0,0,1,4.87.28A22,22,0,0,1,115.29,39.51ZM118,31.7a21.35,21.35,0,0,1-.27-4.86L122.82,32A21.26,21.26,0,0,1,118,31.7Zm8.81-.65-8.16-8.16a5.38,5.38,0,0,1,2.71-2.71l8.16,8.16A5.34,5.34,0,0,1,126.77,31.05Zm3.63-6.66-5.13-5.13a21.32,21.32,0,0,1,4.86.27A21.35,21.35,0,0,1,130.4,24.39Zm2.67-7.8a21.35,21.35,0,0,1-.27-4.86l5.13,5.13A21.9,21.9,0,0,1,133.07,16.59Z"/><path class="cls-25" d="M283.83,25.1a1.38,1.38,0,0,0-.89-1l-6.61-2.2L281,12.54a1.35,1.35,0,0,0-.41-1.7,1.34,1.34,0,0,0-1.74.14L265.39,24.46a1.34,1.34,0,0,0,.53,2.23l6.61,2.2-4.7,9.39a1.35,1.35,0,0,0,.42,1.7,1.34,1.34,0,0,0,1.74-.14l13.48-13.48A1.36,1.36,0,0,0,283.83,25.1Z"/><path class="cls-26" d="M274.43,2.41a23.17,23.17,0,0,0-17.61,8.31V9.24a1.35,1.35,0,1,0-2.7,0V15c0,1.29,1.66,1.47,1.35,1.35h.08l5.39-.34a1.34,1.34,0,0,0,1.27-1.42,1.37,1.37,0,0,0-1.43-1.27l-2.73.17a20.28,20.28,0,0,1,36.68,12,1.35,1.35,0,0,0,2.7,0A23.09,23.09,0,0,0,274.43,2.41Z"/><path class="cls-27" d="M293.3,34.51l-5.39.34a1.34,1.34,0,0,0-1.26,1.42,1.37,1.37,0,0,0,1.43,1.27l2.73-.17a20.29,20.29,0,0,1-36.69-12,1.35,1.35,0,1,0-2.69,0A22.94,22.94,0,0,0,292,40.1v1.48a1.35,1.35,0,1,0,2.69,0V35.86A1.41,1.41,0,0,0,293.3,34.51Z"/><path class="cls-28" d="M343.15,2.91h-7.07A16.09,16.09,0,0,0,320,19v3.57a9.72,9.72,0,0,0-6.8-2.74H305.9A3.15,3.15,0,0,0,302.75,23v5.67a9.83,9.83,0,0,0,9.82,9.82H320v9.37a1.55,1.55,0,1,0,3.09,0V43.45H326a7.17,7.17,0,0,0,7.17-7.16v-2A2.37,2.37,0,0,0,330.78,32h-3.61a7.12,7.12,0,0,0-4.07,1.28V27.52h6.76a16,16,0,0,0,10.76-4.14,1.55,1.55,0,1,0-2.08-2.29,12.93,12.93,0,0,1-8.68,3.33h-4.41L342.84,8.05v3.4a12.94,12.94,0,0,1-1.65,6.33,1.54,1.54,0,0,0,2.69,1.51,16.06,16.06,0,0,0,2.05-7.84V5.68A2.78,2.78,0,0,0,343.15,2.91ZM340.5,6,323.1,22.39V19a13,13,0,0,1,13-13ZM323.1,40.36V39.12a4.07,4.07,0,0,1,4.07-4.07h2.88v1.24A4.08,4.08,0,0,1,326,40.36Zm-7.91-9.14a1.55,1.55,0,0,0,.11,2.18l2.17,2h-4.9a6.75,6.75,0,0,1-6.73-6.73V24.86L312,30.41a1.6,1.6,0,0,0,2.19-.11,1.56,1.56,0,0,0-.11-2.18l-5.78-5.22h4.92a6.74,6.74,0,0,1,6.73,6.73v3.79l-2.56-2.31A1.54,1.54,0,0,0,315.19,31.22Z"/><path class="cls-29" d="M545.34,20.77h0a2.91,2.91,0,0,0-2.07-2.65l-.18-.06-16.47-5a9.35,9.35,0,0,0-6.43,0l-16.46,5-.18.06a2.91,2.91,0,0,0-2.08,2.65c0,.52.2,1.83,2.16,2.68l4.57,1.7V35.48c0,3.37,8.18,6,15.21,6s15.2-2.61,15.2-6V25.15l3.56-1.33v5.93a1.63,1.63,0,0,0,3.26,0V21.27A1.64,1.64,0,0,0,545.34,20.77Zm-10,14.42c-.83.85-5.32,3-12,3s-11.12-2.17-11.95-3V26.36l8.64,3.22a8.49,8.49,0,0,0,3.31.61,8.58,8.58,0,0,0,3.27-.6l8.68-3.23Zm-9.86-8.63-.08,0a6.11,6.11,0,0,1-4.11,0l-15.45-5.75,15.36-4.66.17-.06a6.06,6.06,0,0,1,4,0l.18.06L541,20.81Z"/><path class="cls-30" d="M543.8,33a1.63,1.63,0,0,0-1.63,1.63v4.35a1.63,1.63,0,0,0,3.26,0V34.59A1.63,1.63,0,0,0,543.8,33Z"/><path id="businessman-2" data-name="businessman" class="cls-31" d="M1138.12,31.28a19.84,19.84,0,0,0-7.6-4.77,11.55,11.55,0,1,0-16.06-3,11.34,11.34,0,0,0,3,3A20,20,0,0,0,1104,45.41h3.12a16.89,16.89,0,0,1,15-16.76l-3,11.93,4.85,4.85,4.85-4.85-3-11.93a16.89,16.89,0,0,1,15,16.76H1144A19.88,19.88,0,0,0,1138.12,31.28ZM1115.56,17a8.43,8.43,0,1,1,8.43,8.43h0A8.43,8.43,0,0,1,1115.56,17ZM1124,41l-1.4-1.4L1124,34l1.39,5.62Z"/><path id="canned-food-2" data-name="canned-food" class="cls-32" d="M1194,14.62a5.15,5.15,0,0,0-2-3.87,14.15,14.15,0,0,0-4.44-2.51,44.42,44.42,0,0,0-27.18,0,14.15,14.15,0,0,0-4.44,2.51,5.15,5.15,0,0,0-2,3.87v.16h0V37.59a5.14,5.14,0,0,0,2,3.87,14.15,14.15,0,0,0,4.44,2.51,44.22,44.22,0,0,0,27.18,0,14.15,14.15,0,0,0,4.44-2.51,5.15,5.15,0,0,0,2-3.87V14.78h0Zm-32.49-3.45a41.18,41.18,0,0,1,25,0c2.66,1,4.39,2.36,4.39,3.45s-1.73,2.45-4.39,3.46A36.82,36.82,0,0,1,1174,20a36.82,36.82,0,0,1-12.49-1.93c-2.66-1-4.39-2.37-4.39-3.46S1158.85,12.17,1161.51,11.17Zm25,29.87a41.18,41.18,0,0,1-25,0c-2.66-1-4.39-2.36-4.39-3.45v-1.5a17.08,17.08,0,0,0,3.29,1.63A40,40,0,0,0,1174,39.86a40,40,0,0,0,13.59-2.14,17.08,17.08,0,0,0,3.29-1.63v1.5C1190.88,38.68,1189.15,40,1186.49,41Zm0-6.25a41.18,41.18,0,0,1-25,0c-2.66-1-4.39-2.36-4.39-3.45V25.62a17.08,17.08,0,0,0,3.29,1.63A40,40,0,0,0,1174,29.39a40,40,0,0,0,13.59-2.14,17.08,17.08,0,0,0,3.29-1.63v5.72C1190.88,32.43,1189.15,33.79,1186.49,34.79Zm0-10.46A36.82,36.82,0,0,1,1174,26.26a36.82,36.82,0,0,1-12.49-1.93c-2.66-1-4.39-2.37-4.39-3.46v-1.5a17.08,17.08,0,0,0,3.29,1.63A40,40,0,0,0,1174,23.14,40,40,0,0,0,1187.59,21a17.08,17.08,0,0,0,3.29-1.63v1.5C1190.88,22,1189.15,23.32,1186.49,24.33Zm-11-8a2,2,0,0,1-.6-1.46,2.08,2.08,0,0,1,.62-1.51c.88-.87,2.27-.86,4.19-.84h1.7c1.92,0,3.31,0,4.19.84a2.13,2.13,0,0,1,0,3c-.76.75-1.9.85-3.44.85h-2.12C1177.89,17.21,1176.44,17.21,1175.54,16.32Z"/><path id="first-aid-kit-2" data-name="first-aid-kit" class="cls-33" d="M939.31,13.63H931V12.06a4.69,4.69,0,0,0-4.69-4.68h-4.68A4.69,4.69,0,0,0,917,12.06v1.57h-8.28A4.68,4.68,0,0,0,904,18.31V38.7a4.69,4.69,0,0,0,4.69,4.69h30.62A4.7,4.7,0,0,0,944,38.7V18.31A4.68,4.68,0,0,0,939.31,13.63ZM920.1,12.06a1.56,1.56,0,0,1,1.56-1.56h4.68a1.56,1.56,0,0,1,1.56,1.56v1.57h-7.8ZM940.88,38.7a1.57,1.57,0,0,1-1.57,1.56H908.69a1.56,1.56,0,0,1-1.56-1.56V18.31a1.56,1.56,0,0,1,1.56-1.56h30.62a1.56,1.56,0,0,1,1.57,1.56ZM925.56,27.38h5.86V30.5h-5.86v5.7h-3.12V30.5h-5.86V27.38h5.86v-6h3.12Z"/><path id="profits-2" data-name="profits" class="cls-34" d="M1394,5.11V14.4h-3.12V10.51l-16.34,16.34-6.27-6.27-12,12.39L1354,30.8l14.24-14.67,6.3,6.3,14.21-14.2h-4.12V5.11Zm-30.84,25.16v14.8h3.12v-18Zm6.09,14.8h3.13v-16L1369.25,26Zm-12.26,0h3.13V33.37L1357,36.56Zm24.52,0h3.12V21.17l-3.12,3.13Zm6.17-26.94v27h3.12V17.68h-2.67Zm-12.34,27h3.12V27.34l-3.12,3.13Z"/><path id="shield-2" data-name="shield" class="cls-35" d="M1236.57,11.2h0a25.32,25.32,0,0,1-9-3.92,6.85,6.85,0,0,0-7.66,0,25.42,25.42,0,0,1-9,3.92,4.68,4.68,0,0,0-3.87,4.62v9.43a17.43,17.43,0,0,0,2.59,9,26.24,26.24,0,0,0,5.54,6.39,36.2,36.2,0,0,0,8,5.16l.63.28.64-.28a36.2,36.2,0,0,0,8-5.16,26.24,26.24,0,0,0,5.54-6.39,17.43,17.43,0,0,0,2.59-9V15.82A4.69,4.69,0,0,0,1236.57,11.2Zm.75,14.05c0,4.64-2.35,9-7,13a34.69,34.69,0,0,1-6.63,4.43c-2.76-1.41-13.6-7.55-13.6-17.41V15.82a1.56,1.56,0,0,1,1.3-1.54,28.48,28.48,0,0,0,10.22-4.41,3.73,3.73,0,0,1,4.17,0A28.48,28.48,0,0,0,1236,14.28h0a1.58,1.58,0,0,1,1.3,1.54Zm-6.17-6.95,2.33,2.09-11.26,12.54-7.39-7,2.16-2.26,5.06,4.81Z"/><path id="sunset-2" data-name="sunset" class="cls-36" d="M837.87,32.76a3,3,0,0,1-2.93-2.3,11.73,11.73,0,0,0,1.33-5.35,12.19,12.19,0,1,0-23.19,5.26,3,3,0,0,1-6-.58H804a6.14,6.14,0,0,0,10.74,4,6.15,6.15,0,0,0,8.68.54,7.36,7.36,0,0,0,.62-.63,6.16,6.16,0,0,0,8.67.7,5.3,5.3,0,0,0,.59-.57A6.14,6.14,0,0,0,844,29.79h-3.12A3,3,0,0,1,837.87,32.76Zm-9.14,0a3,3,0,0,1-3-3h-3.36a3,3,0,0,1-6,.05h0v0h0a9.06,9.06,0,1,1,16.82-4.69,8.77,8.77,0,0,1-1.43,4.71l0,0a3,3,0,0,1-3,2.92ZM844,23.54v3.13h-4.69V23.54Zm-35.31,3.13H804V23.54h4.69ZM825.64,9.79h-3.12V5.11h3.12Zm12.48,9-1.56-2.71,4.06-2.34,1.56,2.7Zm-4.71-5.95-2.67-1.63,2.45-4,2.66,1.63Zm-18.34-.23-2.35-4.06L815.43,7l2.34,4.05Zm-4.87,5.83-4-2.44,1.62-2.67,4,2.44Zm30.68,20.47H844a6.14,6.14,0,0,1-10.78,4,6.15,6.15,0,0,1-8.67.62A4.59,4.59,0,0,1,824,43a6.15,6.15,0,0,1-8.68.45,6.88,6.88,0,0,1-.54-.54,6.14,6.14,0,0,1-10.78-4h3.13a3,3,0,1,0,6,0h3.28a3,3,0,0,0,6,0h3.12a3,3,0,1,0,6,0h3.28a3,3,0,1,0,6,0Z"/><path id="traffic-jam-2" data-name="traffic-jam" class="cls-37" d="M1329.57,29.35l-1.6-5v0a3.63,3.63,0,0,0-3.43-2.44H1313a3.63,3.63,0,0,0-3.42,2.44l-1.62,5a4.63,4.63,0,0,0-1.55,1.07,4.78,4.78,0,0,0-1.36,3.34V42a3.12,3.12,0,0,0,6.22.39h15a3.15,3.15,0,0,0,3.11,2.74,3.07,3.07,0,0,0,3.12-2.74V33.7A4.7,4.7,0,0,0,1329.57,29.35ZM1313,25h11.57a.51.51,0,0,1,.47.34l1.18,3.64h-14.87l1.17-3.64A.54.54,0,0,1,1313,25Zm16.42,12.65a1.58,1.58,0,0,1-1.57,1.56h-18.12a1.57,1.57,0,0,1-1.57-1.56v-3.9a1.63,1.63,0,0,1,1.57-1.64h18.12a1.56,1.56,0,0,1,1.57,1.56Zm-14.15-3.59h7.11v3.12h-7.11Zm12.19,1.56a1.56,1.56,0,1,1-3.12,0,1.56,1.56,0,0,1,1.56-1.56h0a1.56,1.56,0,0,1,1.56,1.56Zm-14.14,0a1.56,1.56,0,1,1-3.12,0,1.55,1.55,0,0,1,1.56-1.56h0a1.56,1.56,0,0,1,1.56,1.56ZM1338.36,27a1.56,1.56,0,1,1,1.56-1.56,1.56,1.56,0,0,1-1.56,1.56Zm-23.52-10.24a1.57,1.57,0,1,1-1.56,1.57,1.55,1.55,0,0,1,1.56-1.57Zm-6.69,4.07a3.71,3.71,0,0,1,0-.47v-3.6a4.77,4.77,0,0,1,1.36-3.33,4.6,4.6,0,0,1,1.57-1.08l1.6-4.78a3.63,3.63,0,0,1,3.43-2.44h11.58a3.63,3.63,0,0,1,3.42,2.44l.36,1.3h-3.33c-.08-.18-.26-.62-.45-.62h-11.58a.52.52,0,0,0-.48.35v0L1314.5,12h5.27a6.29,6.29,0,0,0-.69,1.43l0,.05-.53,1.65h-5.72a1.62,1.62,0,0,0-1.56,1.63V19a6.71,6.71,0,0,0-3.1,1.8ZM1345,23.46v8.68a3.06,3.06,0,0,1-3.12,2.73,3.11,3.11,0,0,1-3.1-2.73h-3.31a7.67,7.67,0,0,0-1.41-3.13h6.25a1.58,1.58,0,0,0,1.57-1.57v-4a1.57,1.57,0,0,0-1.57-1.55h-10.1a6.73,6.73,0,0,0-5.68-3.13h14.12l-1.15-3.33a.53.53,0,0,0-.47-.35h-11.58a.52.52,0,0,0-.47.36l-1.14,3.39h-3.3l1.49-4.42a3.63,3.63,0,0,1,3.43-2.45H1337a3.64,3.64,0,0,1,3.43,2.45l1.61,4.69A4.68,4.68,0,0,1,1345,23.46ZM1332.09,27l-1-3.13h3.76V27Z"/><path class="cls-38" d="M992.38.41V2.29a.47.47,0,0,1-.47.47H975.16a.47.47,0,0,1-.47-.47V.41H971.8V2.29a3.36,3.36,0,0,0,3.36,3.35h2c0,5.9,0,5.57,0,5.71l-14.73,9a5.79,5.79,0,0,0-1.55,10.94l17.29,8.09c.05.15.11.29.17.44l-2.26,5c-1.16,2.58,2.21,3.68,2.93,4.38a1.44,1.44,0,0,0,1.62-2.39l-1.74-1.18,1.51-3.35a5.26,5.26,0,0,0,5.61,0l1.51,3.35-1.74,1.18a1.44,1.44,0,0,0,1.62,2.39c.72-.69,4.09-1.8,2.93-4.38l-2.26-5a5.28,5.28,0,0,0-4.75-7.29L975.05,27l11.08-4.25a7.25,7.25,0,0,0,3.81-10.14V5.64h2a3.35,3.35,0,0,0,3.36-3.35V.41Zm-9.2,35a2.38,2.38,0,1,1-2.38,2.38A2.38,2.38,0,0,1,983.18,35.38ZM980,5.64h7v4a7.23,7.23,0,0,0-7,0Zm-.15,28a5.27,5.27,0,0,0-1.71,2.48c-16-7.84-17-7.14-17.61-9.29a2.89,2.89,0,0,1,4.37-3.24Zm7.72-16.15c-1.19,3-3.52,2.44-15.47,7.46-7.36-4.95-5.2-3.51-5.62-3.78l14.77-9A4.36,4.36,0,0,1,987.59,17.52Z"/><path class="cls-39" d="M895.92,14.83a1.72,1.72,0,0,0-2.43,0,5.64,5.64,0,0,1-1.61,1.11l-8.16-8.16a5.64,5.64,0,0,1,1.11-1.61,1.72,1.72,0,0,0-2.44-2.43c-3,3-3.39,8-2.89,12.22-10.67-1.26-16.47,3.6-15.11,15.12-4.25-.51-9.19-.15-12.23,2.89a1.72,1.72,0,1,0,2.44,2.43,5.85,5.85,0,0,1,1.61-1.11l8.16,8.16a5.57,5.57,0,0,1-1.11,1.61,1.72,1.72,0,0,0,2.43,2.44c3-3,3.4-8,2.89-12.23,10.67,1.26,16.48-3.6,15.12-15.11,4.24.5,9.19.14,12.22-2.89A1.71,1.71,0,0,0,895.92,14.83ZM865.29,39.51l-5.13-5.14a22,22,0,0,1,4.87.28A22,22,0,0,1,865.29,39.51ZM868,31.7a21.35,21.35,0,0,1-.27-4.86L872.82,32A21.26,21.26,0,0,1,868,31.7Zm8.81-.65-8.16-8.16a5.38,5.38,0,0,1,2.71-2.71l8.16,8.16A5.34,5.34,0,0,1,876.77,31.05Zm3.63-6.66-5.13-5.13a21.32,21.32,0,0,1,4.86.27A21.35,21.35,0,0,1,880.4,24.39Zm2.67-7.8a21.35,21.35,0,0,1-.27-4.86l5.13,5.13A21.9,21.9,0,0,1,883.07,16.59Z"/><path class="cls-40" d="M1033.83,25.1a1.38,1.38,0,0,0-.89-1l-6.61-2.2,4.69-9.39a1.35,1.35,0,0,0-.41-1.7,1.34,1.34,0,0,0-1.74.14l-13.48,13.48a1.34,1.34,0,0,0,.53,2.23l6.61,2.2-4.7,9.39a1.35,1.35,0,0,0,.42,1.7,1.34,1.34,0,0,0,1.74-.14l13.48-13.48A1.36,1.36,0,0,0,1033.83,25.1Z"/><path class="cls-41" d="M1024.43,2.41a23.17,23.17,0,0,0-17.61,8.31V9.24a1.35,1.35,0,0,0-2.7,0V15c0,1.29,1.66,1.47,1.35,1.35h.08l5.39-.34a1.34,1.34,0,0,0,1.27-1.42,1.37,1.37,0,0,0-1.43-1.27l-2.73.17a20.28,20.28,0,0,1,36.68,12,1.35,1.35,0,0,0,2.7,0A23.09,23.09,0,0,0,1024.43,2.41Z"/><path class="cls-42" d="M1043.3,34.51l-5.39.34a1.34,1.34,0,0,0-1.26,1.42,1.37,1.37,0,0,0,1.43,1.27l2.73-.17a20.29,20.29,0,0,1-36.69-12,1.35,1.35,0,1,0-2.69,0A22.94,22.94,0,0,0,1042,40.1v1.48a1.35,1.35,0,1,0,2.69,0V35.86A1.41,1.41,0,0,0,1043.3,34.51Z"/><path class="cls-43" d="M1093.15,2.91h-7.07A16.09,16.09,0,0,0,1070,19v3.57a9.72,9.72,0,0,0-6.8-2.74h-7.31a3.15,3.15,0,0,0-3.15,3.15v5.67a9.83,9.83,0,0,0,9.82,9.82H1070v9.37a1.55,1.55,0,1,0,3.09,0V43.45H1076a7.17,7.17,0,0,0,7.17-7.16v-2a2.37,2.37,0,0,0-2.36-2.37h-3.61a7.12,7.12,0,0,0-4.07,1.28V27.52h6.76a16,16,0,0,0,10.76-4.14,1.55,1.55,0,1,0-2.08-2.29,12.93,12.93,0,0,1-8.68,3.33h-4.41l17.39-16.37v3.4a12.94,12.94,0,0,1-1.65,6.33,1.54,1.54,0,1,0,2.69,1.51,16.06,16.06,0,0,0,2-7.84V5.68A2.78,2.78,0,0,0,1093.15,2.91ZM1090.5,6l-17.4,16.39V19a13,13,0,0,1,13-13Zm-17.4,34.36V39.12a4.07,4.07,0,0,1,4.07-4.07h2.88v1.24a4.08,4.08,0,0,1-4.08,4.07Zm-7.91-9.14a1.55,1.55,0,0,0,.11,2.18l2.17,2h-4.9a6.75,6.75,0,0,1-6.73-6.73V24.86l6.15,5.55a1.6,1.6,0,0,0,2.19-.11,1.56,1.56,0,0,0-.11-2.18l-5.78-5.22h4.92a6.74,6.74,0,0,1,6.73,6.73v3.79l-2.56-2.31A1.54,1.54,0,0,0,1065.19,31.22Z"/><path class="cls-44" d="M1295.34,20.77h0a2.91,2.91,0,0,0-2.07-2.65,1.27,1.27,0,0,0-.18-.06l-16.47-5a9.35,9.35,0,0,0-6.43,0l-16.46,5-.18.06a2.91,2.91,0,0,0-2.08,2.65c0,.52.2,1.83,2.16,2.68l4.57,1.7V35.48c0,3.37,8.18,6,15.21,6s15.2-2.61,15.2-6V25.15l3.56-1.33v5.93a1.63,1.63,0,0,0,3.26,0V21.27A1.64,1.64,0,0,0,1295.34,20.77Zm-10,14.42c-.83.85-5.32,3-11.95,3s-11.12-2.17-12-3V26.36l8.64,3.22a8.49,8.49,0,0,0,3.31.61,8.58,8.58,0,0,0,3.27-.6l8.68-3.23Zm-9.86-8.63-.08,0a6.11,6.11,0,0,1-4.11,0l-15.45-5.75,15.36-4.66.17-.06a6.06,6.06,0,0,1,4,0l.18.06L1291,20.81Z"/><path class="cls-45" d="M1293.8,33a1.63,1.63,0,0,0-1.63,1.63v4.35a1.63,1.63,0,0,0,3.26,0V34.59A1.63,1.63,0,0,0,1293.8,33Z"/><path id="Path_129" data-name="Path 129" class="cls-46" d="M10.31,36.25a2,2,0,0,0,1.45.6h0a2,2,0,0,0,1.46-.6l6.11-6.1a.92.92,0,0,1,1.32,0h0L31.23,40.73a2.05,2.05,0,0,0,1.56.59V36a1,1,0,0,1-.77-.27l-8.46-8.46a.94.94,0,0,1,0-1.32h0l8.52-8.51a.91.91,0,0,1,.71-.27V11.76a2.08,2.08,0,0,0-1.51.6L20.65,23a.94.94,0,0,1-1.32,0h0l-6.08-6.09a2.06,2.06,0,0,0-2.91,0L2.11,25.13a2.06,2.06,0,0,0,0,2.91ZM7.15,25.92l4-4a.94.94,0,0,1,1.32,0h0l4,4a.92.92,0,0,1,0,1.32l-4,4a.92.92,0,0,1-1.32,0h0l-4-4a.92.92,0,0,1,0-1.32Z"/><path id="Path_130" data-name="Path 130" class="cls-47" d="M41.86,27.18l-4.21,4.21,2.91,2.92L46.9,28a2.09,2.09,0,0,0,.6-1.44H42.14A1,1,0,0,1,41.86,27.18Z"/><path id="Path_131" data-name="Path 131" class="cls-48" d="M37.67,21.67l2.92-2.92L34.2,12.36a2.12,2.12,0,0,0-1.4-.6v5.37a.88.88,0,0,1,.6.27Z"/><path id="Path_132" data-name="Path 132" class="cls-49" d="M47.27,25.56a2.12,2.12,0,0,0-.38-.51l-6.3-6.3-2.92,2.91,4.19,4.19a.94.94,0,0,1,.27.69H47.5A2.24,2.24,0,0,0,47.27,25.56Z"/><path id="Path_133" data-name="Path 133" class="cls-50" d="M33.35,35.69a1,1,0,0,1-.55.27v5.36a2.06,2.06,0,0,0,.84-.22,2.12,2.12,0,0,0,.51-.38l6.41-6.41-2.91-2.92Z"/><path id="businessman-3" data-name="businessman" class="cls-51" d="M2588.12,31.28a19.84,19.84,0,0,0-7.6-4.77,11.55,11.55,0,1,0-16.06-3,11.34,11.34,0,0,0,3,3A20,20,0,0,0,2554,45.41h3.12a16.89,16.89,0,0,1,15-16.76l-3,11.93,4.85,4.85,4.85-4.85-3-11.93a16.89,16.89,0,0,1,15,16.76H2594A19.88,19.88,0,0,0,2588.12,31.28ZM2565.56,17a8.43,8.43,0,1,1,8.43,8.43h0A8.43,8.43,0,0,1,2565.56,17ZM2574,41l-1.4-1.4L2574,34l1.39,5.62Z"/><path id="canned-food-3" data-name="canned-food" class="cls-52" d="M2644,14.62a5.15,5.15,0,0,0-2-3.87,14.15,14.15,0,0,0-4.44-2.51,44.42,44.42,0,0,0-27.18,0,14.15,14.15,0,0,0-4.44,2.51,5.15,5.15,0,0,0-2,3.87v.16h0V37.59a5.14,5.14,0,0,0,2,3.87,14.15,14.15,0,0,0,4.44,2.51,44.22,44.22,0,0,0,27.18,0,14.15,14.15,0,0,0,4.44-2.51,5.15,5.15,0,0,0,2-3.87V14.78h0Zm-32.49-3.45a41.18,41.18,0,0,1,25,0c2.66,1,4.39,2.36,4.39,3.45s-1.73,2.45-4.39,3.46A36.82,36.82,0,0,1,2624,20a36.82,36.82,0,0,1-12.49-1.93c-2.66-1-4.39-2.37-4.39-3.46S2608.85,12.17,2611.51,11.17Zm25,29.87a41.18,41.18,0,0,1-25,0c-2.66-1-4.39-2.36-4.39-3.45v-1.5a17.08,17.08,0,0,0,3.29,1.63A40,40,0,0,0,2624,39.86a40,40,0,0,0,13.59-2.14,17.08,17.08,0,0,0,3.29-1.63v1.5C2640.88,38.68,2639.15,40,2636.49,41Zm0-6.25a41.18,41.18,0,0,1-25,0c-2.66-1-4.39-2.36-4.39-3.45V25.62a17.08,17.08,0,0,0,3.29,1.63A40,40,0,0,0,2624,29.39a40,40,0,0,0,13.59-2.14,17.08,17.08,0,0,0,3.29-1.63v5.72C2640.88,32.43,2639.15,33.79,2636.49,34.79Zm0-10.46A36.82,36.82,0,0,1,2624,26.26a36.82,36.82,0,0,1-12.49-1.93c-2.66-1-4.39-2.37-4.39-3.46v-1.5a17.08,17.08,0,0,0,3.29,1.63A40,40,0,0,0,2624,23.14,40,40,0,0,0,2637.59,21a17.08,17.08,0,0,0,3.29-1.63v1.5C2640.88,22,2639.15,23.32,2636.49,24.33Zm-10.95-8a2,2,0,0,1-.6-1.46,2.08,2.08,0,0,1,.62-1.51c.88-.87,2.27-.86,4.19-.84h1.7c1.92,0,3.31,0,4.19.84a2.13,2.13,0,0,1,0,3c-.76.75-1.9.85-3.44.85h-2.12C2627.89,17.21,2626.44,17.21,2625.54,16.32Z"/><path id="first-aid-kit-3" data-name="first-aid-kit" class="cls-53" d="M2389.31,13.63H2381V12.06a4.69,4.69,0,0,0-4.69-4.68h-4.68a4.69,4.69,0,0,0-4.69,4.68v1.57h-8.28a4.68,4.68,0,0,0-4.69,4.68V38.7a4.69,4.69,0,0,0,4.69,4.69h30.62A4.7,4.7,0,0,0,2394,38.7V18.31A4.68,4.68,0,0,0,2389.31,13.63Zm-19.21-1.57a1.56,1.56,0,0,1,1.56-1.56h4.68a1.56,1.56,0,0,1,1.56,1.56v1.57h-7.8Zm20.78,26.64a1.57,1.57,0,0,1-1.57,1.56h-30.62a1.56,1.56,0,0,1-1.56-1.56V18.31a1.56,1.56,0,0,1,1.56-1.56h30.62a1.56,1.56,0,0,1,1.57,1.56Zm-15.32-11.32h5.86V30.5h-5.86v5.7h-3.12V30.5h-5.86V27.38h5.86v-6h3.12Z"/><path id="profits-3" data-name="profits" class="cls-54" d="M2844,5.11V14.4h-3.12V10.51l-16.34,16.34-6.27-6.27-12,12.39L2804,30.8l14.24-14.67,6.3,6.3,14.21-14.2h-4.12V5.11Zm-30.84,25.16v14.8h3.12v-18Zm6.09,14.8h3.13v-16L2819.25,26Zm-12.26,0h3.13V33.37L2807,36.56Zm24.52,0h3.12V21.17l-3.12,3.13Zm6.17-26.94v27h3.12V17.68h-2.67Zm-12.34,27h3.12V27.34l-3.12,3.13Z"/><path id="shield-3" data-name="shield" class="cls-55" d="M2686.57,11.2h0a25.32,25.32,0,0,1-9-3.92,6.85,6.85,0,0,0-7.66,0,25.42,25.42,0,0,1-9,3.92,4.68,4.68,0,0,0-3.87,4.62v9.43a17.43,17.43,0,0,0,2.59,9,26.24,26.24,0,0,0,5.54,6.39,36.2,36.2,0,0,0,8,5.16l.63.28.64-.28a36.2,36.2,0,0,0,8-5.16,26.24,26.24,0,0,0,5.54-6.39,17.43,17.43,0,0,0,2.59-9V15.82A4.69,4.69,0,0,0,2686.57,11.2Zm.75,14.05c0,4.64-2.35,9-7,13a34.69,34.69,0,0,1-6.63,4.43c-2.76-1.41-13.6-7.55-13.6-17.41V15.82a1.56,1.56,0,0,1,1.3-1.54,28.48,28.48,0,0,0,10.22-4.41,3.73,3.73,0,0,1,4.17,0A28.48,28.48,0,0,0,2686,14.28h0a1.58,1.58,0,0,1,1.3,1.54Zm-6.17-6.95,2.33,2.09-11.26,12.54-7.39-7,2.16-2.26,5.06,4.81Z"/><path id="sunset-3" data-name="sunset" class="cls-56" d="M2287.87,32.76a3,3,0,0,1-2.93-2.3,11.73,11.73,0,0,0,1.33-5.35,12.19,12.19,0,1,0-23.19,5.26,3,3,0,0,1-6-.58H2254a34.19,34.19,0,0,0,19.42,4.56,7.36,7.36,0,0,0,.62-.63,6.16,6.16,0,0,0,8.67.7,5.3,5.3,0,0,0,.59-.57,6.14,6.14,0,0,0,10.7-4.06h-3.12A3,3,0,0,1,2287.87,32.76Zm-9.14,0a3,3,0,0,1-3-3h-3.36a3,3,0,0,1-6,.05h0v0h0a9.06,9.06,0,1,1,16.82-4.69,8.77,8.77,0,0,1-1.43,4.71l0,0a3,3,0,0,1-3,2.92ZM2294,23.54v3.13h-4.69V23.54Zm-35.31,3.13H2254V23.54h4.69Zm16.95-16.88h-3.12V5.11h3.12Zm12.48,9-1.56-2.71,4.06-2.34,1.56,2.7Zm-4.71-5.95-2.67-1.63,2.45-4,2.66,1.63Zm-18.34-.23-2.35-4.06L2265.43,7l2.34,4.05Zm-4.87,5.83-4-2.44,1.62-2.67,4,2.44Zm30.68,20.47H2294a35.88,35.88,0,0,1-19.45,4.6A4.59,4.59,0,0,1,2274,43a6.15,6.15,0,0,1-8.68.45,6.88,6.88,0,0,1-.54-.54,6.14,6.14,0,0,1-10.78-4h3.12a3,3,0,1,0,6,0h3.28a3,3,0,0,0,6,0h3.12a3,3,0,1,0,6,0h3.28a3,3,0,0,0,6,0Z"/><path id="traffic-jam-3" data-name="traffic-jam" class="cls-57" d="M2779.57,29.35l-1.6-5v0a3.63,3.63,0,0,0-3.43-2.44H2763a3.63,3.63,0,0,0-3.42,2.44l-1.62,5a4.63,4.63,0,0,0-1.55,1.07,4.78,4.78,0,0,0-1.36,3.34V42a3.12,3.12,0,0,0,6.22.39h15.05a3.15,3.15,0,0,0,3.11,2.74,3.07,3.07,0,0,0,3.12-2.74V33.7A4.7,4.7,0,0,0,2779.57,29.35ZM2763,25h11.57a.51.51,0,0,1,.47.34l1.18,3.64h-14.87l1.17-3.64A.54.54,0,0,1,2763,25Zm16.42,12.65a1.58,1.58,0,0,1-1.57,1.56h-18.12a1.57,1.57,0,0,1-1.57-1.56v-3.9a1.63,1.63,0,0,1,1.57-1.64h18.12a1.56,1.56,0,0,1,1.57,1.56Zm-14.15-3.59h7.11v3.12h-7.11Zm12.19,1.56a1.56,1.56,0,1,1-3.12,0,1.56,1.56,0,0,1,1.56-1.56h0a1.56,1.56,0,0,1,1.56,1.56Zm-14.14,0a1.56,1.56,0,1,1-3.12,0,1.55,1.55,0,0,1,1.56-1.56h0a1.56,1.56,0,0,1,1.56,1.56ZM2788.36,27a1.56,1.56,0,1,1,1.56-1.56,1.56,1.56,0,0,1-1.56,1.56Zm-23.52-10.24a1.57,1.57,0,1,1-1.56,1.57,1.55,1.55,0,0,1,1.56-1.57Zm-6.69,4.07a3.71,3.71,0,0,1,0-.47v-3.6a4.77,4.77,0,0,1,1.36-3.33,4.6,4.6,0,0,1,1.57-1.08l1.6-4.78a3.63,3.63,0,0,1,3.43-2.44h11.58a3.63,3.63,0,0,1,3.42,2.44l.36,1.3h-3.33c-.08-.18-.26-.62-.45-.62h-11.58a.52.52,0,0,0-.48.35v0L2764.5,12h5.27a6.29,6.29,0,0,0-.69,1.43l0,.05-.53,1.65h-5.72a1.62,1.62,0,0,0-1.56,1.63V19a6.71,6.71,0,0,0-3.1,1.8ZM2795,23.46v8.68a3.06,3.06,0,0,1-3.12,2.73,3.11,3.11,0,0,1-3.1-2.73h-3.31a7.67,7.67,0,0,0-1.41-3.13h6.25a1.58,1.58,0,0,0,1.57-1.57v-4a1.57,1.57,0,0,0-1.57-1.55h-10.1a6.73,6.73,0,0,0-5.68-3.13h14.12l-1.15-3.33a.53.53,0,0,0-.47-.35h-11.58a.52.52,0,0,0-.47.36l-1.14,3.39h-3.3l1.49-4.42a3.63,3.63,0,0,1,3.43-2.45H2787a3.64,3.64,0,0,1,3.43,2.45l1.61,4.69A4.68,4.68,0,0,1,2795,23.46ZM2782.09,27l-1-3.13h3.76V27Z"/><path class="cls-58" d="M2442.38.41V2.29a.47.47,0,0,1-.47.47h-16.75a.47.47,0,0,1-.47-.47V.41h-2.89V2.29a3.36,3.36,0,0,0,3.36,3.35h2c0,5.9,0,5.57,0,5.71l-14.73,9a5.79,5.79,0,0,0-1.55,10.94l17.29,8.09c0,.15.11.29.17.44l-2.26,5c-1.16,2.58,2.21,3.68,2.93,4.38a1.44,1.44,0,0,0,1.62-2.39l-1.74-1.18,1.51-3.35a5.26,5.26,0,0,0,5.61,0l1.51,3.35-1.74,1.18a1.44,1.44,0,0,0,1.62,2.39c.72-.69,4.09-1.8,2.93-4.38l-2.26-5a5.28,5.28,0,0,0-4.75-7.29L2425.05,27l11.08-4.25a7.25,7.25,0,0,0,3.81-10.14V5.64h2a3.35,3.35,0,0,0,3.36-3.35V.41Zm-9.2,35a2.38,2.38,0,1,1-2.38,2.38A2.38,2.38,0,0,1,2433.18,35.38ZM2430,5.64h7v4a7.23,7.23,0,0,0-7,0Zm-.15,28a5.27,5.27,0,0,0-1.71,2.48c-16-7.84-17-7.14-17.61-9.29a2.89,2.89,0,0,1,4.37-3.24Zm7.72-16.15c-1.19,3-3.52,2.44-15.47,7.46-7.36-4.95-5.2-3.51-5.62-3.78l14.77-9A4.36,4.36,0,0,1,2437.59,17.52Z"/><path class="cls-59" d="M2345.92,14.83a1.72,1.72,0,0,0-2.43,0,5.64,5.64,0,0,1-1.61,1.11l-8.16-8.16a5.64,5.64,0,0,1,1.11-1.61,1.72,1.72,0,0,0-2.44-2.43c-3,3-3.39,8-2.89,12.22-10.67-1.26-16.47,3.6-15.11,15.12-4.25-.51-9.19-.15-12.23,2.89a1.72,1.72,0,0,0,2.44,2.43,5.85,5.85,0,0,1,1.61-1.11l8.16,8.16a5.57,5.57,0,0,1-1.11,1.61,1.72,1.72,0,0,0,2.43,2.44c3-3,3.4-8,2.89-12.23,10.67,1.26,16.48-3.6,15.12-15.11,4.24.5,9.19.14,12.22-2.89A1.71,1.71,0,0,0,2345.92,14.83Zm-30.63,24.68-5.13-5.14a22,22,0,0,1,4.87.28A22,22,0,0,1,2315.29,39.51ZM2318,31.7a21.35,21.35,0,0,1-.27-4.86l5.13,5.13A21.26,21.26,0,0,1,2318,31.7Zm8.81-.65-8.16-8.16a5.38,5.38,0,0,1,2.71-2.71l8.16,8.16A5.34,5.34,0,0,1,2326.77,31.05Zm3.63-6.66-5.13-5.13a21.32,21.32,0,0,1,4.86.27A21.35,21.35,0,0,1,2330.4,24.39Zm2.67-7.8a21.35,21.35,0,0,1-.27-4.86l5.13,5.13A21.9,21.9,0,0,1,2333.07,16.59Z"/><path class="cls-60" d="M2483.83,25.1a1.38,1.38,0,0,0-.89-1l-6.61-2.2,4.69-9.39a1.35,1.35,0,0,0-.41-1.7,1.34,1.34,0,0,0-1.74.14l-13.48,13.48a1.34,1.34,0,0,0,.53,2.23l6.61,2.2-4.7,9.39a1.35,1.35,0,0,0,.42,1.7,1.34,1.34,0,0,0,1.74-.14l13.48-13.48A1.36,1.36,0,0,0,2483.83,25.1Z"/><path class="cls-61" d="M2474.43,2.41a23.17,23.17,0,0,0-17.61,8.31V9.24a1.35,1.35,0,1,0-2.7,0V15c0,1.29,1.66,1.47,1.35,1.35h.08l5.39-.34a1.34,1.34,0,0,0,1.27-1.42,1.37,1.37,0,0,0-1.43-1.27l-2.73.17a20.28,20.28,0,0,1,36.68,12,1.35,1.35,0,0,0,2.7,0A23.09,23.09,0,0,0,2474.43,2.41Z"/><path class="cls-62" d="M2493.3,34.51l-5.39.34a1.34,1.34,0,0,0-1.26,1.42,1.37,1.37,0,0,0,1.43,1.27l2.73-.17a20.29,20.29,0,0,1-36.69-12,1.35,1.35,0,1,0-2.69,0A22.94,22.94,0,0,0,2492,40.1v1.48a1.35,1.35,0,1,0,2.69,0V35.86A1.41,1.41,0,0,0,2493.3,34.51Z"/><path class="cls-63" d="M2543.15,2.91h-7.07A16.09,16.09,0,0,0,2520,19v3.57a9.72,9.72,0,0,0-6.8-2.74h-7.31a3.15,3.15,0,0,0-3.15,3.15v5.67a9.83,9.83,0,0,0,9.82,9.82H2520v9.37a1.55,1.55,0,1,0,3.09,0V43.45H2526a7.17,7.17,0,0,0,7.17-7.16v-2a2.37,2.37,0,0,0-2.36-2.37h-3.61a7.12,7.12,0,0,0-4.07,1.28V27.52h6.76a16,16,0,0,0,10.76-4.14,1.55,1.55,0,1,0-2.08-2.29,12.93,12.93,0,0,1-8.68,3.33h-4.41l17.39-16.37v3.4a12.94,12.94,0,0,1-1.65,6.33,1.54,1.54,0,0,0,2.69,1.51,16.06,16.06,0,0,0,2-7.84V5.68A2.78,2.78,0,0,0,2543.15,2.91ZM2540.5,6l-17.4,16.39V19a13,13,0,0,1,13-13Zm-17.4,34.36V39.12a4.07,4.07,0,0,1,4.07-4.07h2.88v1.24a4.08,4.08,0,0,1-4.08,4.07Zm-7.91-9.14a1.55,1.55,0,0,0,.11,2.18l2.17,2h-4.9a6.75,6.75,0,0,1-6.73-6.73V24.86l6.15,5.55a1.6,1.6,0,0,0,2.19-.11,1.56,1.56,0,0,0-.11-2.18l-5.78-5.22h4.92a6.74,6.74,0,0,1,6.73,6.73v3.79l-2.56-2.31A1.54,1.54,0,0,0,2515.19,31.22Z"/><path class="cls-64" d="M2745.34,20.77h0a2.91,2.91,0,0,0-2.07-2.65l-.18-.06-16.47-5a9.35,9.35,0,0,0-6.43,0l-16.46,5-.18.06a2.91,2.91,0,0,0-2.08,2.65c0,.52.2,1.83,2.16,2.68l4.57,1.7V35.48c0,3.37,8.18,6,15.21,6s15.2-2.61,15.2-6V25.15l3.56-1.33v5.93a1.63,1.63,0,1,0,3.26,0V21.27A1.64,1.64,0,0,0,2745.34,20.77Zm-10,14.42c-.83.85-5.32,3-12,3s-11.12-2.17-11.95-3V26.36l8.64,3.22a8.49,8.49,0,0,0,3.31.61,8.58,8.58,0,0,0,3.27-.6l8.68-3.23Zm-9.86-8.63-.08,0a6.11,6.11,0,0,1-4.11,0l-15.45-5.75,15.36-4.66.17-.06a6.06,6.06,0,0,1,4,0l.18.06L2741,20.81Z"/><path class="cls-65" d="M2743.8,33a1.63,1.63,0,0,0-1.63,1.63v4.35a1.63,1.63,0,1,0,3.26,0V34.59A1.63,1.63,0,0,0,2743.8,33Z"/><path id="Path_129-2" data-name="Path 129" class="cls-66" d="M2210.31,36.25a2,2,0,0,0,1.45.6h0a2,2,0,0,0,1.46-.6l6.11-6.1a.92.92,0,0,1,1.32,0h0l10.58,10.58a2.05,2.05,0,0,0,1.56.59V36a1,1,0,0,1-.77-.27l-8.46-8.46a.94.94,0,0,1,0-1.32h0l8.52-8.51a.91.91,0,0,1,.71-.27V11.76a2.08,2.08,0,0,0-1.51.6L2220.65,23a.94.94,0,0,1-1.32,0h0l-6.08-6.09a2.06,2.06,0,0,0-2.91,0l-8.22,8.22a2.06,2.06,0,0,0,0,2.91Zm-3.16-10.33,4-4a.94.94,0,0,1,1.32,0h0l4,4a.92.92,0,0,1,0,1.32l-4,4a.92.92,0,0,1-1.32,0h0l-4-4a.92.92,0,0,1,0-1.32Z"/><path id="Path_130-2" data-name="Path 130" class="cls-67" d="M2241.86,27.18l-4.21,4.21,2.91,2.92L2246.9,28a2.09,2.09,0,0,0,.6-1.44h-5.36A1,1,0,0,1,2241.86,27.18Z"/><path id="Path_131-2" data-name="Path 131" class="cls-68" d="M2237.67,21.67l2.92-2.92-6.39-6.39a2.12,2.12,0,0,0-1.4-.6v5.37a.88.88,0,0,1,.6.27Z"/><path id="Path_132-2" data-name="Path 132" class="cls-69" d="M2247.27,25.56a2.12,2.12,0,0,0-.38-.51l-6.3-6.3-2.92,2.91,4.19,4.19a.94.94,0,0,1,.27.69h5.37A2.24,2.24,0,0,0,2247.27,25.56Z"/><path id="Path_133-2" data-name="Path 133" class="cls-70" d="M2233.35,35.69a1,1,0,0,1-.55.27v5.36a2.06,2.06,0,0,0,.84-.22,2.12,2.12,0,0,0,.51-.38l6.41-6.41-2.91-2.92Z"/><path id="Path_129-3" data-name="Path 129" class="cls-71" d="M760.31,36.25a2,2,0,0,0,1.45.6h0a2,2,0,0,0,1.46-.6l6.11-6.1a.92.92,0,0,1,1.32,0h0l10.58,10.58a2.05,2.05,0,0,0,1.56.59V36a1,1,0,0,1-.77-.27l-8.46-8.46a.94.94,0,0,1,0-1.32h0l8.52-8.51a.91.91,0,0,1,.71-.27V11.76a2.08,2.08,0,0,0-1.51.6L770.65,23a.94.94,0,0,1-1.32,0h0l-6.08-6.09a2.06,2.06,0,0,0-2.91,0l-8.22,8.22a2.06,2.06,0,0,0,0,2.91Zm-3.16-10.33,4-4a.94.94,0,0,1,1.32,0h0l4,4a.92.92,0,0,1,0,1.32l-4,4a.92.92,0,0,1-1.32,0h0l-4-4a.92.92,0,0,1,0-1.32Z"/><path id="Path_130-3" data-name="Path 130" class="cls-72" d="M791.86,27.18l-4.21,4.21,2.91,2.92L796.9,28a2.09,2.09,0,0,0,.6-1.44h-5.36A1,1,0,0,1,791.86,27.18Z"/><path id="Path_131-3" data-name="Path 131" class="cls-73" d="M787.67,21.67l2.92-2.92-6.39-6.39a2.12,2.12,0,0,0-1.4-.6v5.37a.88.88,0,0,1,.6.27Z"/><path id="Path_132-3" data-name="Path 132" class="cls-74" d="M797.27,25.56a2.12,2.12,0,0,0-.38-.51l-6.3-6.3-2.92,2.91,4.19,4.19a.94.94,0,0,1,.27.69h5.37A2.24,2.24,0,0,0,797.27,25.56Z"/><path id="Path_133-3" data-name="Path 133" class="cls-75" d="M783.35,35.69a1,1,0,0,1-.55.27v5.36a2.06,2.06,0,0,0,.84-.22,2.12,2.12,0,0,0,.51-.38l6.41-6.41-2.91-2.92Z"/><path d="M2081.77,12.89l10.67,11.7-10.67,11.7V32.44a3,3,0,0,0-3-3h-1.07a33.18,33.18,0,0,0-20.84,7.39A18.2,18.2,0,0,1,2075,19.75h3.77a3,3,0,0,0,3-3V12.89m-3-7.74v11.6H2075a21.16,21.16,0,0,0-21.17,21.16v6.15l1.68-1.83a30,30,0,0,1,22.19-9.79h1.07V44l17.73-19.45L2078.77,5.15Z"/><g class="cls-76"><circle class="cls-77" cx="2874.56" cy="54.94" r="21.06"/><circle class="cls-78" cx="2874.56" cy="23.14" r="8.17"/></g><g class="cls-79"><circle class="cls-5" cx="2924.56" cy="54.94" r="21.06"/><circle class="cls-5" cx="2924.56" cy="23.14" r="8.17"/></g><g class="cls-80"><circle class="cls-81" cx="2974.56" cy="54.94" r="21.06"/><circle class="cls-81" cx="2974.56" cy="23.14" r="8.17"/></g><g class="cls-82"><path d="M3024.5,36.5A18.5,18.5,0,1,1,3006,55a18.52,18.52,0,0,1,18.5-18.5m0-2.5a21,21,0,1,0,21,21,21,21,0,0,0-21-21Z"/><path d="M3024.5,16.64a5.65,5.65,0,1,1-5.64,5.65,5.65,5.65,0,0,1,5.64-5.65m0-2.5a8.15,8.15,0,1,0,8.14,8.15,8.14,8.14,0,0,0-8.14-8.15Z"/></g></svg>