<svg xmlns="http://www.w3.org/2000/svg" width="257.805" height="50" viewBox="0 0 257.805 50">
  <g id="Group_26" data-name="Group 26" transform="translate(-188.912 -299.59)">
    <g id="Group_25" data-name="Group 25" transform="translate(274.481 315.436)">
      <g id="Group_23" data-name="Group 23" transform="translate(100.178 26.658)">
        <path id="Path_84" data-name="Path 84" d="M460.057,361.6h6.169a.136.136,0,0,1,.136.136v1.581a.136.136,0,0,1-.136.136H464.19a.136.136,0,0,0-.136.136v4.977a.136.136,0,0,1-.136.136h-1.591a.136.136,0,0,1-.136-.136v-4.977a.136.136,0,0,0-.136-.136h-2a.136.136,0,0,1-.136-.136V361.74A.136.136,0,0,1,460.057,361.6Z" transform="translate(-459.921 -361.604)" fill="#231815"/>
        <path id="Path_85" data-name="Path 85" d="M477.987,368.517l3.183-6.82a.137.137,0,0,1,.123-.079h.668a.136.136,0,0,1,.123.078l3.21,6.82a.136.136,0,0,1-.123.194H483.61a.136.136,0,0,1-.123-.078l-.361-.77a.137.137,0,0,0-.123-.078h-2.73a.135.135,0,0,0-.123.079l-.353.768a.135.135,0,0,1-.123.079H478.11A.136.136,0,0,1,477.987,368.517Zm3.14-2.3h1.021a.136.136,0,0,0,.123-.193l-.507-1.1a.136.136,0,0,0-.247,0l-.514,1.1A.136.136,0,0,0,481.127,366.214Z" transform="translate(-465.601 -361.608)" fill="#231815"/>
        <path id="Path_86" data-name="Path 86" d="M498.682,361.618h1.591a.136.136,0,0,1,.136.136v6.82a.136.136,0,0,1-.136.136h-1.591a.136.136,0,0,1-.136-.136v-6.82A.136.136,0,0,1,498.682,361.618Z" transform="translate(-472.073 -361.608)" fill="#231815"/>
        <path id="Path_87" data-name="Path 87" d="M516.723,366.45l-1.013,2.182a.136.136,0,0,1-.123.078h-1.169a.137.137,0,0,1-.124-.079l-3.147-6.82a.137.137,0,0,1,.124-.193h1.743a.136.136,0,0,1,.123.079l1.844,3.994a.136.136,0,0,0,.247,0l1.193-2.6a.137.137,0,0,1,.123-.079h.611a.136.136,0,0,1,.123.079l1.193,2.6a.136.136,0,0,0,.247,0l1.854-3.994a.136.136,0,0,1,.123-.079h1.743a.136.136,0,0,1,.123.193l-3.156,6.82a.136.136,0,0,1-.123.079h-1.169a.136.136,0,0,1-.123-.078l-1.022-2.182A.136.136,0,0,0,516.723,366.45Z" transform="translate(-476.033 -361.608)" fill="#231815"/>
        <path id="Path_88" data-name="Path 88" d="M535.874,368.517l3.183-6.82a.137.137,0,0,1,.123-.079h.668a.136.136,0,0,1,.123.078l3.21,6.82a.136.136,0,0,1-.123.194H541.5a.136.136,0,0,1-.123-.078l-.361-.77a.137.137,0,0,0-.123-.078h-2.73a.135.135,0,0,0-.123.079l-.353.768a.135.135,0,0,1-.123.079H536A.136.136,0,0,1,535.874,368.517Zm3.14-2.3h1.021a.136.136,0,0,0,.123-.193l-.507-1.1a.136.136,0,0,0-.247,0l-.514,1.1A.136.136,0,0,0,539.014,366.214Z" transform="translate(-483.812 -361.608)" fill="#231815"/>
        <path id="Path_89" data-name="Path 89" d="M561.5,368.671l-3.075-3.084a.136.136,0,0,0-.232.1v2.892a.136.136,0,0,1-.136.136H556.47a.136.136,0,0,1-.136-.136v-6.82a.136.136,0,0,1,.136-.136h.565a.136.136,0,0,1,.1.04l3.085,3.077a.136.136,0,0,0,.232-.1v-2.883a.136.136,0,0,1,.136-.136h1.591a.136.136,0,0,1,.136.136v6.82a.136.136,0,0,1-.136.136H561.6A.137.137,0,0,1,561.5,368.671Z" transform="translate(-490.253 -361.608)" fill="#231815"/>
      </g>
      <g id="Group_24" data-name="Group 24" transform="translate(100.178 0.82)">
        <path id="Path_90" data-name="Path 90" d="M505.969,336.708a3.057,3.057,0,1,0,3.058,3.058A3.06,3.06,0,0,0,505.969,336.708Z" transform="translate(-473.446 -327.934)" fill="none"/>
        <path id="Path_91" data-name="Path 91" d="M552.687,336.69a3.057,3.057,0,1,0,3.057,3.058A3.06,3.06,0,0,0,552.687,336.69Z" transform="translate(-488.144 -327.929)" fill="none"/>
        <path id="Path_92" data-name="Path 92" d="M474.706,335.9c-.829-.016-1.711-.368-1.711-1.164.023-.53.36-1.278,1.7-1.278a1.535,1.535,0,0,1,1.662,1.242.273.273,0,0,0,.271.212h3.264a.271.271,0,0,0,.277-.282,4.483,4.483,0,0,0-1.241-2.866,5.727,5.727,0,0,0-4.323-1.517c-3.664,0-5.352,2.511-5.352,4.477,0,2.777,1.969,4.251,5.457,4.271.862,0,1.836.42,1.836,1.245s-.86,1.249-1.757,1.249c-.633,0-2.151-.075-2.237-1.567a.27.27,0,0,0-.275-.247h-3.014a.272.272,0,0,0-.277.278c.139,3.711,3.059,4.965,5.735,4.965,3.1,0,5.754-1.614,5.754-4.458C480.471,338.04,478.963,335.988,474.706,335.9Z" transform="translate(-462.772 -325.902)" fill="#231815"/>
        <path id="Path_93" data-name="Path 93" d="M507.936,331.713a.277.277,0,0,1-.437.225,6,6,0,0,0-3.34-1,7,7,0,0,0,0,14,4.854,4.854,0,0,0,3.313-1.235.277.277,0,0,1,.465.2v.57a.276.276,0,0,0,.276.276H511.4a.276.276,0,0,0,.277-.276V331.2a.276.276,0,0,0-.277-.276h-3.184a.276.276,0,0,0-.276.276Zm-3.464,9.273a3.058,3.058,0,1,1,2.729-2.729A3.061,3.061,0,0,1,504.472,340.985Z" transform="translate(-471.636 -326.113)" fill="#231815"/>
        <rect id="Rectangle_51" data-name="Rectangle 51" width="4.042" height="18.508" rx="0.404" transform="translate(19.631 0.138)" fill="#231815"/>
        <rect id="Rectangle_52" data-name="Rectangle 52" width="4.042" height="18.508" rx="0.404" transform="translate(0 0.138)" fill="#231815"/>
        <path id="Path_94" data-name="Path 94" d="M529.041,330.641a4.305,4.305,0,0,0-2.871.831.277.277,0,0,1-.456-.21v-.154a.276.276,0,0,0-.277-.276H522a.276.276,0,0,0-.277.276v13.275a.277.277,0,0,0,.277.277h3.441a.277.277,0,0,0,.277-.277v-5.715c0-.964-.155-4.334,2.819-4.334,2.768,0,2.685,3.369,2.685,4.334v5.715a.277.277,0,0,0,.277.277h3.575a.277.277,0,0,0,.277-.277v-6.225C535.347,333.614,533.467,330.641,529.041,330.641Z" transform="translate(-479.363 -326.026)" fill="#231815"/>
        <path id="Path_95" data-name="Path 95" d="M554.653,328.344v1.151a.276.276,0,0,1-.433.228,6,6,0,0,0-3.343-1,7,7,0,1,0,0,14,4.858,4.858,0,0,0,3.312-1.235.276.276,0,0,1,.464.2v.569a.277.277,0,0,0,.277.277h3.184a.277.277,0,0,0,.277-.277V324.183a.276.276,0,0,0-.277-.276H554.93a.276.276,0,0,0-.277.276Zm-.735,7.695a3.058,3.058,0,1,1-3.354-3.354A3.068,3.068,0,0,1,553.917,336.038Z" transform="translate(-486.334 -323.907)" fill="#231815"/>
      </g>
      <path id="Path_96" data-name="Path 96" d="M361.252,336.644a3.057,3.057,0,1,0,3.057,3.058A3.06,3.06,0,0,0,361.252,336.644Z" transform="translate(-327.739 -327.094)" fill="none"/>
      <path id="Path_97" data-name="Path 97" d="M437.265,336.078a3.057,3.057,0,1,0,3.058,3.057A3.06,3.06,0,0,0,437.265,336.078Z" transform="translate(-351.653 -326.916)" fill="none"/>
      <path id="Path_98" data-name="Path 98" d="M321.13,330.719c-2.286,0-2.59-1.334-2.59-1.941a2.238,2.238,0,0,1,2.506-2.262c1.837,0,2.713,1.151,2.777,1.916a.271.271,0,0,0,.276.241h3.47a.274.274,0,0,0,.276-.276c0-2.734-2.652-5.687-6.8-5.687-5.274,0-6.608,3.815-6.608,6.068,0,3.539,2.448,5.747,6.692,5.747,2.824,0,3.2.91,3.2,1.667,0,1.5-1.241,2.381-3.17,2.381a3.191,3.191,0,0,1-3.447-2.837.27.27,0,0,0-.276-.251h-3.4a.272.272,0,0,0-.278.266,6.535,6.535,0,0,0,2.4,5,8.226,8.226,0,0,0,4.9,1.632c4.506,0,7.419-2.235,7.419-6.254C328.48,332.572,325.452,330.719,321.13,330.719Z" transform="translate(-313.759 -322.71)" fill="#231815"/>
      <path id="Path_99" data-name="Path 99" d="M339.092,340.94a3.348,3.348,0,0,0,3.367,3.214,3.312,3.312,0,0,0,3.367-3.176V339.9a.276.276,0,0,0-.276-.277h-2.156a.276.276,0,0,1-.277-.276v-5.4a.277.277,0,0,1,.277-.277h2.578a.276.276,0,0,0,.276-.277v-2.989a.276.276,0,0,0-.276-.277h-2.578a.277.277,0,0,1-.277-.277v-1.028a.276.276,0,0,0-.277-.276h-3.472a.276.276,0,0,0-.276.276v1.028a.277.277,0,0,1-.277.277H336.74a.277.277,0,0,0-.277.277V333.4a.277.277,0,0,0,.277.277h2.075a.277.277,0,0,1,.277.277Z" transform="translate(-320.902 -324.547)" fill="#231815"/>
      <path id="Path_100" data-name="Path 100" d="M363.218,343.849v.569a.277.277,0,0,0,.277.277h3.184a.277.277,0,0,0,.277-.277V331.132a.277.277,0,0,0-.277-.277h-3.184a.277.277,0,0,0-.277.277v.517a.277.277,0,0,1-.437.225,6,6,0,0,0-3.34-1,7,7,0,1,0,0,14,4.855,4.855,0,0,0,3.313-1.235A.276.276,0,0,1,363.218,343.849Zm-3.465-2.927a3.058,3.058,0,1,1,2.729-2.729A3.061,3.061,0,0,1,359.753,340.922Z" transform="translate(-325.928 -325.272)" fill="#231815"/>
      <path id="Path_101" data-name="Path 101" d="M424.707,344.319h3.442a6.84,6.84,0,0,0,7.136-6.994,7.007,7.007,0,0,0-7-7,4.858,4.858,0,0,0-3.312,1.234.276.276,0,0,1-.464-.2v-.391a.277.277,0,0,0-.277-.277h-3.184a.277.277,0,0,0-.277.277v9.219a.2.2,0,0,1-.2.2c-3.208,0-3.008-2.82-3.008-3.936v-5.576a.277.277,0,0,0-.277-.277h-3.5a.276.276,0,0,0-.277.276v7.8a1.9,1.9,0,0,1-3.788,0v-7.8a.277.277,0,0,0-.277-.277h-3.5a.277.277,0,0,0-.277.277v8.177a5.827,5.827,0,0,0,5.838,5.665,6.143,6.143,0,0,0,4.688-1.989.2.2,0,0,1,.313.028c1.016,1.557,2.809,1.571,4.07,1.568a.2.2,0,0,1,.2.2v6.97a.276.276,0,0,0,.277.276h3.184a.276.276,0,0,0,.277-.276v-6.97A.2.2,0,0,1,424.707,344.319Zm.692-5.993a3.054,3.054,0,1,1,1.89,1.888A3.054,3.054,0,0,1,425.4,338.326Z" transform="translate(-342.673 -325.106)" fill="#231815"/>
      <path id="Path_102" data-name="Path 102" d="M394.329,333.4v-2.989a.276.276,0,0,0-.276-.277h-2.579a.276.276,0,0,1-.276-.277v-1.028a.276.276,0,0,0-.277-.276h-3.472a.276.276,0,0,0-.276.276v1.028a.277.277,0,0,1-.277.277h-1.038a7.828,7.828,0,0,0-4.662,1.341.276.276,0,0,1-.455-.21v-.853a.277.277,0,0,0-.277-.277h-3.184a.277.277,0,0,0-.277.277v13.286a.277.277,0,0,0,.277.277h3.184a.277.277,0,0,0,.277-.277v-4.711a5.24,5.24,0,0,1,5.117-5.309h1.038a.277.277,0,0,1,.277.277v6.991a3.348,3.348,0,0,0,3.367,3.214,3.312,3.312,0,0,0,3.367-3.176V339.9a.276.276,0,0,0-.276-.277h-2.157a.276.276,0,0,1-.276-.276v-5.4a.276.276,0,0,1,.276-.277h2.579A.276.276,0,0,0,394.329,333.4Z" transform="translate(-333.656 -324.547)" fill="#231815"/>
    </g>
    <path id="Path_103" data-name="Path 103" d="M209.3,340.185a1.581,1.581,0,0,0,2.237,0l6.737-6.737a1.582,1.582,0,0,0,0-2.236l-6.7-6.7a1.581,1.581,0,0,0-2.236,0l-6.728,6.728a1.582,1.582,0,0,0,0,2.235Z" transform="translate(-4.162 -7.694)" fill="none"/>
    <path id="Path_104" data-name="Path 104" d="M203.783,341.007a3.479,3.479,0,0,0,2.465,1.023h0a3.484,3.484,0,0,0,2.465-1.021l10.324-10.323a1.581,1.581,0,0,1,2.236,0l17.895,17.894a3.479,3.479,0,0,0,2.648,1.006v-9.074a1.572,1.572,0,0,1-1.3-.446l-14.311-14.312a1.581,1.581,0,0,1,0-2.236l14.4-14.4a1.57,1.57,0,0,1,1.215-.454v-9.076a3.472,3.472,0,0,0-2.562,1.016l-17.981,17.981a1.581,1.581,0,0,1-2.236,0L208.753,308.3a3.485,3.485,0,0,0-4.93,0l-13.89,13.89a3.485,3.485,0,0,0,0,4.927Zm-5.341-17.462,6.728-6.728a1.581,1.581,0,0,1,2.236,0l6.7,6.7a1.582,1.582,0,0,1,0,2.236l-6.737,6.737a1.581,1.581,0,0,1-2.237,0l-6.695-6.711A1.582,1.582,0,0,1,198.442,323.544Z" transform="translate(0 0)" fill="#231815"/>
    <path id="Path_105" data-name="Path 105" d="M285.2,337.142l-7.125,7.126,4.93,4.931,10.709-10.71a3.488,3.488,0,0,0,1.021-2.426h-9.075A1.571,1.571,0,0,1,285.2,337.142Z" transform="translate(-28.052 -11.475)" fill="#96d200"/>
    <path id="Path_106" data-name="Path 106" d="M274.347,316.345l4.93-4.931L268.47,300.608a3.471,3.471,0,0,0-2.367-1.016v9.076a1.567,1.567,0,0,1,1.021.454Z" transform="translate(-24.285 -0.001)" fill="#f50"/>
    <path id="Path_107" data-name="Path 107" d="M294.367,328.368a3.407,3.407,0,0,0-.645-.866l-10.661-10.661-4.93,4.931,7.088,7.088a1.571,1.571,0,0,1,.46,1.156h9.075A3.578,3.578,0,0,0,294.367,328.368Z" transform="translate(-28.069 -5.427)" fill="#00afff"/>
    <path id="Path_108" data-name="Path 108" d="M267.037,355.307a1.565,1.565,0,0,1-.934.446v9.074a3.573,3.573,0,0,0,1.425-.371,3.388,3.388,0,0,0,.866-.644l10.845-10.845-4.93-4.931Z" transform="translate(-24.285 -15.241)" fill="#ffc800"/>
  </g>
</svg>
