<svg xmlns="http://www.w3.org/2000/svg" width="258.579" height="73.561" viewBox="0 0 258.579 73.561">
  <g id="Group_391" data-name="Group 391" transform="translate(8759 -21680)">
    <g id="Group_273" data-name="Group 273" transform="translate(-8947.912 21380.404)">
      <g id="Group_29" data-name="Group 29" transform="translate(274.737 315.484)">
        <g id="Group_27" data-name="Group 27" transform="translate(100.478 26.737)">
          <path id="Path_109" data-name="Path 109" d="M460.058,361.6h6.187a.137.137,0,0,1,.136.137v1.586a.137.137,0,0,1-.136.137H464.2a.137.137,0,0,0-.137.136v4.992a.136.136,0,0,1-.136.136h-1.6a.136.136,0,0,1-.137-.136V363.6a.136.136,0,0,0-.136-.136h-2a.137.137,0,0,1-.137-.137v-1.586a.137.137,0,0,1,.141-.141Z" transform="translate(-459.921 -361.604)" fill="#fff"/>
          <path id="Path_110" data-name="Path 110" d="M477.987,368.538l3.192-6.841a.137.137,0,0,1,.124-.079h.67a.136.136,0,0,1,.124.078l3.22,6.841a.136.136,0,0,1-.124.195h-1.567a.136.136,0,0,1-.124-.078l-.362-.773a.138.138,0,0,0-.124-.078h-2.738a.136.136,0,0,0-.124.08l-.354.771a.136.136,0,0,1-.124.079h-1.567a.136.136,0,0,1-.122-.2Zm3.149-2.31h1.024a.136.136,0,0,0,.124-.194l-.509-1.1a.136.136,0,0,0-.247,0l-.516,1.1a.137.137,0,0,0,.124.194Z" transform="translate(-465.564 -361.608)" fill="#fff"/>
          <path id="Path_111" data-name="Path 111" d="M498.682,361.618h1.6a.137.137,0,0,1,.136.137V368.6a.136.136,0,0,1-.136.136h-1.6a.136.136,0,0,1-.136-.136v-6.841a.137.137,0,0,1,.136-.141Z" transform="translate(-471.993 -361.608)" fill="#fff"/>
          <path id="Path_112" data-name="Path 112" d="M516.74,366.464l-1.016,2.189a.136.136,0,0,1-.124.078h-1.172a.137.137,0,0,1-.124-.079l-3.156-6.841a.137.137,0,0,1,.124-.194h1.748a.136.136,0,0,1,.124.079l1.85,4.006a.137.137,0,0,0,.248,0l1.2-2.61a.137.137,0,0,1,.124-.08h.613a.136.136,0,0,1,.124.08l1.2,2.611a.136.136,0,0,0,.247,0l1.85-4a.136.136,0,0,1,.124-.079h1.748a.136.136,0,0,1,.124.194l-3.165,6.841a.136.136,0,0,1-.124.079h-1.173a.137.137,0,0,1-.124-.078l-1.025-2.189a.137.137,0,0,0-.245,0Z" transform="translate(-475.928 -361.608)" fill="#fff"/>
          <path id="Path_113" data-name="Path 113" d="M535.874,368.538l3.193-6.841a.137.137,0,0,1,.124-.079h.67a.136.136,0,0,1,.124.078l3.22,6.841a.136.136,0,0,1-.124.195h-1.567a.136.136,0,0,1-.124-.078l-.362-.773a.138.138,0,0,0-.124-.078h-2.738a.136.136,0,0,0-.124.08l-.354.771a.136.136,0,0,1-.124.079H536a.136.136,0,0,1-.126-.195Zm3.149-2.31h1.024a.136.136,0,0,0,.124-.194l-.509-1.1a.136.136,0,0,0-.247,0l-.516,1.1a.137.137,0,0,0,.124.194Z" transform="translate(-483.657 -361.608)" fill="#fff"/>
          <path id="Path_114" data-name="Path 114" d="M561.52,368.692l-3.085-3.093a.136.136,0,0,0-.233.1v2.9a.136.136,0,0,1-.137.136h-1.6a.136.136,0,0,1-.136-.136v-6.841a.137.137,0,0,1,.136-.137h.567a.137.137,0,0,1,.1.04l3.094,3.086a.137.137,0,0,0,.233-.1v-2.892a.137.137,0,0,1,.136-.137h1.6a.137.137,0,0,1,.137.137V368.6a.136.136,0,0,1-.137.136h-.575a.137.137,0,0,1-.1-.044Z" transform="translate(-490.056 -361.608)" fill="#fff"/>
        </g>
        <g id="Group_28" data-name="Group 28" transform="translate(100.478 0.823)">
          <path id="Path_115" data-name="Path 115" d="M505.978,336.708a3.066,3.066,0,1,0,3.067,3.067,3.066,3.066,0,0,0-3.067-3.067Z" transform="translate(-473.358 -327.908)" fill="none"/>
          <path id="Path_116" data-name="Path 116" d="M552.7,336.69a3.066,3.066,0,1,0,3.066,3.066,3.066,3.066,0,0,0-3.066-3.066Z" transform="translate(-487.96 -327.902)" fill="none"/>
          <path id="Path_117" data-name="Path 117" d="M474.723,335.918c-.831-.016-1.716-.369-1.716-1.168.023-.532.361-1.281,1.7-1.281a1.539,1.539,0,0,1,1.667,1.246.274.274,0,0,0,.272.213h3.274a.272.272,0,0,0,.278-.283,4.5,4.5,0,0,0-1.244-2.874,5.744,5.744,0,0,0-4.336-1.521c-3.675,0-5.368,2.518-5.368,4.49,0,2.786,1.975,4.263,5.473,4.284.864,0,1.842.421,1.842,1.248s-.863,1.253-1.763,1.253c-.634,0-2.157-.076-2.244-1.572a.27.27,0,0,0-.276-.248H469.26a.273.273,0,0,0-.278.278c.14,3.723,3.068,4.98,5.753,4.98,3.107,0,5.771-1.619,5.771-4.472C480.506,338.063,478.992,336,474.723,335.918Z" transform="translate(-462.753 -325.889)" fill="#fff"/>
          <path id="Path_118" data-name="Path 118" d="M507.968,331.715a.278.278,0,0,1-.439.226,6.016,6.016,0,0,0-3.35-1,7.022,7.022,0,1,0,0,14.044,4.868,4.868,0,0,0,3.322-1.24.278.278,0,0,1,.466.2v.571a.277.277,0,0,0,.277.277h3.194a.277.277,0,0,0,.278-.277V331.2a.277.277,0,0,0-.278-.277h-3.194a.277.277,0,0,0-.277.277Zm-3.474,9.3a3.067,3.067,0,1,1,2.737-2.737,3.067,3.067,0,0,1-2.737,2.737Z" transform="translate(-471.56 -326.099)" fill="#fff"/>
          <rect id="Rectangle_53" data-name="Rectangle 53" width="4.054" height="18.563" rx="0.404" transform="translate(19.69 0.138)" fill="#fff"/>
          <rect id="Rectangle_54" data-name="Rectangle 54" width="4.054" height="18.563" rx="0.404" transform="translate(0 0.138)" fill="#fff"/>
          <path id="Path_119" data-name="Path 119" d="M529.063,330.641a4.318,4.318,0,0,0-2.88.834.278.278,0,0,1-.457-.211v-.155a.277.277,0,0,0-.278-.277H522a.277.277,0,0,0-.278.277v13.314a.278.278,0,0,0,.278.278h3.452a.278.278,0,0,0,.278-.278V338.69c0-.967-.155-4.347,2.827-4.347,2.776,0,2.693,3.379,2.693,4.347v5.733a.278.278,0,0,0,.278.278h3.586a.278.278,0,0,0,.278-.278V338.18C535.388,333.622,533.5,330.641,529.063,330.641Z" transform="translate(-479.237 -326.012)" fill="#fff"/>
          <path id="Path_120" data-name="Path 120" d="M554.685,328.357v1.154a.277.277,0,0,1-.434.229,6.018,6.018,0,0,0-3.353-1,7.022,7.022,0,0,0,0,14.044,4.873,4.873,0,0,0,3.322-1.239.277.277,0,0,1,.465.2v.571a.278.278,0,0,0,.278.278h3.194a.278.278,0,0,0,.278-.278V324.184a.277.277,0,0,0-.278-.277h-3.194a.277.277,0,0,0-.278.277Zm-.738,7.718a3.077,3.077,0,1,1-.886-2.478,3.067,3.067,0,0,1,.886,2.478Z" transform="translate(-486.162 -323.907)" fill="#fff"/>
        </g>
        <path id="Path_121" data-name="Path 121" d="M361.261,336.644a3.066,3.066,0,1,0,3.066,3.066A3.066,3.066,0,0,0,361.261,336.644Z" transform="translate(-327.647 -327.065)" fill="none"/>
        <path id="Path_122" data-name="Path 122" d="M437.274,336.078a3.066,3.066,0,1,0,3.067,3.066,3.066,3.066,0,0,0-3.067-3.066Z" transform="translate(-351.406 -326.888)" fill="none"/>
        <path id="Path_123" data-name="Path 123" d="M321.152,330.743c-2.293,0-2.6-1.338-2.6-1.947a2.245,2.245,0,0,1,2.513-2.269c1.842,0,2.722,1.155,2.785,1.922a.271.271,0,0,0,.276.241h3.481a.275.275,0,0,0,.277-.277c0-2.742-2.66-5.7-6.819-5.7-5.29,0-6.628,3.826-6.628,6.087,0,3.55,2.455,5.764,6.712,5.764,2.832,0,3.214.912,3.214,1.672,0,1.5-1.245,2.388-3.179,2.388a3.2,3.2,0,0,1-3.457-2.845.271.271,0,0,0-.277-.252h-3.415a.273.273,0,0,0-.278.267,6.554,6.554,0,0,0,2.41,5.01,8.251,8.251,0,0,0,4.915,1.637c4.52,0,7.441-2.242,7.441-6.273C328.524,332.6,325.487,330.743,321.152,330.743Z" transform="translate(-313.759 -322.71)" fill="#fff"/>
        <path id="Path_124" data-name="Path 124" d="M339.1,340.977a3.358,3.358,0,0,0,3.377,3.224,3.322,3.322,0,0,0,3.377-3.186v-1.083a.277.277,0,0,0-.277-.278h-2.163a.277.277,0,0,1-.278-.277v-5.412a.277.277,0,0,1,.278-.278H346a.277.277,0,0,0,.277-.278v-3a.277.277,0,0,0-.277-.278h-2.586a.277.277,0,0,1-.278-.278v-1.031a.277.277,0,0,0-.278-.277h-3.483a.277.277,0,0,0-.277.277v1.031a.278.278,0,0,1-.278.278h-2.082a.278.278,0,0,0-.278.278v3a.278.278,0,0,0,.278.278h2.082a.278.278,0,0,1,.278.278Z" transform="translate(-320.855 -324.535)" fill="#fff"/>
        <path id="Path_125" data-name="Path 125" d="M363.25,343.888v.571a.278.278,0,0,0,.278.278h3.194a.278.278,0,0,0,.278-.278V331.133a.278.278,0,0,0-.278-.278h-3.194a.278.278,0,0,0-.278.278v.518a.278.278,0,0,1-.438.226,6.018,6.018,0,0,0-3.35-1,7.022,7.022,0,1,0,0,14.044,4.87,4.87,0,0,0,3.322-1.239.277.277,0,0,1,.466.206Zm-3.475-2.936a3.067,3.067,0,1,1,2.737-2.737A3.067,3.067,0,0,1,359.775,340.952Z" transform="translate(-325.849 -325.256)" fill="#fff"/>
        <path id="Path_126" data-name="Path 126" d="M424.764,344.361h3.452a6.861,6.861,0,0,0,7.158-7.015,7.028,7.028,0,0,0-7.022-7.021,4.873,4.873,0,0,0-3.322,1.238.277.277,0,0,1-.465-.2v-.392a.278.278,0,0,0-.278-.278h-3.194a.278.278,0,0,0-.278.278v9.247a.2.2,0,0,1-.2.2c-3.218,0-3.017-2.829-3.017-3.948v-5.592a.277.277,0,0,0-.278-.278h-3.51a.277.277,0,0,0-.278.277V338.7a1.906,1.906,0,0,1-3.8,0v-7.824a.278.278,0,0,0-.278-.278h-3.512a.278.278,0,0,0-.278.278v8.2a5.845,5.845,0,0,0,5.856,5.682,6.161,6.161,0,0,0,4.7-1.995.2.2,0,0,1,.314.028c1.019,1.561,2.818,1.576,4.082,1.573a.2.2,0,0,1,.2.2v6.991a.277.277,0,0,0,.278.277h3.194a.277.277,0,0,0,.278-.277v-7a.2.2,0,0,1,.2-.2Zm.694-6.011a3.064,3.064,0,1,1,1.9,1.893,3.064,3.064,0,0,1-1.9-1.893Z" transform="translate(-342.485 -325.09)" fill="#fff"/>
        <path id="Path_127" data-name="Path 127" d="M394.381,333.41v-3a.277.277,0,0,0-.277-.278h-2.587a.277.277,0,0,1-.277-.278v-1.031a.277.277,0,0,0-.278-.277h-3.483a.277.277,0,0,0-.277.277v1.031a.278.278,0,0,1-.278.278h-1.041a7.852,7.852,0,0,0-4.676,1.345.277.277,0,0,1-.456-.211v-.856a.278.278,0,0,0-.278-.278H377.28a.278.278,0,0,0-.278.278v13.326a.278.278,0,0,0,.278.278h3.194a.278.278,0,0,0,.278-.278v-4.725a5.256,5.256,0,0,1,5.132-5.325h1.041a.278.278,0,0,1,.278.278v7.012a3.358,3.358,0,0,0,3.377,3.224,3.322,3.322,0,0,0,3.377-3.186v-1.083a.277.277,0,0,0-.277-.278h-2.163a.277.277,0,0,1-.277-.277v-5.412a.277.277,0,0,1,.277-.278H394.1a.277.277,0,0,0,.281-.276Z" transform="translate(-333.526 -324.535)" fill="#fff"/>
      </g>
      <path id="Path_128" data-name="Path 128" d="M209.318,340.233a1.586,1.586,0,0,0,2.244,0l6.757-6.757a1.587,1.587,0,0,0,0-2.242l-6.723-6.723a1.586,1.586,0,0,0-2.243,0L202.6,331.26a1.586,1.586,0,0,0,0,2.242Z" transform="translate(-4.135 -7.644)" fill="none"/>
      <path id="Path_129" data-name="Path 129" d="M203.827,341.131a3.49,3.49,0,0,0,2.472,1.026h0a3.494,3.494,0,0,0,2.473-1.024l10.355-10.354a1.585,1.585,0,0,1,2.242,0l17.948,17.948a3.489,3.489,0,0,0,2.656,1.009v-9.1a1.576,1.576,0,0,1-1.3-.447l-14.354-14.354a1.585,1.585,0,0,1,0-2.242l14.44-14.44a1.574,1.574,0,0,1,1.219-.455v-9.1a3.483,3.483,0,0,0-2.57,1.019l-18.035,18.034a1.585,1.585,0,0,1-2.242,0L208.81,308.335a3.5,3.5,0,0,0-4.945,0l-13.932,13.932a3.5,3.5,0,0,0,0,4.941Zm-5.357-17.515,6.749-6.749a1.586,1.586,0,0,1,2.243,0l6.723,6.723a1.587,1.587,0,0,1,0,2.242l-6.757,6.757a1.586,1.586,0,0,1-2.244,0l-6.715-6.731A1.586,1.586,0,0,1,198.47,323.616Z" fill="#fff"/>
      <path id="Path_130" data-name="Path 130" d="M285.223,337.146l-7.147,7.147,4.945,4.945L293.762,338.5a3.5,3.5,0,0,0,1.024-2.434h-9.1a1.576,1.576,0,0,1-.463,1.08Z" transform="translate(-27.869 -11.4)" fill="#96d200"/>
      <path id="Path_131" data-name="Path 131" d="M274.372,316.4l4.945-4.945-10.839-10.839A3.482,3.482,0,0,0,266.1,299.6v9.1a1.572,1.572,0,0,1,1.024.455Z" transform="translate(-24.127 -0.001)" fill="#f50"/>
      <path id="Path_132" data-name="Path 132" d="M294.415,328.4a3.418,3.418,0,0,0-.647-.869l-10.692-10.693-4.945,4.945,7.109,7.109a1.576,1.576,0,0,1,.461,1.16h9.1a3.589,3.589,0,0,0-.386-1.652Z" transform="translate(-27.886 -5.392)" fill="#00afff"/>
      <path id="Path_133" data-name="Path 133" d="M267.04,355.329a1.57,1.57,0,0,1-.937.447v9.1a3.584,3.584,0,0,0,1.429-.373,3.4,3.4,0,0,0,.869-.646l10.877-10.877-4.945-4.945Z" transform="translate(-24.127 -15.142)" fill="#ffc800"/>
    </g>
    <path id="Path_313" data-name="Path 313" d="M5.619-2.5v.111a3.112,3.112,0,0,1-.595,2A1.972,1.972,0,0,1,3.393.352a1.93,1.93,0,0,1-1.6-.7V2.438H.756v-7.9h.8l.164.738A1.86,1.86,0,0,1,3.36-5.566a1.929,1.929,0,0,1,1.667.829A3.777,3.777,0,0,1,5.619-2.5Zm-1.043.111V-2.5a2.952,2.952,0,0,0-.39-1.614A1.25,1.25,0,0,0,3.07-4.723a1.365,1.365,0,0,0-1.277.756v2.76a1.368,1.368,0,0,0,1.289.75A1.29,1.29,0,0,0,4.189-.984,2.326,2.326,0,0,0,4.576-2.391Zm3.357-.5v.117a2.64,2.64,0,0,0,.39,1.518,1.277,1.277,0,0,0,1.122.568,1.283,1.283,0,0,0,1.125-.571,2.628,2.628,0,0,0,.393-1.515v-.117a2.619,2.619,0,0,0-.4-1.509A1.283,1.283,0,0,0,9.442-4.98,1.269,1.269,0,0,0,8.323-4.4,2.649,2.649,0,0,0,7.933-2.895ZM6.89-2.777v-.117a3.115,3.115,0,0,1,.691-2.1A2.326,2.326,0,0,1,9.445-5.8,2.33,2.33,0,0,1,11.308-5,3.112,3.112,0,0,1,12-2.895v.117a3.107,3.107,0,0,1-.688,2.1,2.332,2.332,0,0,1-1.863.8,2.337,2.337,0,0,1-1.866-.8A3.1,3.1,0,0,1,6.89-2.777Zm7.142-2.93.943,3.627.123.691h.029l.146-.691,1.143-3.627h.832L18.392-2.08l.164.773h.035l.152-.773.9-3.627h1.031L19.013,0h-.838l-1.1-3.475-.234-.973-.035.006-.223.967L15.492,0h-.838L13-5.707Zm11.4,2.162a1.558,1.558,0,0,0-.334-1.04,1.188,1.188,0,0,0-.961-.4,1.134,1.134,0,0,0-.888.434,2.068,2.068,0,0,0-.46,1.107l.012.029h2.631ZM24.292.123a2.423,2.423,0,0,1-1.9-.785,2.976,2.976,0,0,1-.706-2.068v-.234a2.95,2.95,0,0,1,.718-2.019A2.219,2.219,0,0,1,24.134-5.8a2.191,2.191,0,0,1,1.737.683,2.736,2.736,0,0,1,.6,1.872v.65h-3.7l-.018.023a2.221,2.221,0,0,0,.425,1.362,1.342,1.342,0,0,0,1.116.519,2.316,2.316,0,0,0,1.617-.562l.41.674h-.006A2.761,2.761,0,0,1,24.292.123ZM28.921.006H27.884V-5.7h.926l.1.832a1.58,1.58,0,0,1,1.418-.943,1.328,1.328,0,0,1,.4.059l-.141.973-.533-.035a1.149,1.149,0,0,0-1.131.744Zm6.4-3.551a1.558,1.558,0,0,0-.334-1.04,1.188,1.188,0,0,0-.961-.4,1.134,1.134,0,0,0-.888.434,2.068,2.068,0,0,0-.46,1.107l.012.029h2.631ZM34.188.123a2.423,2.423,0,0,1-1.9-.785,2.976,2.976,0,0,1-.706-2.068v-.234A2.95,2.95,0,0,1,32.3-4.983,2.219,2.219,0,0,1,34.03-5.8a2.191,2.191,0,0,1,1.737.683,2.736,2.736,0,0,1,.6,1.872v.65h-3.7l-.018.023a2.221,2.221,0,0,0,.425,1.362,1.342,1.342,0,0,0,1.116.519,2.316,2.316,0,0,0,1.617-.562l.41.674H36.21A2.761,2.761,0,0,1,34.188.123Zm3.345-2.859a3.78,3.78,0,0,1,.592-2.232A1.88,1.88,0,0,1,39.743-5.8a1.86,1.86,0,0,1,1.576.727V-8.215h1.043V.012h-.85l-.123-.7a1.855,1.855,0,0,1-1.617.814,1.976,1.976,0,0,1-1.641-.747,3.133,3.133,0,0,1-.592-2Zm1.049,0v.111a2.373,2.373,0,0,0,.36,1.4,1.248,1.248,0,0,0,1.087.5,1.381,1.381,0,0,0,1.3-.8v-2.66a1.394,1.394,0,0,0-1.289-.773,1.2,1.2,0,0,0-1.1.595A3.11,3.11,0,0,0,38.583-2.736ZM49.809-4.957a1.4,1.4,0,0,0-1.336.867v2.473a1.416,1.416,0,0,0,1.354.9,1.255,1.255,0,0,0,1.087-.507,2.347,2.347,0,0,0,.366-1.4l-.012-.111a3.076,3.076,0,0,0-.369-1.62A1.2,1.2,0,0,0,49.809-4.957Zm2.508,2.221v.111a3.122,3.122,0,0,1-.595,2A1.966,1.966,0,0,1,50.1.123,1.858,1.858,0,0,1,48.42-.744L48.3.012h-.85V-8.215h1.037v3.193A1.861,1.861,0,0,1,50.09-5.8a1.9,1.9,0,0,1,1.635.832A3.78,3.78,0,0,1,52.316-2.736Zm1.922,5.3a3.212,3.212,0,0,1-.615-.082l.105-.82q.387.029.463.029A.635.635,0,0,0,54.7,1.43a2.632,2.632,0,0,0,.378-.691l.246-.6-2.121-5.59h1.16L55.58-1.857l.182.715H55.8l1.4-4.307h1.154l-2.4,6.58Q55.41,2.561,54.238,2.561ZM63.572-2.2A1.309,1.309,0,0,0,64.1-1.084a2.174,2.174,0,0,0,1.339.393,2.134,2.134,0,0,0,1.271-.331,1.042,1.042,0,0,0,.457-.888,1.144,1.144,0,0,0-.407-.908A3.388,3.388,0,0,0,65.365-3.4q-2.584-.621-2.584-2.273a1.85,1.85,0,0,1,.738-1.5,2.993,2.993,0,0,1,1.937-.595,2.848,2.848,0,0,1,1.96.674,2,2,0,0,1,.732,1.617l-.012.035h-.99a1.416,1.416,0,0,0-.451-1.1,1.783,1.783,0,0,0-1.245-.41,1.874,1.874,0,0,0-1.213.343,1.091,1.091,0,0,0-.419.885,1.037,1.037,0,0,0,.445.873,4.336,4.336,0,0,0,1.459.589Q68.2-3.645,68.2-1.934a1.772,1.772,0,0,1-.756,1.494,3.246,3.246,0,0,1-1.986.563A3.729,3.729,0,0,1,64.02-.149a2.5,2.5,0,0,1-1.063-.806,1.871,1.871,0,0,1-.387-1.213l.012-.029Zm6.515-4.875h1.049V-5.7h1.078v.773H71.136v3.463q0,.727.6.727a1.159,1.159,0,0,0,.387-.07l.135.709a1.27,1.27,0,0,1-.791.217A1.32,1.32,0,0,1,70.45-.27a1.7,1.7,0,0,1-.363-1.189V-4.922h-.9V-5.7h.9Zm5.267,7.2A1.884,1.884,0,0,1,74-.328a1.674,1.674,0,0,1-.469-1.266,1.478,1.478,0,0,1,.656-1.277,3.085,3.085,0,0,1,1.8-.463h1.125V-3.9A1.039,1.039,0,0,0,76.8-4.69a1.164,1.164,0,0,0-.832-.29,1.322,1.322,0,0,0-.841.249.758.758,0,0,0-.316.618h-.99l-.012-.029a1.376,1.376,0,0,1,.6-1.151A2.48,2.48,0,0,1,76.019-5.8a2.3,2.3,0,0,1,1.556.5,1.769,1.769,0,0,1,.58,1.415v2.748A4,4,0,0,0,78.3.012H77.229a5.034,5.034,0,0,1-.117-.855,2.366,2.366,0,0,1-.771.7A1.957,1.957,0,0,1,75.354.123ZM74.575-1.57h-.006a.771.771,0,0,0,.24.6,1.085,1.085,0,0,0,.744.217,1.807,1.807,0,0,0,.964-.284,1.36,1.36,0,0,0,.6-.665v-.932h-1.16a1.546,1.546,0,0,0-1,.308A.935.935,0,0,0,74.575-1.57ZM80.944.006H79.907V-5.7h.926l.1.832a1.58,1.58,0,0,1,1.418-.943,1.328,1.328,0,0,1,.4.059l-.141.973-.533-.035a1.149,1.149,0,0,0-1.131.744Zm3.322-7.078h1.049V-5.7h1.078v.773H85.315v3.463q0,.727.6.727a1.159,1.159,0,0,0,.387-.07l.135.709a1.27,1.27,0,0,1-.791.217,1.32,1.32,0,0,1-1.02-.393,1.7,1.7,0,0,1-.363-1.189V-4.922h-.9V-5.7h.9Zm5.6,7.2A1.813,1.813,0,0,1,88.4-.483a2.826,2.826,0,0,1-.51-1.849V-5.7h1.037V-2.32a2.187,2.187,0,0,0,.261,1.248.985.985,0,0,0,.847.352A1.462,1.462,0,0,0,91.5-1.582V-5.7h1.037V.012H91.6l-.07-.844A1.815,1.815,0,0,1,89.867.123ZM99.154-2.5v.111a3.112,3.112,0,0,1-.595,2,1.972,1.972,0,0,1-1.632.747,1.93,1.93,0,0,1-1.6-.7V2.438H94.291v-7.9h.8l.164.738A1.86,1.86,0,0,1,96.9-5.566a1.929,1.929,0,0,1,1.667.829A3.777,3.777,0,0,1,99.154-2.5Zm-1.043.111V-2.5a2.952,2.952,0,0,0-.39-1.614,1.25,1.25,0,0,0-1.116-.606,1.365,1.365,0,0,0-1.277.756v2.76a1.368,1.368,0,0,0,1.289.75,1.29,1.29,0,0,0,1.107-.527A2.326,2.326,0,0,0,98.111-2.391Zm7.136-5.285V0H104.2V-7.676ZM109.372-.7a1.5,1.5,0,0,0,.867-.22.678.678,0,0,0,.316-.583.7.7,0,0,0-.27-.577,2.62,2.62,0,0,0-.979-.378,4.067,4.067,0,0,1-1.585-.624,1.281,1.281,0,0,1-.507-1.075,1.457,1.457,0,0,1,.6-1.169,2.4,2.4,0,0,1,1.559-.483,2.315,2.315,0,0,1,1.556.507,1.5,1.5,0,0,1,.565,1.257l-.012.029h-.99a.886.886,0,0,0-.319-.68,1.206,1.206,0,0,0-.838-.287,1.227,1.227,0,0,0-.8.231.73.73,0,0,0-.281.589.643.643,0,0,0,.246.545,2.657,2.657,0,0,0,.967.34,4.1,4.1,0,0,1,1.617.642,1.281,1.281,0,0,1,.516,1.063,1.476,1.476,0,0,1-.612,1.23,2.637,2.637,0,0,1-1.644.469,2.49,2.49,0,0,1-1.667-.539,1.57,1.57,0,0,1-.606-1.307l.012-.029h.99a.992.992,0,0,0,.4.794,1.517,1.517,0,0,0,.917.267Zm4.886-7.523V0h-1.037V-8.227Zm3.463,8.35a1.884,1.884,0,0,1-1.359-.451,1.674,1.674,0,0,1-.469-1.266,1.478,1.478,0,0,1,.656-1.277,3.085,3.085,0,0,1,1.8-.463h1.125V-3.9a1.039,1.039,0,0,0-.308-.794,1.164,1.164,0,0,0-.832-.29,1.322,1.322,0,0,0-.841.249.758.758,0,0,0-.316.618h-.99l-.012-.029a1.376,1.376,0,0,1,.6-1.151,2.48,2.48,0,0,1,1.605-.507,2.3,2.3,0,0,1,1.556.5,1.769,1.769,0,0,1,.58,1.415v2.748a4,4,0,0,0,.146,1.148H119.6a5.034,5.034,0,0,1-.117-.855,2.366,2.366,0,0,1-.771.7A1.957,1.957,0,0,1,117.721.123Zm-.779-1.693h-.006a.771.771,0,0,0,.24.6,1.085,1.085,0,0,0,.744.217,1.807,1.807,0,0,0,.964-.284,1.36,1.36,0,0,0,.6-.665v-.932h-1.16a1.546,1.546,0,0,0-1,.308A.935.935,0,0,0,116.942-1.57Zm5.332-4.137h.926l.076.85a1.881,1.881,0,0,1,1.693-.955,1.841,1.841,0,0,1,1.436.548,2.4,2.4,0,0,1,.5,1.661V0h-1.037V-3.58a1.568,1.568,0,0,0-.293-1.066,1.177,1.177,0,0,0-.914-.322,1.488,1.488,0,0,0-.791.211,1.554,1.554,0,0,0-.557.6V0h-1.037Zm6.135,2.971A3.78,3.78,0,0,1,129-4.969a1.88,1.88,0,0,1,1.617-.832,1.86,1.86,0,0,1,1.576.727V-8.215h1.043V.012h-.85l-.123-.7a1.855,1.855,0,0,1-1.617.814,1.976,1.976,0,0,1-1.641-.747,3.133,3.133,0,0,1-.592-2Zm1.049,0v.111a2.373,2.373,0,0,0,.36,1.4,1.248,1.248,0,0,0,1.087.5,1.381,1.381,0,0,0,1.3-.8v-2.66a1.394,1.394,0,0,0-1.289-.773,1.2,1.2,0,0,0-1.1.595A3.11,3.11,0,0,0,129.457-2.736Zm14.255-4.939v.814h-2.467V0h-1.037V-6.861h-2.461v-.814ZM149.4,0l-.721-1.98h-3.217L144.732,0h-1.061l2.971-7.676h.891L150.451,0ZM147.07-6.346l-1.289,3.5h2.584l-1.266-3.5Zm5.771-1.33V0H151.8V-7.676Zm2.566,0,1.172,5.016.141.961.035.006.205-.967,1.406-5.016h.92L160.7-2.66l.211.99h.029l.152-.99,1.143-5.016h1.043L161.431,0H160.5l-1.512-5.326-.135-.691h-.035l-.129.691L157.148,0h-.926l-1.846-7.676ZM169.47,0l-.721-1.98h-3.217L164.805,0h-1.061l2.971-7.676h.891L170.524,0Zm-2.326-6.346-1.289,3.5h2.584l-1.266-3.5Zm10.482-1.33V0h-1.037l-3.7-5.936-.035.006V0h-1.037V-7.676h1.037l3.7,5.924.035-.012V-7.676Z" transform="translate(-8718.756 21751)" fill="#fff" opacity="0.5"/>
  </g>
</svg>
