<svg xmlns="http://www.w3.org/2000/svg" width="258.576" height="50.15" viewBox="0 0 258.576 50.15">
  <g id="Group_273" data-name="Group 273" transform="translate(-188.912 -299.59)">
    <g id="Group_29" data-name="Group 29" transform="translate(274.737 315.484)">
      <g id="Group_27" data-name="Group 27" transform="translate(100.478 26.737)">
        <path id="Path_109" data-name="Path 109" d="M460.058,361.6h6.187a.137.137,0,0,1,.136.137v1.586a.137.137,0,0,1-.136.137H464.2a.137.137,0,0,0-.137.136v4.992a.136.136,0,0,1-.136.136h-1.6a.136.136,0,0,1-.137-.136V363.6a.136.136,0,0,0-.136-.136h-2a.137.137,0,0,1-.137-.137v-1.586A.137.137,0,0,1,460.058,361.6Z" transform="translate(-459.921 -361.604)" fill="#fff"/>
        <path id="Path_110" data-name="Path 110" d="M477.987,368.538l3.192-6.841a.137.137,0,0,1,.124-.079h.67a.136.136,0,0,1,.124.078l3.22,6.841a.136.136,0,0,1-.124.195h-1.567a.136.136,0,0,1-.124-.078l-.362-.773a.138.138,0,0,0-.124-.078h-2.738a.136.136,0,0,0-.124.08l-.354.771a.136.136,0,0,1-.124.079h-1.567A.136.136,0,0,1,477.987,368.538Zm3.149-2.31h1.024a.136.136,0,0,0,.124-.194l-.509-1.1a.136.136,0,0,0-.247,0l-.516,1.1A.137.137,0,0,0,481.136,366.228Z" transform="translate(-465.564 -361.608)" fill="#fff"/>
        <path id="Path_111" data-name="Path 111" d="M498.682,361.618h1.6a.137.137,0,0,1,.136.137V368.6a.136.136,0,0,1-.136.136h-1.6a.136.136,0,0,1-.136-.136v-6.841A.137.137,0,0,1,498.682,361.618Z" transform="translate(-471.993 -361.608)" fill="#fff"/>
        <path id="Path_112" data-name="Path 112" d="M516.74,366.464l-1.016,2.189a.136.136,0,0,1-.124.078h-1.172a.137.137,0,0,1-.124-.079l-3.156-6.841a.137.137,0,0,1,.124-.194h1.748a.136.136,0,0,1,.124.079l1.85,4.006a.137.137,0,0,0,.248,0l1.2-2.61a.137.137,0,0,1,.124-.08h.613a.136.136,0,0,1,.124.08l1.2,2.611a.136.136,0,0,0,.247,0L520.6,361.7a.136.136,0,0,1,.124-.079h1.748a.136.136,0,0,1,.124.194l-3.165,6.841a.136.136,0,0,1-.124.079h-1.173a.137.137,0,0,1-.124-.078l-1.025-2.189A.137.137,0,0,0,516.74,366.464Z" transform="translate(-475.928 -361.608)" fill="#fff"/>
        <path id="Path_113" data-name="Path 113" d="M535.874,368.538l3.193-6.841a.137.137,0,0,1,.124-.079h.67a.136.136,0,0,1,.124.078l3.22,6.841a.136.136,0,0,1-.124.195h-1.567a.136.136,0,0,1-.124-.078l-.362-.773a.138.138,0,0,0-.124-.078h-2.738a.136.136,0,0,0-.124.08l-.354.771a.136.136,0,0,1-.124.079H536A.136.136,0,0,1,535.874,368.538Zm3.149-2.31h1.024a.136.136,0,0,0,.124-.194l-.509-1.1a.136.136,0,0,0-.247,0l-.516,1.1A.137.137,0,0,0,539.023,366.228Z" transform="translate(-483.657 -361.608)" fill="#fff"/>
        <path id="Path_114" data-name="Path 114" d="M561.52,368.692l-3.085-3.093a.136.136,0,0,0-.233.1v2.9a.136.136,0,0,1-.137.136h-1.6a.136.136,0,0,1-.136-.136v-6.841a.137.137,0,0,1,.136-.137h.567a.137.137,0,0,1,.1.04l3.094,3.086a.137.137,0,0,0,.233-.1v-2.892a.137.137,0,0,1,.136-.137h1.6a.137.137,0,0,1,.137.137V368.6a.136.136,0,0,1-.137.136h-.575A.137.137,0,0,1,561.52,368.692Z" transform="translate(-490.056 -361.608)" fill="#fff"/>
      </g>
      <g id="Group_28" data-name="Group 28" transform="translate(100.478 0.823)">
        <path id="Path_115" data-name="Path 115" d="M505.978,336.708a3.066,3.066,0,1,0,3.067,3.067A3.07,3.07,0,0,0,505.978,336.708Z" transform="translate(-473.358 -327.908)" fill="none"/>
        <path id="Path_116" data-name="Path 116" d="M552.7,336.69a3.066,3.066,0,1,0,3.066,3.067A3.07,3.07,0,0,0,552.7,336.69Z" transform="translate(-487.96 -327.902)" fill="none"/>
        <path id="Path_117" data-name="Path 117" d="M474.723,335.918c-.831-.016-1.716-.369-1.716-1.168.023-.532.361-1.281,1.7-1.281a1.539,1.539,0,0,1,1.667,1.246.274.274,0,0,0,.272.213h3.274a.272.272,0,0,0,.278-.283,4.5,4.5,0,0,0-1.244-2.874,5.744,5.744,0,0,0-4.336-1.521c-3.675,0-5.368,2.518-5.368,4.49,0,2.786,1.975,4.263,5.473,4.284.864,0,1.842.421,1.842,1.248s-.863,1.253-1.763,1.253c-.634,0-2.157-.076-2.244-1.572a.27.27,0,0,0-.276-.248H469.26a.273.273,0,0,0-.278.278c.14,3.723,3.068,4.98,5.753,4.98,3.107,0,5.771-1.619,5.771-4.472C480.506,338.063,478.992,336,474.723,335.918Z" transform="translate(-462.753 -325.889)" fill="#fff"/>
        <path id="Path_118" data-name="Path 118" d="M507.968,331.715a.278.278,0,0,1-.439.226,6.016,6.016,0,0,0-3.35-1,7.022,7.022,0,1,0,0,14.043,4.868,4.868,0,0,0,3.322-1.239.278.278,0,0,1,.466.2v.571a.277.277,0,0,0,.277.277h3.194a.277.277,0,0,0,.278-.277V331.2a.277.277,0,0,0-.278-.277h-3.194a.277.277,0,0,0-.277.277Zm-3.474,9.3a3.067,3.067,0,1,1,2.737-2.737A3.07,3.07,0,0,1,504.494,341.015Z" transform="translate(-471.56 -326.099)" fill="#fff"/>
        <rect id="Rectangle_53" data-name="Rectangle 53" width="4.054" height="18.563" rx="0.404" transform="translate(19.69 0.138)" fill="#fff"/>
        <rect id="Rectangle_54" data-name="Rectangle 54" width="4.054" height="18.563" rx="0.404" transform="translate(0 0.138)" fill="#fff"/>
        <path id="Path_119" data-name="Path 119" d="M529.063,330.641a4.318,4.318,0,0,0-2.88.834.278.278,0,0,1-.457-.211v-.155a.277.277,0,0,0-.278-.277H522a.277.277,0,0,0-.278.277v13.314a.278.278,0,0,0,.278.278h3.452a.278.278,0,0,0,.278-.278v-5.733c0-.967-.155-4.347,2.827-4.347,2.776,0,2.693,3.379,2.693,4.347v5.733a.278.278,0,0,0,.278.278h3.586a.278.278,0,0,0,.278-.278V338.18C535.388,333.622,533.5,330.641,529.063,330.641Z" transform="translate(-479.237 -326.012)" fill="#fff"/>
        <path id="Path_120" data-name="Path 120" d="M554.685,328.357v1.154a.277.277,0,0,1-.434.229,6.017,6.017,0,0,0-3.353-1,7.022,7.022,0,1,0,0,14.044,4.873,4.873,0,0,0,3.322-1.239.277.277,0,0,1,.465.2v.571a.278.278,0,0,0,.278.278h3.194a.278.278,0,0,0,.278-.278V324.184a.277.277,0,0,0-.278-.277h-3.194a.277.277,0,0,0-.278.277Zm-.738,7.718a3.067,3.067,0,1,1-3.364-3.364A3.077,3.077,0,0,1,553.947,336.075Z" transform="translate(-486.162 -323.907)" fill="#fff"/>
      </g>
      <path id="Path_121" data-name="Path 121" d="M361.261,336.644a3.066,3.066,0,1,0,3.066,3.067A3.07,3.07,0,0,0,361.261,336.644Z" transform="translate(-327.647 -327.065)" fill="none"/>
      <path id="Path_122" data-name="Path 122" d="M437.274,336.078a3.066,3.066,0,1,0,3.067,3.066A3.069,3.069,0,0,0,437.274,336.078Z" transform="translate(-351.406 -326.888)" fill="none"/>
      <path id="Path_123" data-name="Path 123" d="M321.152,330.743c-2.293,0-2.6-1.338-2.6-1.947a2.245,2.245,0,0,1,2.513-2.269c1.842,0,2.722,1.155,2.785,1.922a.271.271,0,0,0,.276.241h3.481a.275.275,0,0,0,.277-.277c0-2.742-2.66-5.7-6.819-5.7-5.29,0-6.628,3.826-6.628,6.087,0,3.55,2.455,5.764,6.712,5.764,2.832,0,3.214.912,3.214,1.672,0,1.5-1.245,2.388-3.179,2.388a3.2,3.2,0,0,1-3.457-2.845.271.271,0,0,0-.277-.252h-3.415a.273.273,0,0,0-.278.267,6.554,6.554,0,0,0,2.41,5.01,8.251,8.251,0,0,0,4.915,1.637c4.52,0,7.441-2.242,7.441-6.273C328.524,332.6,325.487,330.743,321.152,330.743Z" transform="translate(-313.759 -322.71)" fill="#fff"/>
      <path id="Path_124" data-name="Path 124" d="M339.1,340.977a3.358,3.358,0,0,0,3.377,3.224,3.322,3.322,0,0,0,3.377-3.186v-1.083a.277.277,0,0,0-.277-.278h-2.163a.277.277,0,0,1-.278-.277v-5.412a.277.277,0,0,1,.278-.278H346a.277.277,0,0,0,.277-.278v-3a.277.277,0,0,0-.277-.278h-2.586a.277.277,0,0,1-.278-.278v-1.031a.277.277,0,0,0-.278-.277h-3.483a.277.277,0,0,0-.277.277v1.031a.278.278,0,0,1-.278.278h-2.082a.278.278,0,0,0-.278.278v3a.278.278,0,0,0,.278.278h2.082a.278.278,0,0,1,.278.278Z" transform="translate(-320.855 -324.535)" fill="#fff"/>
      <path id="Path_125" data-name="Path 125" d="M363.25,343.888v.571a.278.278,0,0,0,.278.278h3.194a.278.278,0,0,0,.278-.278V331.133a.278.278,0,0,0-.278-.278h-3.194a.278.278,0,0,0-.278.278v.518a.278.278,0,0,1-.438.226,6.018,6.018,0,0,0-3.35-1,7.022,7.022,0,1,0,0,14.044,4.87,4.87,0,0,0,3.322-1.239A.277.277,0,0,1,363.25,343.888Zm-3.475-2.936a3.067,3.067,0,1,1,2.737-2.737A3.07,3.07,0,0,1,359.775,340.952Z" transform="translate(-325.849 -325.256)" fill="#fff"/>
      <path id="Path_126" data-name="Path 126" d="M424.764,344.361h3.452a6.861,6.861,0,0,0,7.158-7.015,7.028,7.028,0,0,0-7.022-7.021,4.873,4.873,0,0,0-3.322,1.238.277.277,0,0,1-.465-.2v-.392a.278.278,0,0,0-.278-.278h-3.194a.278.278,0,0,0-.278.278v9.247a.2.2,0,0,1-.2.2c-3.218,0-3.017-2.829-3.017-3.948v-5.592a.277.277,0,0,0-.278-.278H413.81a.277.277,0,0,0-.278.277V338.7a1.906,1.906,0,0,1-3.8,0v-7.824a.278.278,0,0,0-.278-.278h-3.512a.278.278,0,0,0-.278.278v8.2a5.845,5.845,0,0,0,5.856,5.682,6.161,6.161,0,0,0,4.7-1.995.2.2,0,0,1,.314.028c1.019,1.561,2.818,1.576,4.082,1.573a.2.2,0,0,1,.2.2v6.991a.277.277,0,0,0,.278.277h3.194a.277.277,0,0,0,.278-.277V344.56A.2.2,0,0,1,424.764,344.361Zm.694-6.011a3.064,3.064,0,1,1,1.9,1.893A3.063,3.063,0,0,1,425.459,338.35Z" transform="translate(-342.485 -325.09)" fill="#fff"/>
      <path id="Path_127" data-name="Path 127" d="M394.381,333.41v-3a.277.277,0,0,0-.277-.278h-2.587a.277.277,0,0,1-.277-.278v-1.031a.277.277,0,0,0-.278-.277h-3.483a.277.277,0,0,0-.277.277v1.031a.278.278,0,0,1-.278.278h-1.041a7.852,7.852,0,0,0-4.676,1.345.277.277,0,0,1-.456-.211v-.856a.278.278,0,0,0-.278-.278H377.28a.278.278,0,0,0-.278.278v13.326a.278.278,0,0,0,.278.278h3.194a.278.278,0,0,0,.278-.278v-4.725a5.256,5.256,0,0,1,5.132-5.325h1.041a.278.278,0,0,1,.278.278v7.012a3.358,3.358,0,0,0,3.377,3.224,3.322,3.322,0,0,0,3.377-3.186v-1.083a.277.277,0,0,0-.277-.278h-2.163a.277.277,0,0,1-.277-.277v-5.412a.277.277,0,0,1,.277-.278H394.1A.277.277,0,0,0,394.381,333.41Z" transform="translate(-333.526 -324.535)" fill="#fff"/>
    </g>
    <path id="Path_128" data-name="Path 128" d="M209.318,340.233a1.586,1.586,0,0,0,2.244,0l6.757-6.757a1.587,1.587,0,0,0,0-2.242l-6.723-6.723a1.586,1.586,0,0,0-2.243,0L202.6,331.26a1.586,1.586,0,0,0,0,2.242Z" transform="translate(-4.135 -7.644)" fill="none"/>
    <path id="Path_129" data-name="Path 129" d="M203.827,341.131a3.49,3.49,0,0,0,2.472,1.026h0a3.494,3.494,0,0,0,2.473-1.024l10.355-10.354a1.585,1.585,0,0,1,2.242,0l17.948,17.948a3.489,3.489,0,0,0,2.656,1.009v-9.1a1.576,1.576,0,0,1-1.305-.447l-14.354-14.354a1.585,1.585,0,0,1,0-2.242l14.44-14.44a1.574,1.574,0,0,1,1.219-.455v-9.1a3.483,3.483,0,0,0-2.57,1.019l-18.035,18.034a1.585,1.585,0,0,1-2.242,0l-10.316-10.316a3.5,3.5,0,0,0-4.945,0l-13.932,13.932a3.5,3.5,0,0,0,0,4.941Zm-5.357-17.515,6.749-6.749a1.586,1.586,0,0,1,2.243,0l6.723,6.723a1.587,1.587,0,0,1,0,2.242l-6.757,6.757a1.586,1.586,0,0,1-2.244,0l-6.715-6.731A1.586,1.586,0,0,1,198.47,323.616Z" transform="translate(0)" fill="#fff"/>
    <path id="Path_130" data-name="Path 130" d="M285.223,337.146l-7.147,7.147,4.945,4.945L293.762,338.5a3.5,3.5,0,0,0,1.024-2.434h-9.1A1.576,1.576,0,0,1,285.223,337.146Z" transform="translate(-27.869 -11.4)" fill="#96d200"/>
    <path id="Path_131" data-name="Path 131" d="M274.372,316.4l4.945-4.945-10.839-10.839a3.482,3.482,0,0,0-2.374-1.019v9.1a1.572,1.572,0,0,1,1.024.455Z" transform="translate(-24.127 -0.001)" fill="#f50"/>
    <path id="Path_132" data-name="Path 132" d="M294.415,328.4a3.417,3.417,0,0,0-.647-.869l-10.692-10.693-4.945,4.945,7.109,7.109a1.576,1.576,0,0,1,.461,1.16h9.1A3.589,3.589,0,0,0,294.415,328.4Z" transform="translate(-27.886 -5.392)" fill="#00afff"/>
    <path id="Path_133" data-name="Path 133" d="M267.04,355.329a1.57,1.57,0,0,1-.937.447v9.1a3.584,3.584,0,0,0,1.429-.373,3.4,3.4,0,0,0,.869-.646l10.877-10.877-4.945-4.945Z" transform="translate(-24.127 -15.142)" fill="#ffc800"/>
  </g>
</svg>
