<svg xmlns="http://www.w3.org/2000/svg" xmlns:xlink="http://www.w3.org/1999/xlink" width="177.277" height="51.3" viewBox="0 0 177.277 51.3">
  <defs>
    <linearGradient id="linear-gradient" x1="-0.034" x2="0.905" y2="0.5" gradientUnits="objectBoundingBox">
      <stop offset="0" stop-color="#2af598"/>
      <stop offset="1" stop-color="#009efd"/>
    </linearGradient>
  </defs>
  <g id="Group_392" data-name="Group 392" transform="translate(10369.811 -14642.7)">
    <g id="Group_384" data-name="Group 384" transform="translate(-10369.811 14642.7)">
      <path id="Path_311" data-name="Path 311" d="M15.1,2.9a45.664,45.664,0,0,1,6.8,7.5l-2,1.5a21.169,21.169,0,0,0-1.5-2.1c-14.3.8-16,.8-17.1,1.2A16.8,16.8,0,0,0,.5,8.6c.6,0,1.2-.6,2.1-1.4A46.684,46.684,0,0,0,8.3,0l2.4,1A39.728,39.728,0,0,1,4.5,8.2l12.1-.5c-1.1-1.2-2.3-2.5-3.4-3.5ZM2.4,13H19.2V24H16.6V22.7H4.8v1.4H2.4Zm2.4,2.3v5H16.6v-5H4.8Z"/>
      <path id="Path_312" data-name="Path 312" d="M28.5,11.8a18.635,18.635,0,0,0-3.7-2.7l1.3-1.7a15.65,15.65,0,0,1,3.8,2.5ZM25.3,22.6a78.6,78.6,0,0,0,3.2-8.2l1.9,1.2c-.8,2.7-2,5.8-3,8.2ZM28.9,5.1a15.7,15.7,0,0,0-3.6-2.9L26.7.6a15.379,15.379,0,0,1,3.7,2.7ZM32,10a11.98,11.98,0,0,1-1.1,3.5,10.475,10.475,0,0,0-1.1-.8,7.976,7.976,0,0,0,.9-3.1Zm3.3-1.1a6.89,6.89,0,0,1-.3-.8c-3.4.4-4.1.6-4.4.8a9.744,9.744,0,0,0-.5-1.1,2.372,2.372,0,0,0,1.2-.9,19.742,19.742,0,0,0,1.5-1.8,17.336,17.336,0,0,0-2.2.3,5.359,5.359,0,0,0-.5-1.1,1.849,1.849,0,0,0,.9-.7A13.109,13.109,0,0,0,32.5.3l1.4.5a17.79,17.79,0,0,1-1.7,3l1.5-.1c.2-.4.5-.8.7-1.2l1.4.6a23.215,23.215,0,0,1-3,4L34.6,7c-.1-.3-.3-.5-.4-.8l1.1-.4a14.437,14.437,0,0,1,1.2,2.6Zm12.3,9.9a8.144,8.144,0,0,1-.2.9c-.4,2.2-1,3.3-1.6,3.8a3.593,3.593,0,0,1-2.2.6c-.8,0-2.4,0-4-.1a3.115,3.115,0,0,0-.7-1.8,32.972,32.972,0,0,0,3.9.2c.6,0,.8,0,1.1-.2.4-.3.6-.8.9-1.8H31.6c.4-1.2.8-2.8,1.1-4.1H44.1V15.2H31.9V13.7H46.4v4H34.7l-.3,1.1ZM32.9,13.1a12.441,12.441,0,0,0-.5-3.1l1.1-.3a12.238,12.238,0,0,1,.6,3Zm2.3-.7a12.089,12.089,0,0,0-.8-2.8l1-.4a12.171,12.171,0,0,1,.9,2.7Zm7-8.2H36V2.8h2.6a17.6,17.6,0,0,0-.9-2L39.3.4a7.454,7.454,0,0,1,1,2l-1.2.3h3V4.2ZM36.8,9h4.9v3.8H36.8Zm4.8-2.8H36.8V5h4.8Zm-4.8.7h4.8V8.1H36.8Zm1.5,4.7h1.8V10.2H38.3ZM44,9.9a11.98,11.98,0,0,1-1.1,3.5c-.3-.2-.8-.6-1.1-.8a8.017,8.017,0,0,0,.9-3ZM47.4,9a4.649,4.649,0,0,1-.3-.9c-3.4.5-4.1.6-4.4.8a9.743,9.743,0,0,0-.5-1.1,2.372,2.372,0,0,0,1.2-.9c.2-.3.8-.9,1.4-1.8-1.5.2-1.9.2-2.2.4a5.359,5.359,0,0,0-.5-1.1c.3,0,.5-.3.8-.7A11.536,11.536,0,0,0,44.5.5l1.4.5a10.532,10.532,0,0,1-1.7,2.9l1.5-.1.6-1.2,1.4.6a23.215,23.215,0,0,1-3,4L46.6,7a5.937,5.937,0,0,1-.4-.8l1.1-.4a16.246,16.246,0,0,1,1.3,2.7ZM45,13.3a15.512,15.512,0,0,0-.5-3.4l1.1-.3a14.461,14.461,0,0,1,.6,3.3Zm2.5-4.1a11.636,11.636,0,0,1,1,3.2l-1.1.5a11.245,11.245,0,0,0-1-3.3Z"/>
      <path id="Path_313" data-name="Path 313" d="M55.2,16.8A28.009,28.009,0,0,1,52.6,22a9.908,9.908,0,0,0-1.7-1.1,15.994,15.994,0,0,0,2.4-4.7Zm3.3-1.7v8.8H56.2V15.1h-5V13h5V10.6H51v-2h2.8a16.455,16.455,0,0,0-.9-3.3l2-.5a23.265,23.265,0,0,1,1,3.2L54,8.7h4.1a28.445,28.445,0,0,0,1.3-3.8l2.2.5c-.4,1.1-.9,2.3-1.3,3.3h3v2H58.5v2.4h4.4v2.1H58.5ZM62.9,4.9H51.5v-2h4.8c-.3-.7-.6-1.6-.9-2.2L57.8.1c.4.9,1,2,1.3,2.8H63v2ZM61,16a26.664,26.664,0,0,1,2.2,3.9l-1.7,1a22.124,22.124,0,0,0-2.1-4Zm13.7-4.9H72V24H69.6V11.1h-3v.6c0,3.7-.3,8.9-2.7,12.2a10.991,10.991,0,0,0-1.8-1.4c2.1-3,2.2-7.4,2.2-10.8v-9a41.742,41.742,0,0,0,8-2.1l1.9,1.8a38.356,38.356,0,0,1-7.6,1.9V8.8h8.1Z"/>
      <path id="Path_314" data-name="Path 314" d="M81,16.1c-.1.3-.1.7-.2,1h9.8v6.8H88.5V23H82.9v.9H80.8V17.4a18.4,18.4,0,0,1-2,5.7,10.244,10.244,0,0,0-2.1-1c2-3.2,2.3-7.6,2.3-10.6V8.3H89.9v7.8ZM86.4,1.2a4.347,4.347,0,0,0-.4.7c2,1.2,4.3,2.6,5.5,3.5l-1.2,2c-1.2-1-3.6-2.5-5.6-3.8a21.978,21.978,0,0,1-2.3,2h5V7.1H82V6a24.844,24.844,0,0,1-4,2.6,18.6,18.6,0,0,0-1.3-2.3c2.9-1.4,5.9-3.5,7.5-6Zm1.3,13.2V12.9H81.2c0,.5-.1,1-.1,1.5ZM81.2,10v1.4h6.5V10Zm1.6,8.8v2.3h5.6V18.8Zm12-1.5H92.5V3h2.3ZM99.6.3V21c0,1.4-.3,2.1-1.1,2.5a10.992,10.992,0,0,1-4.3.5,8.454,8.454,0,0,0-.8-2.4,15.975,15.975,0,0,0,3.2,0c.4,0,.6-.1.6-.6V.3Z"/>
    </g>
    <g id="Group_385" data-name="Group 385" transform="translate(-10369.811 14642.7)">
      <path id="Path_315" data-name="Path 315" d="M6,37.4H0v-.9H6ZM7.5,48.7A31.352,31.352,0,0,1,1,51.2a6.034,6.034,0,0,0-.8-.8,32.032,32.032,0,0,0,6.4-2.1ZM5.5,34H.5v-.9h5ZM2.9,39.3H16.7V48H2.9Zm1,2.6H15.6V40.1H3.9Zm0,2.6H15.6V42.7H3.9Zm0,2.6H15.6V45.2H3.9ZM9.5,34.2a14.647,14.647,0,0,1-1.7,2.4A4.173,4.173,0,0,0,7,36a10.2,10.2,0,0,0,2.5-4.3l1,.2c-.2.5-.3.9-.5,1.4h8.2l.7.3c-.5,1-1.2,2.2-1.7,3l-.8-.3a17.588,17.588,0,0,0,1.2-2H13.5v.2a3.751,3.751,0,0,1-.1,1c1.1,1.4,3.6,2.4,6.4,2.7a4.173,4.173,0,0,0-.6.8,10.549,10.549,0,0,1-6.1-2.8c-.6,1.1-2.3,2.2-6.2,3a2.407,2.407,0,0,0-.6-.8c5.8-.9,6.3-2.7,6.3-3.9v-.2H9.5Zm3.1,14.1a60.831,60.831,0,0,1,6.5,2.2l-.9.6a43.3,43.3,0,0,0-6.3-2.3Z"/>
      <path id="Path_316" data-name="Path 316" d="M29.3,36.4H21.6v-.9h7.7Zm-.8,13.5H23.3V51h-.9V43.8h6v6.1ZM22.4,39.1v-.9h6v.9Zm0,1.9h6v.9h-6Zm.9,3.7V49h4.3V44.7Zm2.2-9.8a13.342,13.342,0,0,0-1.6-2.8l.8-.5a20.933,20.933,0,0,1,1.6,2.7ZM38.7,33c-.1,9.7-.2,16.4,1.3,16.8.2,0,.3-1.3.4-3a3.735,3.735,0,0,0,.7.6c-.2,3-.6,3.6-1.4,3.4-2.1-.6-2-7.3-2-16.8H33.5v6.8h3.3v1H33.5v9.5h-1V41.8H29.3v-1h3.2V34h-3V33Z"/>
      <path id="Path_317" data-name="Path 317" d="M62.4,43.4H53.3v7.9h-1V43.4h-9v-1h9V34.3H44.4v-1H61.2v1H53.3v8.1h9.1ZM46.9,35.5a24.361,24.361,0,0,1,2.2,5.2l-1,.4a24.361,24.361,0,0,0-2.2-5.2ZM56,40.9a30.95,30.95,0,0,0,2.6-5.5l1.1.4a45.179,45.179,0,0,1-2.8,5.4Z"/>
      <path id="Path_318" data-name="Path 318" d="M77.6,34.4a30.229,30.229,0,0,1,5.8,6.3l-.9.6a20.778,20.778,0,0,0-1.5-2c-12.9.8-14,.8-14.7,1.1a3.809,3.809,0,0,0-.3-1,5.015,5.015,0,0,0,1.7-1.3,37.756,37.756,0,0,0,5.2-6.3l1,.5a40.792,40.792,0,0,1-6.1,6.8l12.4-.6A38.534,38.534,0,0,0,76.7,35Zm-9.9,8H81v8.8H80V50H68.8v1.2h-1V42.4Zm1.1,1.1V49H80V43.4H68.8Z"/>
    </g>
    <path id="Path_354" data-name="Path 354" d="M126.8,24V2h-22Z" transform="translate(-10369.811 14642.7)" fill="url(#linear-gradient)"/>
    <path id="Path_314-2" data-name="Path 314" d="M5.254-7.042v.695H3.15V-.5H2.266V-6.348H.167v-.695ZM9.8-.5,9.181-2.184H6.437L5.817-.5h-.9L7.446-7.042h.76L10.695-.5ZM7.811-5.908l-1.1,2.984h2.2L7.836-5.908Zm4.616-1.135V-.5h-.89V-7.042Zm1.882,0,1,4.278.12.82.03,0,.175-.825,1.2-4.278h.785l1.21,4.278.18.845h.025l.13-.845.975-4.278h.89L19.447-.5h-.795L17.362-5.038l-.115-.59h-.03l-.11.59L15.793-.5H15L13.429-7.042ZM26-.5l-.615-1.689H22.638L22.018-.5h-.9l2.534-6.547h.76L26.9-.5ZM24.012-5.908l-1.1,2.984h2.2l-1.08-2.984Zm8.634-1.135V-.5h-.885L28.608-5.558l-.03,0V-.5h-.885V-7.042h.885l3.154,5.053.03-.01V-7.042Zm4.518,4.673a1.116,1.116,0,0,0,.447.95,1.854,1.854,0,0,0,1.142.335,1.821,1.821,0,0,0,1.085-.282.889.889,0,0,0,.39-.757.976.976,0,0,0-.347-.775,2.89,2.89,0,0,0-1.187-.5q-2.2-.53-2.2-1.939a1.578,1.578,0,0,1,.63-1.282,2.553,2.553,0,0,1,1.652-.507,2.43,2.43,0,0,1,1.672.575,1.7,1.7,0,0,1,.625,1.379l-.01.03h-.845a1.208,1.208,0,0,0-.385-.94,1.521,1.521,0,0,0-1.062-.35,1.6,1.6,0,0,0-1.035.292.931.931,0,0,0-.357.755.884.884,0,0,0,.38.745,3.7,3.7,0,0,0,1.245.5q2.114.535,2.114,1.994A1.511,1.511,0,0,1,40.469-.87a2.768,2.768,0,0,1-1.694.48,3.181,3.181,0,0,1-1.227-.232,2.137,2.137,0,0,1-.907-.687,1.6,1.6,0,0,1-.33-1.035l.01-.025Zm5.251-4.158h.895v1.175h.92v.66h-.92V-1.74q0,.62.515.62a.989.989,0,0,0,.33-.06l.115.6A1.083,1.083,0,0,1,43.6-.39a1.126,1.126,0,0,1-.87-.335,1.45,1.45,0,0,1-.31-1.015V-4.693h-.77v-.66h.77ZM46.6-.39a1.607,1.607,0,0,1-1.16-.385,1.428,1.428,0,0,1-.4-1.08,1.261,1.261,0,0,1,.56-1.09,2.632,2.632,0,0,1,1.539-.395h.96v-.48a.886.886,0,0,0-.262-.677.993.993,0,0,0-.71-.247,1.127,1.127,0,0,0-.717.212.647.647,0,0,0-.27.527H45.3l-.01-.025a1.174,1.174,0,0,1,.512-.982,2.115,2.115,0,0,1,1.369-.432,1.96,1.96,0,0,1,1.327.427,1.509,1.509,0,0,1,.495,1.207v2.344a3.414,3.414,0,0,0,.125.98H48.2a4.294,4.294,0,0,1-.1-.73,2.018,2.018,0,0,1-.657.6A1.669,1.669,0,0,1,46.6-.39Zm-.665-1.444h0a.658.658,0,0,0,.2.515.926.926,0,0,0,.635.185,1.541,1.541,0,0,0,.822-.242,1.16,1.16,0,0,0,.512-.567v-.795h-.99a1.319,1.319,0,0,0-.855.262A.8.8,0,0,0,45.937-1.835ZM51.062-.49h-.885V-5.358h.79l.085.71a1.348,1.348,0,0,1,1.21-.8,1.133,1.133,0,0,1,.34.05l-.12.83-.455-.03a.98.98,0,0,0-.965.635Zm2.527-6.038h.895v1.175h.92v.66h-.92V-1.74q0,.62.515.62a.989.989,0,0,0,.33-.06l.115.6a1.083,1.083,0,0,1-.675.185,1.126,1.126,0,0,1-.87-.335,1.45,1.45,0,0,1-.31-1.015V-4.693h-.77v-.66h.77ZM58.06-.39a1.547,1.547,0,0,1-1.255-.517,2.411,2.411,0,0,1-.435-1.577V-5.353h.885v2.879a1.866,1.866,0,0,0,.222,1.065.84.84,0,0,0,.722.3,1.247,1.247,0,0,0,1.25-.735V-5.353h.885V-.485h-.795l-.06-.72A1.549,1.549,0,0,1,58.06-.39Zm7.615-2.239v.095a2.655,2.655,0,0,1-.507,1.7A1.682,1.682,0,0,1,63.775-.2a1.646,1.646,0,0,1-1.364-.6V1.584h-.885V-5.153h.68l.14.63a1.587,1.587,0,0,1,1.4-.72,1.645,1.645,0,0,1,1.422.707A3.222,3.222,0,0,1,65.674-2.629Zm-.89.095v-.095a2.518,2.518,0,0,0-.332-1.377,1.066,1.066,0,0,0-.952-.517,1.165,1.165,0,0,0-1.09.645v2.354a1.167,1.167,0,0,0,1.1.64,1.1,1.1,0,0,0,.945-.45A1.984,1.984,0,0,0,64.785-2.534ZM1.756,4.124v6.547H.866V4.124ZM3.158,5.8h.79l.065.725a1.6,1.6,0,0,1,1.444-.815,1.571,1.571,0,0,1,1.225.467A2.049,2.049,0,0,1,7.106,7.6v3.074H6.222V7.618a1.338,1.338,0,0,0-.25-.91,1,1,0,0,0-.78-.275,1.269,1.269,0,0,0-.675.18,1.325,1.325,0,0,0-.475.51v3.549H3.158Zm6.39,4.868h-.89V6.463H7.894V5.8h.765V5.189a1.684,1.684,0,0,1,.4-1.2A1.491,1.491,0,0,1,10.2,3.559a3.023,3.023,0,0,1,.66.095l-.11.675a1.9,1.9,0,0,0-.435-.045q-.765,0-.765.9V5.8h1.01v.66H9.548ZM12.05,8.2v.1A2.252,2.252,0,0,0,12.382,9.6a1.188,1.188,0,0,0,1.917,0A2.242,2.242,0,0,0,14.634,8.3V8.2A2.234,2.234,0,0,0,14.3,6.915a1.1,1.1,0,0,0-.96-.492,1.082,1.082,0,0,0-.955.492A2.259,2.259,0,0,0,12.05,8.2Zm-.89.1V8.2a2.657,2.657,0,0,1,.59-1.789,1.984,1.984,0,0,1,1.589-.69,1.987,1.987,0,0,1,1.589.687,2.655,2.655,0,0,1,.59,1.792v.1a2.65,2.65,0,0,1-.587,1.792,1.989,1.989,0,0,1-1.589.682,1.993,1.993,0,0,1-1.592-.685A2.645,2.645,0,0,1,11.16,8.3Zm6.23,2.374h-.885V5.808h.79l.085.71a1.348,1.348,0,0,1,1.21-.8,1.133,1.133,0,0,1,.34.05l-.12.83-.455-.03a.98.98,0,0,0-.965.635Zm3.056,0h-.88V5.8h.79l.065.64a1.679,1.679,0,0,1,1.482-.73,1.312,1.312,0,0,1,1.332.9,1.614,1.614,0,0,1,1.489-.9,1.439,1.439,0,0,1,1.185.517,2.389,2.389,0,0,1,.42,1.532v2.909h-.885V7.753A1.665,1.665,0,0,0,25.2,6.74a.854.854,0,0,0-.717-.307.981.981,0,0,0-.76.307,1.349,1.349,0,0,0-.332.8v3.129H22.5V7.753a1.634,1.634,0,0,0-.247-1,.874.874,0,0,0-.737-.32,1.082,1.082,0,0,0-1.07.635Zm8.449.1a1.607,1.607,0,0,1-1.16-.385,1.428,1.428,0,0,1-.4-1.08,1.261,1.261,0,0,1,.56-1.09,2.632,2.632,0,0,1,1.539-.395h.96v-.48a.886.886,0,0,0-.262-.677.993.993,0,0,0-.71-.247,1.127,1.127,0,0,0-.717.212.647.647,0,0,0-.27.527h-.845l-.01-.025a1.174,1.174,0,0,1,.512-.982,2.115,2.115,0,0,1,1.369-.432,1.96,1.96,0,0,1,1.327.427,1.509,1.509,0,0,1,.495,1.207V9.7a3.414,3.414,0,0,0,.125.98H30.5a4.294,4.294,0,0,1-.1-.73,2.018,2.018,0,0,1-.657.6A1.669,1.669,0,0,1,28.9,10.776Zm-.665-1.444h0a.658.658,0,0,0,.2.515.926.926,0,0,0,.635.185,1.541,1.541,0,0,0,.822-.242,1.16,1.16,0,0,0,.512-.567V8.427h-.99a1.319,1.319,0,0,0-.855.262A.8.8,0,0,0,28.231,9.332Zm4.521-4.693h.895V5.813h.92v.66h-.92V9.427q0,.62.515.62a.988.988,0,0,0,.33-.06l.115.6a1.083,1.083,0,0,1-.675.185,1.126,1.126,0,0,1-.87-.335,1.45,1.45,0,0,1-.31-1.015V6.473h-.77v-.66h.77ZM36.508,5.8v4.868h-.885V5.8Zm0-2.149v.9h-.885v-.9ZM38.45,8.2v.1A2.252,2.252,0,0,0,38.782,9.6a1.188,1.188,0,0,0,1.917,0A2.242,2.242,0,0,0,41.034,8.3V8.2A2.234,2.234,0,0,0,40.7,6.915a1.1,1.1,0,0,0-.96-.492,1.082,1.082,0,0,0-.955.492A2.259,2.259,0,0,0,38.45,8.2Zm-.89.1V8.2a2.657,2.657,0,0,1,.59-1.789,2.179,2.179,0,0,1,3.179,0,2.655,2.655,0,0,1,.59,1.792v.1a2.65,2.65,0,0,1-.587,1.792,2.193,2.193,0,0,1-3.181,0A2.645,2.645,0,0,1,37.56,8.3Zm5.345-2.5h.79l.065.725A1.6,1.6,0,0,1,45.2,5.713a1.571,1.571,0,0,1,1.225.467A2.049,2.049,0,0,1,46.854,7.6v3.074h-.885V7.618a1.338,1.338,0,0,0-.25-.91,1,1,0,0,0-.78-.275,1.269,1.269,0,0,0-.675.18,1.325,1.325,0,0,0-.475.51v3.549h-.885Zm8.682-.985V7.353h1.619a1.32,1.32,0,0,0,.987-.345,1.252,1.252,0,0,0,.337-.915,1.272,1.272,0,0,0-.34-.922,1.305,1.305,0,0,0-.985-.352Zm1.619,3.224H51.587v2.629H50.7V4.124h2.5a2.325,2.325,0,0,1,1.624.532,1.844,1.844,0,0,1,.585,1.434,1.825,1.825,0,0,1-.582,1.427A2.344,2.344,0,0,1,53.207,8.042Zm4.086-4.388v7.017h-.885V3.654Zm2.647,7.122a1.607,1.607,0,0,1-1.16-.385,1.428,1.428,0,0,1-.4-1.08,1.261,1.261,0,0,1,.56-1.09,2.632,2.632,0,0,1,1.539-.395h.96v-.48a.886.886,0,0,0-.262-.677.993.993,0,0,0-.71-.247,1.127,1.127,0,0,0-.717.212.647.647,0,0,0-.27.527h-.845l-.01-.025a1.174,1.174,0,0,1,.512-.982,2.115,2.115,0,0,1,1.369-.432,1.96,1.96,0,0,1,1.327.427,1.509,1.509,0,0,1,.495,1.207V9.7a3.415,3.415,0,0,0,.125.98h-.915a4.294,4.294,0,0,1-.1-.73,2.018,2.018,0,0,1-.657.6A1.669,1.669,0,0,1,59.939,10.776Zm-.665-1.444h0a.658.658,0,0,0,.2.515.926.926,0,0,0,.635.185,1.541,1.541,0,0,0,.822-.242,1.16,1.16,0,0,0,.512-.567V8.427h-.99a1.319,1.319,0,0,0-.855.262A.8.8,0,0,0,59.274,9.332ZM63.8,4.639h.895V5.813h.92v.66h-.92V9.427q0,.62.515.62a.988.988,0,0,0,.33-.06l.115.6a1.083,1.083,0,0,1-.675.185,1.126,1.126,0,0,1-.87-.335,1.45,1.45,0,0,1-.31-1.015V6.473h-.77v-.66h.77Zm4.056,6.033h-.89V6.463H66.2V5.8h.765V5.189a1.684,1.684,0,0,1,.4-1.2A1.491,1.491,0,0,1,68.5,3.559a3.023,3.023,0,0,1,.66.095l-.11.675a1.9,1.9,0,0,0-.435-.045q-.765,0-.765.9V5.8h1.01v.66h-1.01Zm2.5-2.469v.1A2.252,2.252,0,0,0,70.685,9.6a1.188,1.188,0,0,0,1.917,0A2.242,2.242,0,0,0,72.937,8.3V8.2A2.234,2.234,0,0,0,72.6,6.915a1.1,1.1,0,0,0-.96-.492,1.082,1.082,0,0,0-.955.492A2.259,2.259,0,0,0,70.353,8.2Zm-.89.1V8.2a2.657,2.657,0,0,1,.59-1.789,2.179,2.179,0,0,1,3.179,0,2.655,2.655,0,0,1,.59,1.792v.1a2.65,2.65,0,0,1-.587,1.792,2.193,2.193,0,0,1-3.181,0A2.645,2.645,0,0,1,69.463,8.3Zm6.23,2.374h-.885V5.808h.79l.085.71a1.348,1.348,0,0,1,1.21-.8,1.133,1.133,0,0,1,.34.05l-.12.83-.455-.03a.98.98,0,0,0-.965.635Zm3.056,0h-.88V5.8h.79l.065.64a1.679,1.679,0,0,1,1.482-.73,1.312,1.312,0,0,1,1.332.9,1.614,1.614,0,0,1,1.489-.9,1.439,1.439,0,0,1,1.185.517,2.389,2.389,0,0,1,.42,1.532v2.909h-.885V7.753a1.664,1.664,0,0,0-.24-1.012.854.854,0,0,0-.717-.307.981.981,0,0,0-.76.307,1.349,1.349,0,0,0-.332.8v3.129H80.8V7.753a1.634,1.634,0,0,0-.247-1,.874.874,0,0,0-.737-.32,1.082,1.082,0,0,0-1.07.635Z" transform="translate(-10277.166 14682.325)" fill="#919191"/>
  </g>
</svg>
