<svg xmlns="http://www.w3.org/2000/svg" width="188.9" height="24.105" viewBox="0 0 188.9 24.105">
  <g id="Group_389" data-name="Group 389" transform="translate(1830.5 -19671)">
    <g id="Group_384" data-name="Group 384" transform="translate(-1831 19671)">
      <path id="Path_311" data-name="Path 311" d="M15.1,2.9a45.664,45.664,0,0,1,6.8,7.5l-2,1.5a21.169,21.169,0,0,0-1.5-2.1c-14.3.8-16,.8-17.1,1.2A16.8,16.8,0,0,0,.5,8.6c.6,0,1.2-.6,2.1-1.4A46.684,46.684,0,0,0,8.3,0l2.4,1A39.728,39.728,0,0,1,4.5,8.2l12.1-.5c-1.1-1.2-2.3-2.5-3.4-3.5ZM2.4,13H19.2V24H16.6V22.7H4.8v1.4H2.4Zm2.4,2.3v5H16.6v-5H4.8Z"/>
      <path id="Path_312" data-name="Path 312" d="M28.5,11.8a18.635,18.635,0,0,0-3.7-2.7l1.3-1.7a15.65,15.65,0,0,1,3.8,2.5ZM25.3,22.6a78.6,78.6,0,0,0,3.2-8.2l1.9,1.2c-.8,2.7-2,5.8-3,8.2ZM28.9,5.1a15.7,15.7,0,0,0-3.6-2.9L26.7.6a15.379,15.379,0,0,1,3.7,2.7ZM32,10a11.98,11.98,0,0,1-1.1,3.5,10.475,10.475,0,0,0-1.1-.8,7.976,7.976,0,0,0,.9-3.1Zm3.3-1.1a6.89,6.89,0,0,1-.3-.8c-3.4.4-4.1.6-4.4.8a9.744,9.744,0,0,0-.5-1.1,2.372,2.372,0,0,0,1.2-.9,19.742,19.742,0,0,0,1.5-1.8,17.336,17.336,0,0,0-2.2.3,5.359,5.359,0,0,0-.5-1.1,1.849,1.849,0,0,0,.9-.7A13.109,13.109,0,0,0,32.5.3l1.4.5a17.79,17.79,0,0,1-1.7,3l1.5-.1c.2-.4.5-.8.7-1.2l1.4.6a23.215,23.215,0,0,1-3,4L34.6,7c-.1-.3-.3-.5-.4-.8l1.1-.4a14.437,14.437,0,0,1,1.2,2.6Zm12.3,9.9a8.144,8.144,0,0,1-.2.9c-.4,2.2-1,3.3-1.6,3.8a3.593,3.593,0,0,1-2.2.6c-.8,0-2.4,0-4-.1a3.115,3.115,0,0,0-.7-1.8,32.972,32.972,0,0,0,3.9.2c.6,0,.8,0,1.1-.2.4-.3.6-.8.9-1.8H31.6c.4-1.2.8-2.8,1.1-4.1H44.1V15.2H31.9V13.7H46.4v4H34.7l-.3,1.1ZM32.9,13.1a12.441,12.441,0,0,0-.5-3.1l1.1-.3a12.238,12.238,0,0,1,.6,3Zm2.3-.7a12.089,12.089,0,0,0-.8-2.8l1-.4a12.171,12.171,0,0,1,.9,2.7Zm7-8.2H36V2.8h2.6a17.6,17.6,0,0,0-.9-2L39.3.4a7.454,7.454,0,0,1,1,2l-1.2.3h3V4.2ZM36.8,9h4.9v3.8H36.8Zm4.8-2.8H36.8V5h4.8Zm-4.8.7h4.8V8.1H36.8Zm1.5,4.7h1.8V10.2H38.3ZM44,9.9a11.98,11.98,0,0,1-1.1,3.5c-.3-.2-.8-.6-1.1-.8a8.017,8.017,0,0,0,.9-3ZM47.4,9a4.649,4.649,0,0,1-.3-.9c-3.4.5-4.1.6-4.4.8a9.744,9.744,0,0,0-.5-1.1,2.372,2.372,0,0,0,1.2-.9c.2-.3.8-.9,1.4-1.8-1.5.2-1.9.2-2.2.4a5.359,5.359,0,0,0-.5-1.1c.3,0,.5-.3.8-.7A11.536,11.536,0,0,0,44.5.5l1.4.5a10.532,10.532,0,0,1-1.7,2.9l1.5-.1.6-1.2,1.4.6a23.215,23.215,0,0,1-3,4L46.6,7a5.937,5.937,0,0,1-.4-.8l1.1-.4a16.246,16.246,0,0,1,1.3,2.7ZM45,13.3a15.512,15.512,0,0,0-.5-3.4l1.1-.3a14.461,14.461,0,0,1,.6,3.3Zm2.5-4.1a11.636,11.636,0,0,1,1,3.2l-1.1.5a11.245,11.245,0,0,0-1-3.3Z"/>
      <path id="Path_313" data-name="Path 313" d="M55.2,16.8A28.009,28.009,0,0,1,52.6,22a9.908,9.908,0,0,0-1.7-1.1,15.994,15.994,0,0,0,2.4-4.7Zm3.3-1.7v8.8H56.2V15.1h-5V13h5V10.6H51v-2h2.8a16.455,16.455,0,0,0-.9-3.3l2-.5a23.266,23.266,0,0,1,1,3.2L54,8.7h4.1a28.445,28.445,0,0,0,1.3-3.8l2.2.5c-.4,1.1-.9,2.3-1.3,3.3h3v2H58.5v2.4h4.4v2.1H58.5ZM62.9,4.9H51.5v-2h4.8c-.3-.7-.6-1.6-.9-2.2L57.8.1c.4.9,1,2,1.3,2.8H63v2ZM61,16a26.664,26.664,0,0,1,2.2,3.9l-1.7,1a22.124,22.124,0,0,0-2.1-4Zm13.7-4.9H72V24H69.6V11.1h-3v.6c0,3.7-.3,8.9-2.7,12.2a10.991,10.991,0,0,0-1.8-1.4c2.1-3,2.2-7.4,2.2-10.8v-9a41.742,41.742,0,0,0,8-2.1l1.9,1.8a38.356,38.356,0,0,1-7.6,1.9V8.8h8.1Z"/>
      <path id="Path_314" data-name="Path 314" d="M81,16.1c-.1.3-.1.7-.2,1h9.8v6.8H88.5V23H82.9v.9H80.8V17.4a18.4,18.4,0,0,1-2,5.7,10.244,10.244,0,0,0-2.1-1c2-3.2,2.3-7.6,2.3-10.6V8.3H89.9v7.8ZM86.4,1.2a4.347,4.347,0,0,0-.4.7c2,1.2,4.3,2.6,5.5,3.5l-1.2,2c-1.2-1-3.6-2.5-5.6-3.8a21.978,21.978,0,0,1-2.3,2h5V7.1H82V6a24.844,24.844,0,0,1-4,2.6,18.6,18.6,0,0,0-1.3-2.3c2.9-1.4,5.9-3.5,7.5-6Zm1.3,13.2V12.9H81.2c0,.5-.1,1-.1,1.5ZM81.2,10v1.4h6.5V10Zm1.6,8.8v2.3h5.6V18.8Zm12-1.5H92.5V3h2.3ZM99.6.3V21c0,1.4-.3,2.1-1.1,2.5a10.992,10.992,0,0,1-4.3.5,8.454,8.454,0,0,0-.8-2.4,15.975,15.975,0,0,0,3.2,0c.4,0,.6-.1.6-.6V.3Z"/>
    </g>
    <g id="Group_385" data-name="Group 385" transform="translate(-1725 19643.4)">
      <path id="Path_315" data-name="Path 315" d="M6,37.4H0v-.9H6ZM7.5,48.7A31.352,31.352,0,0,1,1,51.2a6.034,6.034,0,0,0-.8-.8,32.032,32.032,0,0,0,6.4-2.1ZM5.5,34H.5v-.9h5ZM2.9,39.3H16.7V48H2.9Zm1,2.6H15.6V40.1H3.9Zm0,2.6H15.6V42.7H3.9Zm0,2.6H15.6V45.2H3.9ZM9.5,34.2a14.647,14.647,0,0,1-1.7,2.4A4.173,4.173,0,0,0,7,36a10.2,10.2,0,0,0,2.5-4.3l1,.2c-.2.5-.3.9-.5,1.4h8.2l.7.3c-.5,1-1.2,2.2-1.7,3l-.8-.3a17.588,17.588,0,0,0,1.2-2H13.5v.2a3.751,3.751,0,0,1-.1,1c1.1,1.4,3.6,2.4,6.4,2.7a4.173,4.173,0,0,0-.6.8,10.549,10.549,0,0,1-6.1-2.8c-.6,1.1-2.3,2.2-6.2,3a2.407,2.407,0,0,0-.6-.8c5.8-.9,6.3-2.7,6.3-3.9v-.2H9.5Zm3.1,14.1a60.832,60.832,0,0,1,6.5,2.2l-.9.6a43.3,43.3,0,0,0-6.3-2.3Z"/>
      <path id="Path_316" data-name="Path 316" d="M29.3,36.4H21.6v-.9h7.7Zm-.8,13.5H23.3V51h-.9V43.8h6v6.1ZM22.4,39.1v-.9h6v.9Zm0,1.9h6v.9h-6Zm.9,3.7V49h4.3V44.7Zm2.2-9.8a13.342,13.342,0,0,0-1.6-2.8l.8-.5a20.933,20.933,0,0,1,1.6,2.7ZM38.7,33c-.1,9.7-.2,16.4,1.3,16.8.2,0,.3-1.3.4-3a3.735,3.735,0,0,0,.7.6c-.2,3-.6,3.6-1.4,3.4-2.1-.6-2-7.3-2-16.8H33.5v6.8h3.3v1H33.5v9.5h-1V41.8H29.3v-1h3.2V34h-3V33Z"/>
      <path id="Path_317" data-name="Path 317" d="M62.4,43.4H53.3v7.9h-1V43.4h-9v-1h9V34.3H44.4v-1H61.2v1H53.3v8.1h9.1ZM46.9,35.5a24.361,24.361,0,0,1,2.2,5.2l-1,.4a24.361,24.361,0,0,0-2.2-5.2ZM56,40.9a30.95,30.95,0,0,0,2.6-5.5l1.1.4a45.179,45.179,0,0,1-2.8,5.4Z"/>
      <path id="Path_318" data-name="Path 318" d="M77.6,34.4a30.229,30.229,0,0,1,5.8,6.3l-.9.6a20.778,20.778,0,0,0-1.5-2c-12.9.8-14,.8-14.7,1.1a3.809,3.809,0,0,0-.3-1,5.015,5.015,0,0,0,1.7-1.3,37.756,37.756,0,0,0,5.2-6.3l1,.5a40.792,40.792,0,0,1-6.1,6.8l12.4-.6A38.535,38.535,0,0,0,76.7,35Zm-9.9,8H81v8.8H80V50H68.8v1.2h-1V42.4Zm1.1,1.1V49H80V43.4H68.8Z"/>
    </g>
  </g>
</svg>
